STARTFONT 2.1
FONT -FontForge-Source Serif Pro Black-Black-R-Normal--40-380-75-75-P-223-ISO10646-1
SIZE 38 75 75
FONTBOUNDINGBOX 106 55 -12 -13
COMMENT "Generated by fontforge, http://fontforge.sourceforge.net"
COMMENT "(c) 2014 - 2019 Adobe Systems Incorporated (http://www.adobe.com/), with Reserved Font Name `Source'."
STARTPROPERTIES 40
FOUNDRY "FontForge"
FAMILY_NAME "Source Serif Pro Black"
WEIGHT_NAME "Black"
SLANT "R"
SETWIDTH_NAME "Normal"
ADD_STYLE_NAME ""
PIXEL_SIZE 40
POINT_SIZE 380
RESOLUTION_X 75
RESOLUTION_Y 75
SPACING "P"
AVERAGE_WIDTH 223
CHARSET_REGISTRY "ISO10646"
CHARSET_ENCODING "1"
FONTNAME_REGISTRY ""
CHARSET_COLLECTIONS "ISO8859-5 ISO8859-7 ISO10646-1"
FONT_NAME "SourceSerifPro-Black"
FACE_NAME "Source Serif Pro Black"
COPYRIGHT "(c) 2014 - 2019 Adobe Systems Incorporated (http://www.adobe.com/), with Reserved Font Name `Source'."
FONT_VERSION "3.001;hotconv 1.0.111;makeotfexe 2.5.65597"
FONT_ASCENT 32
FONT_DESCENT 8
UNDERLINE_POSITION -3
UNDERLINE_THICKNESS 2
X_HEIGHT 18
CAP_HEIGHT 25
RAW_ASCENT 800
RAW_DESCENT 200
NORM_SPACE 8
RELATIVE_WEIGHT 90
RELATIVE_SETWIDTH 50
SUPERSCRIPT_X 0
SUPERSCRIPT_Y 14
SUPERSCRIPT_SIZE 24
SUBSCRIPT_X 0
SUBSCRIPT_Y 3
SUBSCRIPT_SIZE 24
FIGURE_WIDTH 22
AVG_LOWERCASE_WIDTH 224
AVG_UPPERCASE_WIDTH 270
ENDPROPERTIES
CHARS 1458
STARTCHAR space.dup1
ENCODING 32
SWIDTH 206 0
DWIDTH 8 0
BBX 1 1 0 0
BITMAP
00
ENDCHAR
STARTCHAR exclam
ENCODING 33
SWIDTH 370 0
DWIDTH 15 0
BBX 9 27 3 -1
BITMAP
7E00
FF00
FF80
FF80
FF80
FF80
FF80
FF00
7F00
7F00
7E00
3E00
3E00
3C00
1C00
0000
0000
0000
0C00
7E00
7F00
FF00
FF80
FF00
7F00
7E00
0800
ENDCHAR
STARTCHAR quotedbl
ENCODING 34
SWIDTH 484 0
DWIDTH 19 0
BBX 16 14 2 15
BITMAP
783C
FC7E
FE7F
FE7F
FE7F
FE7F
FC7E
FC7E
7C3E
7C3E
783C
783C
381C
301C
ENDCHAR
STARTCHAR numbersign
ENCODING 35
SWIDTH 583 0
DWIDTH 23 0
BBX 22 26 1 0
BITMAP
03C1E0
03C1E0
03C1E0
03C1E0
03C1E0
0381C0
0783C0
7FFFFC
7FFFFC
7FFFFC
7FFFFC
070380
0F0380
0F0780
0F0780
FFFFF0
FFFFF0
FFFFF0
FFFFF0
FFFFF0
1E0F00
1E0F00
1E0F00
1E0F00
1E0F00
3C1E00
ENDCHAR
STARTCHAR dollar
ENCODING 36
SWIDTH 560 0
DWIDTH 22 0
BBX 19 34 2 -5
BITMAP
00E000
00E000
00E000
00E000
0FFE00
1FFF80
3EEF80
7CEFC0
7CEFC0
FCE7C0
FCE380
FEE000
FFE000
FFF000
7FFC00
3FFF00
3FFF80
0FFFC0
03FFC0
00FFE0
00FFE0
00EFE0
78E7E0
F8E7E0
FCE7C0
FCE7C0
7CEF80
7FFF00
1FFC00
01E000
00E000
00E000
00E000
00E000
ENDCHAR
STARTCHAR percent
ENCODING 37
SWIDTH 880 0
DWIDTH 35 0
BBX 31 27 2 -1
BITMAP
00000180
0F8003C0
3DC00380
79E00700
78F00E00
F0F00E00
F0F01C00
F0F03800
F0F83800
F0F87000
F0F0E3F0
F0F0E738
F0F1CF3C
78F39E1C
79E39E1E
3DC71E1E
0F8E1E1E
000E1E1E
001C1E1E
00381E1E
00381E1E
00701E1E
00E01E1C
00E00F3C
01C00738
038003F0
01800000
ENDCHAR
STARTCHAR ampersand
ENCODING 38
SWIDTH 721 0
DWIDTH 29 0
BBX 27 28 1 -1
BITMAP
00100000
01FF0000
07C7C000
0F87C000
0F83E000
0F83E000
1F87E000
1FC7C000
0FC7C000
0FEF8000
0FFE3FE0
07F83FE0
07FC0700
03FC0700
0FFE0700
3FFF0E00
7CFF8E00
7C7FDC00
FC3FF800
FC1FF800
FC1FF800
FE0FFC00
FF07FE00
FF83FFC0
7FFFFFE0
3FFEFFE0
1FF83FE0
03C00700
ENDCHAR
STARTCHAR quotesingle
ENCODING 39
SWIDTH 257 0
DWIDTH 10 0
BBX 7 14 2 15
BITMAP
78
FC
FE
FE
FE
FE
FC
FC
7C
7C
78
78
38
30
ENDCHAR
STARTCHAR parenleft
ENCODING 40
SWIDTH 393 0
DWIDTH 16 0
BBX 12 35 3 -6
BITMAP
0040
00E0
01F0
03E0
07C0
0F80
1F00
1F00
3E00
3E00
7C00
7C00
FC00
FC00
F800
F800
F800
F800
F800
F800
F800
F800
FC00
7C00
7C00
7C00
3E00
3E00
1F00
1F80
0F80
07C0
03E0
01F0
00C0
ENDCHAR
STARTCHAR parenright
ENCODING 41
SWIDTH 393 0
DWIDTH 16 0
BBX 12 35 1 -6
BITMAP
2000
7000
F800
7C00
3E00
1F00
1F00
0F80
0FC0
07C0
07E0
03E0
03E0
03E0
03F0
03F0
03F0
03F0
03F0
03F0
03F0
03F0
03E0
03E0
03E0
07C0
07C0
0FC0
0F80
1F00
3E00
3E00
7C00
F800
6000
ENDCHAR
STARTCHAR asterisk
ENCODING 42
SWIDTH 427 0
DWIDTH 17 0
BBX 17 15 0 14
BITMAP
01C000
03E000
03E000
03E000
71C700
FDDF00
FFFF80
7FFF00
3FFC00
03E000
0F7800
1F7C00
1F7C00
1E3C00
1E3C00
ENDCHAR
STARTCHAR plus
ENCODING 43
SWIDTH 550 0
DWIDTH 22 0
BBX 20 20 1 3
BITMAP
00F000
00F000
00F000
00F000
00F000
00F000
00F000
00F000
FFFFF0
FFFFF0
FFFFF0
FFFFF0
00F000
00F000
00F000
00F000
00F000
00F000
00F000
00F000
ENDCHAR
STARTCHAR comma
ENCODING 44
SWIDTH 300 0
DWIDTH 12 0
BBX 9 15 1 -8
BITMAP
1F00
3F00
7F80
7F80
7F80
3F80
3F80
0F00
0700
0E00
1E00
3C00
7800
E000
8000
ENDCHAR
STARTCHAR hyphen.dup2
ENCODING 45
SWIDTH 350 0
DWIDTH 14 0
BBX 10 4 2 8
BITMAP
FFC0
FFC0
FFC0
FFC0
ENDCHAR
STARTCHAR period
ENCODING 46
SWIDTH 300 0
DWIDTH 12 0
BBX 8 8 2 -1
BITMAP
3C
7E
FF
FF
FF
FF
7E
18
ENDCHAR
STARTCHAR slash
ENCODING 47
SWIDTH 410 0
DWIDTH 16 0
BBX 16 34 0 -6
BITMAP
001F
001E
003E
003E
003C
007C
007C
007C
00F8
00F8
00F8
01F0
01F0
01F0
01E0
03E0
03E0
03C0
07C0
07C0
07C0
0F80
0F80
0F80
0F00
1F00
1F00
1E00
3E00
3E00
3C00
7C00
7C00
FC00
ENDCHAR
STARTCHAR zero
ENCODING 48
SWIDTH 560 0
DWIDTH 22 0
BBX 20 27 1 -1
BITMAP
007000
03FE00
0FFF00
1F8F80
1F0FC0
3F0FC0
3F07E0
7F07E0
7F07F0
7E07F0
7E07F0
FE07F0
FE07F0
FE07F0
FE07F0
FE07F0
7E07F0
7E07F0
7F07F0
7F07E0
3F07E0
3F0FC0
1F0FC0
1F8F80
0FFF00
03FE00
006000
ENDCHAR
STARTCHAR one
ENCODING 49
SWIDTH 560 0
DWIDTH 22 0
BBX 16 25 3 0
BITMAP
01F0
1FF0
7FF0
7FF0
0FF0
0FF0
0FF0
0FF0
0FF0
0FF0
0FF0
0FF0
0FF0
0FF0
0FF0
0FF0
0FF0
0FF0
0FF0
0FF0
0FF0
0FF0
3FFE
FFFF
FFFF
ENDCHAR
STARTCHAR two
ENCODING 50
SWIDTH 560 0
DWIDTH 22 0
BBX 19 26 2 0
BITMAP
007000
0FFE00
3FFF00
7C3F80
7C3FC0
FC1FC0
FC1FC0
FC1FC0
781FC0
001FC0
003FC0
003F80
007F00
00FE00
00FC00
01F800
03F000
07C000
0F8000
1E0000
3FFFE0
7FFFE0
FFFFE0
FFFFE0
FFFFE0
FFFFE0
ENDCHAR
STARTCHAR three
ENCODING 51
SWIDTH 560 0
DWIDTH 22 0
BBX 19 27 2 -1
BITMAP
00E000
0FFE00
1FFF00
3E3F80
7E1FC0
7E1FC0
7C1FC0
7C1FC0
001FC0
001FC0
003F80
007F00
07FC00
07FE00
00FF80
003FC0
001FE0
001FE0
F81FE0
F81FE0
F81FE0
FC1FE0
FC1FC0
7C3FC0
3FFF80
1FFE00
00E000
ENDCHAR
STARTCHAR four
ENCODING 52
SWIDTH 560 0
DWIDTH 22 0
BBX 20 25 1 0
BITMAP
001F80
003F80
007F80
007F80
00FF80
01FF80
01FF80
03BF80
073F80
063F80
0E3F80
1C3F80
383F80
383F80
703F80
FFFFF0
FFFFF0
FFFFF0
FFFFF0
FFFFF0
FFFFF0
003F80
003F80
003F80
003F80
ENDCHAR
STARTCHAR five
ENCODING 53
SWIDTH 560 0
DWIDTH 22 0
BBX 19 26 2 -1
BITMAP
1FFFC0
1FFFC0
1FFFC0
1FFFC0
1FFFC0
1FFFC0
180000
180000
180000
380000
3FFE00
3FFF00
1FFFC0
003FC0
001FE0
001FE0
001FE0
F81FE0
F81FE0
F81FE0
FC1FE0
FC1FC0
7C3FC0
3FFF00
1FFE00
01C000
ENDCHAR
STARTCHAR six
ENCODING 54
SWIDTH 560 0
DWIDTH 22 0
BBX 20 27 1 -1
BITMAP
000040
000FC0
003FC0
00FF00
03FC00
07F000
0FE000
1FC000
3FC000
3F8000
7F8E00
7F7FC0
FFFFE0
FF9FE0
FF0FF0
FF0FF0
FF07F0
FF07F0
FF07F0
FF07F0
7F07F0
7F0FF0
3F0FE0
3F8FC0
1FFF80
07FE00
007000
ENDCHAR
STARTCHAR seven
ENCODING 55
SWIDTH 560 0
DWIDTH 22 0
BBX 19 25 2 0
BITMAP
FFFFE0
FFFFE0
FFFFE0
FFFFE0
FFFFC0
FFFFC0
000780
000780
000F80
000F00
001F00
003E00
003E00
007C00
00FC00
00F800
01F800
03F800
03F000
07F000
07E000
0FE000
1FC000
1FC000
3FC000
ENDCHAR
STARTCHAR eight
ENCODING 56
SWIDTH 560 0
DWIDTH 22 0
BBX 19 27 2 -1
BITMAP
00E000
0FFE00
1FFF00
3E1F80
7C0FC0
FC0FC0
FC0FC0
FE0FC0
FF0F80
FF9F00
7FFE00
7FF800
3FFE00
1FFF00
0FFF80
1FFFC0
3EFFC0
7C3FE0
FC1FE0
FC0FE0
FC0FE0
FC0FC0
FC0FC0
FE1F80
7FFF00
3FFE00
01E000
ENDCHAR
STARTCHAR nine
ENCODING 57
SWIDTH 560 0
DWIDTH 22 0
BBX 20 27 1 -1
BITMAP
006000
07FE00
1FFF80
3F8FC0
7F0FE0
7F07E0
FF07F0
FF07F0
FF07F0
FF07F0
FF07F0
FF07F0
7F07F0
7F87F0
3FFFF0
0FFFF0
008FE0
000FE0
001FC0
001FC0
003F80
007F00
01FE00
07F800
3FE000
1F8000
180000
ENDCHAR
STARTCHAR colon
ENCODING 58
SWIDTH 300 0
DWIDTH 12 0
BBX 8 21 2 -1
BITMAP
3C
7E
FF
FF
FF
FF
7E
18
00
00
00
00
00
3C
7E
FF
FF
FF
FF
7E
18
ENDCHAR
STARTCHAR semicolon
ENCODING 59
SWIDTH 300 0
DWIDTH 12 0
BBX 9 28 1 -8
BITMAP
1E00
3F00
7F80
7F80
7F80
7F80
3F00
0C00
0000
0000
0000
0000
0000
1F00
3F00
7F80
7F80
7F80
3F80
3F80
0F00
0700
0E00
1E00
3C00
7800
E000
8000
ENDCHAR
STARTCHAR less
ENCODING 60
SWIDTH 550 0
DWIDTH 22 0
BBX 19 20 1 3
BITMAP
0000C0
0003C0
000FE0
003FE0
00FFC0
03FF00
0FFC00
3FF000
FF8000
FE0000
FE0000
FF8000
7FE000
1FF800
07FE00
00FF80
003FE0
000FE0
0003C0
0000C0
ENDCHAR
STARTCHAR equal
ENCODING 61
SWIDTH 550 0
DWIDTH 22 0
BBX 20 12 1 7
BITMAP
FFFFF0
FFFFF0
FFFFF0
FFFFF0
000000
000000
000000
000000
FFFFF0
FFFFF0
FFFFF0
FFFFF0
ENDCHAR
STARTCHAR greater
ENCODING 62
SWIDTH 550 0
DWIDTH 22 0
BBX 19 20 2 3
BITMAP
600000
780000
FE0000
FF8000
7FE000
1FF800
07FE00
01FF80
007FE0
000FE0
000FE0
003FE0
00FFC0
03FF00
0FFC00
3FE000
FF8000
FE0000
780000
600000
ENDCHAR
STARTCHAR question
ENCODING 63
SWIDTH 462 0
DWIDTH 18 0
BBX 13 28 3 -1
BITMAP
3800
7E00
FF80
FFC0
FFE0
7FF0
1FF0
0038
0038
01F8
1FF8
3FF8
7FF8
3FF0
3FC0
3E00
3800
1800
0000
1800
7E00
7F00
FF00
FF00
FF00
FF00
7E00
1800
ENDCHAR
STARTCHAR at
ENCODING 64
SWIDTH 913 0
DWIDTH 37 0
BBX 32 32 2 -6
BITMAP
0003FE00
001FFFC0
007E03F0
01F00078
03C0003C
0780001E
0F00000E
1E03F18F
1C0FFF87
3C1FFF87
383F1F87
783E1F87
707C1F07
707C3F07
F0FC3F07
F0FC3F07
F0F83F07
F1F83F07
F1FC3E0E
F0FC3E1E
F0FFFE1C
F0FFFFF8
70FF9FF0
787F0FE0
78080100
3C000000
3E000000
1F000000
0FE00800
07FFFC00
01FFFC00
007FC000
ENDCHAR
STARTCHAR A
ENCODING 65
SWIDTH 680 0
DWIDTH 27 0
BBX 27 26 0 0
BITMAP
001F8000
001F8000
001F8000
003FC000
003FC000
003FC000
007FE000
007FE000
006FE000
00CFF000
00CFF000
00C7F000
0187F800
0187F800
0183F800
0383FC00
03FFFC00
07FFFC00
07FFFE00
0601FE00
0E00FE00
0E00FF00
0C00FF00
7F01FF00
FF83FFE0
FF83FFE0
ENDCHAR
STARTCHAR B
ENCODING 66
SWIDTH 660 0
DWIDTH 26 0
BBX 25 26 1 0
BITMAP
FFFFE000
FFFFF800
3FEFFC00
1FE1FE00
1FE1FE00
1FE1FE00
1FE0FE00
1FE1FE00
1FE1FE00
1FE1FC00
1FE3F000
1FFFC000
1FFFF000
1FEFFC00
1FE1FE00
1FE0FF00
1FE0FF00
1FE07F80
1FE07F80
1FE07F80
1FE0FF00
1FE0FF00
1FE1FE00
7FEFFC00
FFFFF800
FFFFC000
ENDCHAR
STARTCHAR C
ENCODING 67
SWIDTH 618 0
DWIDTH 25 0
BBX 23 28 1 -1
BITMAP
001FC0
00FFF8
03FFFC
0FF03C
1FE03E
3FC01E
3FC01E
7F801E
7F8000
7F8000
FF8000
FF0000
FF0000
FF0000
FF0000
FF0000
FF0000
FF8000
7F8000
7F800E
7F801E
3FC01E
3FC01E
1FE01E
0FF03E
07FFFE
01FFF8
001F80
ENDCHAR
STARTCHAR D
ENCODING 68
SWIDTH 703 0
DWIDTH 28 0
BBX 26 26 1 0
BITMAP
FFFF8000
FFFFF000
3FEFF800
1FE1FC00
1FE0FE00
1FE0FF00
1FE07F80
1FE07F80
1FE03F80
1FE03FC0
1FE03FC0
1FE03FC0
1FE03FC0
1FE03FC0
1FE03FC0
1FE03FC0
1FE03FC0
1FE03F80
1FE07F80
1FE07F00
1FE0FF00
1FE0FE00
1FE1FC00
7FEFF800
FFFFE000
FFFF0000
ENDCHAR
STARTCHAR E
ENCODING 69
SWIDTH 591 0
DWIDTH 24 0
BBX 22 26 1 0
BITMAP
FFFFF8
FFFFF8
3FE078
1FE078
1FE078
1FE078
1FE078
1FE000
1FE1C0
1FE1C0
1FE1C0
1FFFC0
1FFFC0
1FFFC0
1FE1C0
1FE1C0
1FE1C0
1FE000
1FE000
1FE03C
1FE03C
1FE03C
1FE07C
7FE07C
FFFFFC
FFFFFC
ENDCHAR
STARTCHAR F
ENCODING 70
SWIDTH 580 0
DWIDTH 23 0
BBX 21 26 1 0
BITMAP
FFFFF8
FFFFF8
3FE078
1FE078
1FE078
1FE078
1FE038
1FE000
1FE1C0
1FE1C0
1FE1C0
1FFFC0
1FFFC0
1FFFC0
1FE1C0
1FE1C0
1FE1C0
1FE000
1FE000
1FE000
1FE000
1FE000
1FE000
7FF800
FFFC00
FFFC00
ENDCHAR
STARTCHAR G
ENCODING 71
SWIDTH 672 0
DWIDTH 27 0
BBX 25 28 1 -1
BITMAP
001FC000
01FFF800
07FFFC00
0FF03C00
1FE03C00
3FC03C00
3FC01C00
7F801E00
7F800000
7F800000
FF800000
FF000000
FF000000
FF000000
FF0FFF80
FF0FFF80
FF03FF00
FF80FE00
7F80FE00
7F80FE00
7F80FE00
3FC0FE00
3FC0FE00
1FE0FE00
0FF0FE00
03FFFE00
01FFF800
001FC000
ENDCHAR
STARTCHAR H
ENCODING 72
SWIDTH 756 0
DWIDTH 30 0
BBX 28 26 1 0
BITMAP
FFF9FFF0
FFF9FFF0
3FE07FC0
1FE07F80
1FE07F80
1FE07F80
1FE07F80
1FE07F80
1FE07F80
1FE07F80
1FE07F80
1FFFFF80
1FFFFF80
1FFFFF80
1FE07F80
1FE07F80
1FE07F80
1FE07F80
1FE07F80
1FE07F80
1FE07F80
1FE07F80
1FE07F80
7FF0FFE0
FFF9FFF0
FFF9FFF0
ENDCHAR
STARTCHAR I
ENCODING 73
SWIDTH 395 0
DWIDTH 16 0
BBX 14 26 1 0
BITMAP
FFFC
FFFC
3FF0
1FE0
1FE0
1FE0
1FE0
1FE0
1FE0
1FE0
1FE0
1FE0
1FE0
1FE0
1FE0
1FE0
1FE0
1FE0
1FE0
1FE0
1FE0
1FE0
1FE0
7FF0
FFFC
FFFC
ENDCHAR
STARTCHAR J
ENCODING 74
SWIDTH 404 0
DWIDTH 16 0
BBX 19 33 -4 -7
BITMAP
07FFE0
07FFE0
01FF80
00FF00
00FF00
00FF00
00FF00
00FF00
00FF00
00FF00
00FF00
00FF00
00FF00
00FF00
00FF00
007F00
007F00
007F00
007F00
007F00
007F00
007F00
007F00
007F00
007E00
007E00
007E00
78FC00
FCFC00
FEF800
FFF000
7FE000
3F8000
ENDCHAR
STARTCHAR K
ENCODING 75
SWIDTH 708 0
DWIDTH 28 0
BBX 27 26 1 0
BITMAP
FFF8FFC0
FFF8FFC0
3FE07F00
1FE03800
1FC07000
1FC07000
1FC0E000
1FC1C000
1FC38000
1FC7C000
1FC7C000
1FCFE000
1FDFE000
1FFFF000
1FFFF000
1FE7F800
1FC7F800
1FC3FC00
1FC3FC00
1FC1FE00
1FC1FE00
1FC1FF00
1FE0FF00
7FE0FFC0
FFF9FFE0
FFF9FFE0
ENDCHAR
STARTCHAR L
ENCODING 76
SWIDTH 574 0
DWIDTH 23 0
BBX 22 26 1 0
BITMAP
FFFC00
FFFC00
3FF000
1FE000
1FE000
1FE000
1FE000
1FE000
1FE000
1FE000
1FE000
1FE000
1FE000
1FE000
1FE000
1FE000
1FE000
1FE000
1FE03C
1FE03C
1FE038
1FE078
1FE078
7FE078
FFFFF8
FFFFF8
ENDCHAR
STARTCHAR M
ENCODING 77
SWIDTH 893 0
DWIDTH 36 0
BBX 35 26 0 0
BITMAP
7FF801FFC0
7FF801FFC0
1FFC01FF80
0FFC03FF00
0FFC03FF00
0FFE03FF00
0FFE07FF00
0FFE07FF00
0EFF06FF00
0EFF0EFF00
0EFF0EFF00
0E7F8CFF00
0E7F9CFF00
0E3F9CFF00
0E3FD8FF00
0E3FF8FF00
0E1FF8FF00
0E1FF0FF00
0E1FF0FF00
0E0FF0FF00
0E0FE0FF00
0E0FE0FF00
0E07E0FF00
3FC7C3FF80
FFC7C7FFE0
FFC3C7FFE0
ENDCHAR
STARTCHAR N
ENCODING 78
SWIDTH 725 0
DWIDTH 29 0
BBX 27 26 1 0
BITMAP
FFE0FFE0
FFE0FFE0
3FF03FC0
1FF80700
1FFC0700
1FFC0700
1FFE0700
1FFF0700
1DFF0700
1CFF8700
1CFFC700
1C7FE700
1C3FE700
1C3FF700
1C1FFF00
1C0FFF00
1C07FF00
1C07FF00
1C03FF00
1C01FF00
1C01FF00
1C00FF00
1C007F00
7FC03F00
FFE03F00
FFE01F00
ENDCHAR
STARTCHAR O
ENCODING 79
SWIDTH 700 0
DWIDTH 28 0
BBX 26 28 1 -1
BITMAP
003F0000
01FFE000
07FFF800
0FE1FC00
1FC0FE00
3F807F00
3F807F00
7F807F80
7F807F80
7F807F80
FF003FC0
FF003FC0
FF003FC0
FF003FC0
FF003FC0
FF003FC0
FF003FC0
FF003FC0
7F807F80
7F807F80
7F807F80
3F807F00
3F80FF00
1FC0FE00
0FE1FC00
07FFF800
01FFE000
003F0000
ENDCHAR
STARTCHAR P
ENCODING 80
SWIDTH 622 0
DWIDTH 25 0
BBX 23 26 1 0
BITMAP
FFFF80
FFFFF0
3FEFF8
1FE1FC
1FE1FE
1FE0FE
1FE0FE
1FE0FE
1FE0FE
1FE0FE
1FE0FE
1FE1FC
1FE1FC
1FE7F8
1FFFF0
1FFF80
1FE000
1FE000
1FE000
1FE000
1FE000
1FE000
1FE000
7FF800
FFFC00
FFFC00
ENDCHAR
STARTCHAR Q
ENCODING 81
SWIDTH 700 0
DWIDTH 28 0
BBX 26 35 1 -8
BITMAP
003F0000
01FFE000
07FFF800
0FE1FC00
1FC0FE00
3F807F00
3F807F00
7F807F80
7F807F80
7F807F80
FF003FC0
FF003FC0
FF003FC0
FF003FC0
FF003FC0
FF003FC0
FF003FC0
FF003FC0
7F807F80
7F807F80
7F807F80
3F807F00
3F80FF00
1FC0FE00
0FE1FC00
07FFF800
01FFE000
007F8000
007F8000
003F8000
003FC000
001FE200
001FFF00
0007FF00
0001FE00
ENDCHAR
STARTCHAR R
ENCODING 82
SWIDTH 696 0
DWIDTH 28 0
BBX 27 27 1 -1
BITMAP
FFFFE000
FFFFF800
3FEFFC00
1FE1FE00
1FE0FE00
1FE0FF00
1FE0FF00
1FE0FF00
1FE0FE00
1FE0FE00
1FE1FC00
1FE7F000
1FFF8000
1FFFF000
1FE3FC00
1FE3FC00
1FE1FE00
1FE1FE00
1FE1FE00
1FE1FE00
1FE1FF00
1FE1FF00
1FE1FF00
7FF0FFC0
FFFCFFE0
FFFC7FE0
00000F00
ENDCHAR
STARTCHAR S
ENCODING 83
SWIDTH 553 0
DWIDTH 22 0
BBX 20 28 1 -1
BITMAP
01FE00
07FFC0
1FFFE0
3F83E0
7F03E0
7F03E0
7F03E0
7F03E0
7F8000
7FC000
7FF000
7FFC00
3FFF00
1FFF80
0FFFC0
07FFE0
01FFF0
007FF0
001FF0
000FF0
F807F0
F807F0
F807F0
F807E0
F80FC0
FFFF80
3FFF00
07F800
ENDCHAR
STARTCHAR T
ENCODING 84
SWIDTH 646 0
DWIDTH 26 0
BBX 24 26 1 0
BITMAP
FFFFFF
FFFFFF
F0FF0F
F0FF0F
F0FF0F
F0FF0F
F0FF0F
00FF00
00FF00
00FF00
00FF00
00FF00
00FF00
00FF00
00FF00
00FF00
00FF00
00FF00
00FF00
00FF00
00FF00
00FF00
00FF00
03FFC0
07FFE0
07FFE0
ENDCHAR
STARTCHAR U
ENCODING 85
SWIDTH 732 0
DWIDTH 29 0
BBX 27 27 1 -1
BITMAP
FFFC3FE0
FFFC3FE0
3FF00700
1FE00700
1FE00700
1FE00700
1FE00700
1FE00700
1FE00700
1FE00700
1FE00700
1FE00700
1FE00700
1FE00700
1FE00700
1FE00700
1FE00700
1FE00700
1FE00700
1FE00700
1FF00E00
0FF01E00
0FFC3C00
07FFFC00
03FFF800
01FFE000
003F0000
ENDCHAR
STARTCHAR V
ENCODING 86
SWIDTH 656 0
DWIDTH 26 0
BBX 26 26 0 0
BITMAP
FFFC3FC0
FFFC3FC0
3FE00F80
1FE00E00
1FE00E00
1FF00E00
0FF01C00
0FF01C00
0FF81800
07F83800
07F83800
07FC3000
03FC7000
03FC7000
03FE6000
01FEE000
01FEE000
00FFC000
00FFC000
00FFC000
007F8000
007F8000
007F8000
003F0000
003F0000
003E0000
ENDCHAR
STARTCHAR W
ENCODING 87
SWIDTH 989 0
DWIDTH 40 0
BBX 40 26 0 0
BITMAP
FFF8FFF9FF
FFF8FFF9FF
3FE03FE07C
1FE03FC030
1FE03FC070
1FE03FC070
0FF03FC060
0FF07FE0E0
0FF07FE0E0
0FF06FE0C0
07F8EFE0C0
07F8EFF1C0
07F8CFF1C0
03F8C7F180
03FDC7F380
03FD87FB80
01FD83FB00
01FF83FB00
01FF83FF00
01FF01FE00
00FF01FE00
00FF01FE00
00FE01FC00
007E00FC00
007E00FC00
007C00F800
ENDCHAR
STARTCHAR X
ENCODING 88
SWIDTH 657 0
DWIDTH 26 0
BBX 26 26 0 0
BITMAP
FFF8FF80
FFF8FF80
3FE03C00
1FF03800
0FF87000
0FF87000
07FCE000
03FDC000
03FFC000
01FF8000
01FF8000
00FF8000
00FF8000
007FC000
007FC000
00FFE000
00FFE000
01DFF000
038FF800
038FF800
0707FC00
0F03FC00
0E03FE00
3E07FF80
FF0FFFC0
FF0FFFC0
ENDCHAR
STARTCHAR Y
ENCODING 89
SWIDTH 621 0
DWIDTH 25 0
BBX 25 26 0 0
BITMAP
FFFC7F80
FFFC7F80
3FF03F00
1FE01C00
1FF01800
0FF03800
0FF83000
07F87000
07FC6000
03FCE000
03FEC000
03FFC000
01FF8000
01FF8000
00FF0000
00FF0000
007F0000
007F0000
007F0000
007F0000
007F0000
007F8000
007F8000
01FFE000
07FFF000
07FFF000
ENDCHAR
STARTCHAR Z
ENCODING 90
SWIDTH 568 0
DWIDTH 23 0
BBX 21 26 1 0
BITMAP
FFFFF8
FFFFF8
F80FF0
F01FF0
F01FE0
F03FE0
F07FC0
007FC0
00FF80
00FF80
01FF00
01FE00
03FE00
03FC00
07FC00
0FF800
0FF800
1FF000
1FF078
3FE078
3FC078
7FC078
7F8078
FF80F8
FFFFF8
FFFFF8
ENDCHAR
STARTCHAR bracketleft
ENCODING 91
SWIDTH 360 0
DWIDTH 14 0
BBX 10 35 4 -6
BITMAP
FFC0
FFC0
FFC0
FC00
FC00
FC00
FC00
FC00
FC00
FC00
FC00
FC00
FC00
FC00
FC00
FC00
FC00
FC00
FC00
FC00
FC00
FC00
FC00
FC00
FC00
FC00
FC00
FC00
FC00
FC00
FC00
FC00
FC00
FFC0
FFC0
ENDCHAR
STARTCHAR backslash
ENCODING 92
SWIDTH 410 0
DWIDTH 16 0
BBX 16 34 0 -6
BITMAP
FC00
7C00
7C00
3C00
3E00
3E00
1E00
1F00
1F00
1F00
0F80
0F80
0F80
07C0
07C0
07C0
03C0
03E0
03E0
01E0
01F0
01F0
01F0
00F8
00F8
00F8
007C
007C
007C
003C
003E
003E
001E
001F
ENDCHAR
STARTCHAR bracketright
ENCODING 93
SWIDTH 360 0
DWIDTH 14 0
BBX 10 35 0 -6
BITMAP
FFC0
FFC0
FFC0
07C0
07C0
07C0
07C0
07C0
07C0
07C0
07C0
07C0
07C0
07C0
07C0
07C0
07C0
07C0
07C0
07C0
07C0
07C0
07C0
07C0
07C0
07C0
07C0
07C0
07C0
07C0
07C0
07C0
07C0
FFC0
FFC0
ENDCHAR
STARTCHAR asciicircum
ENCODING 94
SWIDTH 550 0
DWIDTH 22 0
BBX 18 14 2 7
BITMAP
01E000
03F000
03F000
07F800
0FFC00
0FFC00
1F3E00
3E1F00
3E1F00
7C0F80
F80780
F807C0
F00380
200100
ENDCHAR
STARTCHAR underscore
ENCODING 95
SWIDTH 550 0
DWIDTH 22 0
BBX 18 4 2 -4
BITMAP
FFFFC0
FFFFC0
FFFFC0
FFFFC0
ENDCHAR
STARTCHAR grave
ENCODING 96
SWIDTH 400 0
DWIDTH 16 0
BBX 9 9 3 22
BITMAP
7800
F800
FC00
FE00
7E00
3F00
0F80
0780
0100
ENDCHAR
STARTCHAR a
ENCODING 97
SWIDTH 540 0
DWIDTH 22 0
BBX 21 21 1 -1
BITMAP
07FC00
1FFF00
3E3F80
7E3F80
7E1FC0
7E1FC0
7C1FC0
381FC0
007FC0
07FFC0
1F9FC0
3F1FC0
7E1FC0
FE1FC0
FE1FC0
FE1FC0
FF3FC0
FFFFF8
7FDFF0
3F8FE0
0E0380
ENDCHAR
STARTCHAR b
ENCODING 98
SWIDTH 623 0
DWIDTH 25 0
BBX 23 30 1 -1
BITMAP
018000
3FC000
FFC000
FFC000
3F8000
3F8000
3F8000
3F8000
3F8000
3F8FC0
3FBFF0
3FFFF8
3FFFF8
3FC7FC
3FC3FC
3FC1FE
3FC1FE
3FC1FE
3FC1FE
3FC1FE
3FC1FE
3FC1FE
3FC1FE
3FC3FC
3FC3FC
3FCFF8
3FFFF8
FFFFF0
FFBFC0
030600
ENDCHAR
STARTCHAR c
ENCODING 99
SWIDTH 523 0
DWIDTH 21 0
BBX 19 21 1 -1
BITMAP
01FE00
07FF80
1FEFC0
3FCFC0
7F87E0
7F07E0
FF07E0
FF03C0
FF0000
FF0000
FF0000
FF0000
FF0000
FF8000
7F8040
7FC0C0
3FFFE0
3FFFC0
1FFF80
07FE00
007000
ENDCHAR
STARTCHAR d
ENCODING 100
SWIDTH 605 0
DWIDTH 24 0
BBX 22 30 1 -1
BITMAP
000038
0007F8
001FF8
001FF8
0007F8
0007F8
0007F8
0007F8
0007F8
03F7F8
0FFFF8
1FFFF8
3FFFF8
7FC7F8
7F87F8
FF07F8
FF07F8
FF07F8
FF07F8
FF07F8
FF07F8
FF07F8
FF07F8
FF87F8
7F87F8
7FEFF8
3FFFF8
1FFFFC
0FF3FC
018000
ENDCHAR
STARTCHAR e
ENCODING 101
SWIDTH 526 0
DWIDTH 21 0
BBX 19 21 1 -1
BITMAP
01FC00
07FF00
1F9F80
3F8FC0
7F0FC0
7F0FE0
FF0FE0
FF0FE0
FFFFE0
FFFFE0
FFFFE0
FF0000
FF0000
FF8000
7F8040
7FC0E0
3FFFE0
3FFFC0
0FFF80
07FF00
007000
ENDCHAR
STARTCHAR f
ENCODING 102
SWIDTH 365 0
DWIDTH 15 0
BBX 18 29 1 0
BITMAP
007F00
01FF80
07FFC0
07CFC0
0FCF80
1FC700
1FC000
3F8000
3F8000
3F8000
FFF800
FFF800
FFF800
3FC000
3FC000
3FC000
3FC000
3FC000
3FC000
3FC000
3FC000
3FC000
3FC000
3FC000
3FC000
3FC000
3FE000
FFF000
FFF000
ENDCHAR
STARTCHAR g
ENCODING 103
SWIDTH 553 0
DWIDTH 22 0
BBX 22 29 0 -9
BITMAP
03FC0C
0FFF7C
3F9FFC
3F0FC0
7F0FE0
7F0FE0
7F0FE0
7F0FE0
3F0FC0
3F0FC0
1FBF80
0FFF00
1D7000
3C0000
3C0000
7FFF80
7FFFE0
7FFFF0
7FFFF8
3FFFF8
1FFFF8
3BFFF8
7001F8
F000F8
F801F0
FC03F0
7FFFE0
3FFF80
07F800
ENDCHAR
STARTCHAR h
ENCODING 104
SWIDTH 624 0
DWIDTH 25 0
BBX 23 29 1 0
BITMAP
018000
3FC000
FFC000
FFC000
3F8000
3F8000
3F8000
3F8000
3F8000
3F8FC0
3F9FF0
3FBFF8
3FFFF8
3FE7F8
3FC3FC
3FC3FC
3FC3FC
3FC3FC
3FC3FC
3FC3FC
3FC3FC
3FC3FC
3FC3FC
3FC3FC
3FC3FC
3FC3FC
3FC3FC
FFEFFE
FFEFFE
ENDCHAR
STARTCHAR i
ENCODING 105
SWIDTH 324 0
DWIDTH 13 0
BBX 11 29 1 0
BITMAP
1F00
3F80
3F80
3F80
3F80
1F00
0400
0000
0000
01C0
1FC0
FFC0
FFC0
7FC0
3FC0
3FC0
3FC0
3FC0
3FC0
3FC0
3FC0
3FC0
3FC0
3FC0
3FC0
3FC0
3FC0
FFE0
FFE0
ENDCHAR
STARTCHAR j
ENCODING 106
SWIDTH 320 0
DWIDTH 13 0
BBX 16 38 -5 -9
BITMAP
007C
00FE
00FE
00FE
00FE
007C
0010
0000
0000
0007
007F
03FE
03FE
01FE
00FE
00FE
00FE
00FE
00FE
00FE
00FE
00FE
00FE
00FE
00FE
00FE
00FE
00FE
00FE
00FE
00FE
00FE
7CFE
FEFC
FEFC
FFF8
7FE0
3FC0
ENDCHAR
STARTCHAR k
ENCODING 107
SWIDTH 619 0
DWIDTH 25 0
BBX 24 29 1 0
BITMAP
01C000
3FC000
FFC000
FFC000
3FC000
3FC000
3FC000
3FC000
3FC000
3FC000
3FC7FE
3FC7FC
3FC1C0
3FC380
3FC700
3FCF00
3FDF80
3FFF80
3FFFC0
3FFFC0
3FDFE0
3FDFE0
3FCFE0
3FCFF0
3FC7F0
3FC7F8
3FC7FC
FFE3FF
FFE3FF
ENDCHAR
STARTCHAR l
ENCODING 108
SWIDTH 334 0
DWIDTH 13 0
BBX 11 29 1 0
BITMAP
01C0
3FC0
FFC0
FFC0
3FC0
3FC0
3FC0
3FC0
3FC0
3FC0
3FC0
3FC0
3FC0
3FC0
3FC0
3FC0
3FC0
3FC0
3FC0
3FC0
3FC0
3FC0
3FC0
3FC0
3FC0
3FC0
3FC0
FFE0
FFE0
ENDCHAR
STARTCHAR m
ENCODING 109
SWIDTH 910 0
DWIDTH 36 0
BBX 35 20 1 0
BITMAP
038FC0FC00
1F9FF3FE00
FFBFF7FF00
FFFFFFFF80
7FE7FC7F80
3F83F87F80
3F83F83F80
3F83F83F80
3F83F83F80
3F83F83F80
3F83F83F80
3F83F83F80
3F83F83F80
3F83F83F80
3F83F83F80
3F83F83F80
3F83F83F80
3F83F83F80
FFEFFEFFE0
FFEFFEFFE0
ENDCHAR
STARTCHAR n
ENCODING 110
SWIDTH 620 0
DWIDTH 25 0
BBX 23 20 1 0
BITMAP
038FC0
1F9FF0
FFBFF0
FFFFF8
7FE7F8
3F87F8
3F83F8
3F83F8
3F83F8
3F83F8
3F83F8
3F83F8
3F83F8
3F83F8
3F83F8
3F83F8
3F83F8
3F83F8
FFEFFE
FFEFFE
ENDCHAR
STARTCHAR o
ENCODING 111
SWIDTH 572 0
DWIDTH 23 0
BBX 21 21 1 -1
BITMAP
01FC00
0FFF00
1F9FC0
3F8FE0
7F07E0
7F07F0
FF07F0
FF07F8
FF07F8
FF07F8
FF07F8
FF07F8
FF07F8
FF07F8
7F07F0
7F07F0
3F0FE0
3F8FC0
1FFF80
07FF00
007000
ENDCHAR
STARTCHAR p
ENCODING 112
SWIDTH 623 0
DWIDTH 25 0
BBX 23 29 1 -9
BITMAP
038FC0
1FBFF0
FFFFF8
FFFFF8
7FC7FC
3FC3FC
3FC1FE
3FC1FE
3FC1FE
3FC1FE
3FC1FE
3FC1FE
3FC1FE
3FC1FE
3FC3FC
3FC3FC
3FC7F8
3FFFF8
3FFFF0
3FBFC0
3F8600
3F8000
3F8000
3F8000
3F8000
3FC000
7FE000
FFF000
FFF000
ENDCHAR
STARTCHAR q
ENCODING 113
SWIDTH 594 0
DWIDTH 24 0
BBX 22 29 1 -9
BITMAP
03F038
0FF8F8
1FFFF8
3FFFF8
7FC7F8
7F87F8
FF07F8
FF07F8
FF07F8
FF07F8
FF07F8
FF07F8
FF07F8
FF07F8
FF87F8
7F87F8
7FEFF8
3FFFF8
1FFFF8
0FF7F8
0187F8
0007F8
0007F8
0007F8
0007F8
0007F8
000FF8
001FFC
001FFC
ENDCHAR
STARTCHAR r
ENCODING 114
SWIDTH 483 0
DWIDTH 19 0
BBX 18 20 1 0
BITMAP
038780
1F9FC0
FFBFC0
FFBFC0
7FBFC0
3FE7C0
3FC380
3FC000
3FC000
3F8000
3F8000
3F8000
3F8000
3F8000
3F8000
3F8000
3F8000
3FE000
FFF800
FFF800
ENDCHAR
STARTCHAR s
ENCODING 115
SWIDTH 463 0
DWIDTH 19 0
BBX 17 21 1 -1
BITMAP
07F800
1FFF00
3E1F00
7C1F00
FC1E00
FE0E00
FF8000
FFF000
FFFC00
7FFE00
7FFF00
3FFF80
0FFF80
01FF80
F07F80
F03F80
F03F00
F03F00
FFFE00
7FF800
038000
ENDCHAR
STARTCHAR t
ENCODING 116
SWIDTH 372 0
DWIDTH 15 0
BBX 15 26 0 -1
BITMAP
07C0
07C0
0FC0
0FC0
0FC0
1FC0
FFFC
FFFC
FFFC
1FC0
1FC0
1FC0
1FC0
1FC0
1FC0
1FC0
1FC0
1FC0
1FC0
1FC0
1FE0
1FE2
1FFE
0FFC
07F8
00C0
ENDCHAR
STARTCHAR u
ENCODING 117
SWIDTH 617 0
DWIDTH 25 0
BBX 23 21 1 -1
BITMAP
038038
FF87F8
FF8FF8
7F87F8
3F83F8
3F83F8
3F83F8
3F83F8
3F83F8
3F83F8
3F83F8
3F83F8
3F83F8
3F83F8
3F83F8
3FC7F8
3FFFF8
3FFFF8
1FFBFE
0FE3FE
018000
ENDCHAR
STARTCHAR v
ENCODING 118
SWIDTH 536 0
DWIDTH 21 0
BBX 21 19 0 0
BITMAP
FFF3F8
FFE3F8
3FC0E0
3FC1C0
1FC1C0
1FE180
1FE380
0FF380
0FF300
07F700
07FF00
03FE00
03FE00
03FC00
01FC00
01FC00
00F800
00F800
00F000
ENDCHAR
STARTCHAR w
ENCODING 119
SWIDTH 800 0
DWIDTH 32 0
BBX 32 19 0 0
BITMAP
FFEFFE7F
FFC7FC7E
7F83F838
3F83F838
3FC3FC30
1FC7FC70
1FC7FC70
1FC6FE60
0FEEFEE0
0FECFEE0
0FEC7EC0
07FC7FC0
07F87FC0
07F83F80
03F83F80
03F03F80
01F01F00
01F01F00
01E00E00
ENDCHAR
STARTCHAR x
ENCODING 120
SWIDTH 563 0
DWIDTH 23 0
BBX 22 19 0 0
BITMAP
FFF9F8
7FF1F8
1FF0E0
0FF1C0
0FFB80
07FB00
07FF00
03FE00
01FE00
01FF00
01FF00
01FF80
03FFC0
077FC0
073FE0
0E1FF0
1C1FF0
FF3FFC
FF3FFC
ENDCHAR
STARTCHAR y
ENCODING 121
SWIDTH 543 0
DWIDTH 22 0
BBX 22 28 0 -9
BITMAP
FFF3FC
FFE3F8
3FC0E0
3FC0C0
1FE1C0
1FE1C0
0FE180
0FF380
07F380
07F300
07FF00
03FE00
03FE00
01FE00
01FC00
00FC00
00F800
00F800
007800
007000
003000
003000
386000
7EE000
FEC000
FFC000
7F8000
3E0000
ENDCHAR
STARTCHAR z
ENCODING 122
SWIDTH 468 0
DWIDTH 19 0
BBX 17 19 1 0
BITMAP
FFFF80
F87F80
F0FF00
F0FF00
F1FE00
F1FE00
03FC00
07F800
07F800
0FF000
0FF000
1FE000
3FE380
3FC780
7FC780
7F8780
FF0780
FFFF80
FFFF80
ENDCHAR
STARTCHAR braceleft
ENCODING 123
SWIDTH 334 0
DWIDTH 13 0
BBX 10 35 2 -6
BITMAP
01C0
0FC0
3FC0
3F00
7E00
7E00
7E00
7E00
3E00
3F00
1F00
1F00
1F00
0F00
1F00
1E00
FC00
F800
F800
7E00
1E00
1F00
0F00
1F00
1F00
1F00
3E00
3E00
7E00
7E00
7E00
7E00
3F00
1FC0
0FC0
ENDCHAR
STARTCHAR bar
ENCODING 124
SWIDTH 280 0
DWIDTH 11 0
BBX 5 40 3 -10
BITMAP
F8
F8
F8
F8
F8
F8
F8
F8
F8
F8
F8
F8
F8
F8
F8
F8
F8
F8
F8
F8
F8
F8
F8
F8
F8
F8
F8
F8
F8
F8
F8
F8
F8
F8
F8
F8
F8
F8
F8
F8
ENDCHAR
STARTCHAR braceright
ENCODING 125
SWIDTH 334 0
DWIDTH 13 0
BBX 11 35 1 -6
BITMAP
E000
FE00
FF00
1F80
1F80
0F80
0F80
1F80
1F80
1F00
1F00
3E00
3E00
3E00
1E00
1F00
0FC0
07E0
07E0
0F80
1E00
1E00
3E00
3E00
3E00
1F00
1F00
1F80
1F80
0F80
0F80
1F80
3F80
FF00
FC00
ENDCHAR
STARTCHAR asciitilde
ENCODING 126
SWIDTH 550 0
DWIDTH 22 0
BBX 20 8 1 10
BITMAP
0F00C0
3FC0F0
7FE0E0
7FF1E0
79FFE0
70FFE0
F07FC0
F01F80
ENDCHAR
STARTCHAR space
ENCODING 160
SWIDTH 206 0
DWIDTH 8 0
BBX 1 1 0 0
BITMAP
00
ENDCHAR
STARTCHAR exclamdown
ENCODING 161
SWIDTH 370 0
DWIDTH 15 0
BBX 9 27 3 -8
BITMAP
3E00
7F00
FF00
FF80
FF80
7F00
7E00
1C00
0000
0000
0000
1C00
1C00
3E00
3E00
7E00
7F00
7F00
7F00
FF00
FF80
FF80
FF80
FF80
FF00
7F00
0C00
ENDCHAR
STARTCHAR cent
ENCODING 162
SWIDTH 560 0
DWIDTH 22 0
BBX 21 28 1 -2
BITMAP
001C00
001C00
001C00
003C00
03FF80
0FFFE0
1FDDF0
3F9DF0
7F1DF0
7F1DF8
7F1CF0
FE1C20
FE1C00
FE1C00
FE1C00
FF1C00
FF1C00
7F1C00
7F9C20
3FDC70
1FFFF0
0FFFE0
07FFC0
01FF00
001C00
001C00
001C00
001C00
ENDCHAR
STARTCHAR sterling
ENCODING 163
SWIDTH 560 0
DWIDTH 22 0
BBX 19 26 2 0
BITMAP
006000
07FE00
1FFF80
3F8FC0
3F0FC0
7F07C0
7F07E0
7F07C0
7F0180
7F0000
3F0000
3F0000
1F0000
7FFE00
7FFE00
0F8000
0F8000
0F0000
1F0000
3E0000
3FFFC0
FFFFC0
FFFFC0
FFFFC0
FFFFC0
FFFFC0
ENDCHAR
STARTCHAR currency
ENCODING 164
SWIDTH 560 0
DWIDTH 22 0
BBX 20 20 1 3
BITMAP
E00070
F000F0
F800F0
79F9F0
3FFFC0
0FFF00
0F0F80
1E0780
1E0380
1C0380
1C0380
1E0380
1E0780
0F0F80
0FFF00
1FFFC0
7DFDE0
F801F0
F000F0
F00070
ENDCHAR
STARTCHAR yen
ENCODING 165
SWIDTH 560 0
DWIDTH 22 0
BBX 23 25 0 0
BITMAP
FFF1FE
FFF1FE
3FC0FC
3FC070
1FC0E0
1FE0E0
0FE1C0
0FF1C0
07F380
07F380
03FB00
03FF00
3FFFF0
3FFFF0
00FE00
00FE00
00FE00
3FFFF0
3FFFF0
3FFFF0
01FE00
01FE00
03FF00
0FFFC0
0FFFC0
ENDCHAR
STARTCHAR brokenbar
ENCODING 166
SWIDTH 280 0
DWIDTH 11 0
BBX 5 40 3 -10
BITMAP
F8
F8
F8
F8
F8
F8
F8
F8
F8
F8
F8
F8
F8
F8
F8
F8
F8
00
00
00
00
00
F8
F8
F8
F8
F8
F8
F8
F8
F8
F8
F8
F8
F8
F8
F8
F8
F8
F8
ENDCHAR
STARTCHAR section
ENCODING 167
SWIDTH 549 0
DWIDTH 22 0
BBX 18 32 2 -5
BITMAP
03F800
0FFE00
1F9F80
3E0F80
7C0FC0
7C0FC0
7E07C0
7F0380
7FC000
3FF800
3FFE00
7FFF00
77FF80
F1FFC0
F03FC0
F80FC0
FC03C0
FF83C0
FFF3C0
7FFF80
3FFF00
1FFF00
03FF80
00FF80
781F80
F80F80
FC0F80
FC0F00
7E1F00
3FFE00
1FF800
008000
ENDCHAR
STARTCHAR dieresis
ENCODING 168
SWIDTH 400 0
DWIDTH 16 0
BBX 16 6 0 23
BITMAP
781E
FC3F
FC3F
FC3F
FC3F
781E
ENDCHAR
STARTCHAR copyright
ENCODING 169
SWIDTH 740 0
DWIDTH 30 0
BBX 27 28 1 -1
BITMAP
001F8000
00FFF000
03F9FC00
07801E00
0E000F00
1C000780
381FE380
387EF1C0
70F870C0
71F070E0
61F030E0
E3F00060
E3E00060
E3E00060
E3E00060
E3E00060
E1F00060
61F030E0
71F870E0
70F870C0
387FF1C0
381FC380
1C000780
0E000F00
07803E00
03FFF800
00FFF000
001F8000
ENDCHAR
STARTCHAR ordfeminine
ENCODING 170
SWIDTH 357 0
DWIDTH 14 0
BBX 13 13 1 16
BITMAP
3FC0
73E0
F1E0
F1E0
61E0
07E0
3DE0
79E0
F1E0
F1E0
F1E0
FFF8
7CF0
ENDCHAR
STARTCHAR guillemotleft
ENCODING 171
SWIDTH 578 0
DWIDTH 23 0
BBX 20 18 1 1
BITMAP
006030
00E0F0
03C1E0
07C3C0
0F87C0
3F1F80
7E3F00
FC7E00
F87C00
FC7E00
FC7E00
7E3F00
1F0F80
0F87C0
07C3E0
03E1E0
00E070
004020
ENDCHAR
STARTCHAR logicalnot
ENCODING 172
SWIDTH 550 0
DWIDTH 22 0
BBX 20 10 1 6
BITMAP
FFFFF0
FFFFF0
FFFFF0
FFFFF0
0000F0
0000F0
0000F0
0000F0
0000F0
0000F0
ENDCHAR
STARTCHAR hyphen.dup3
ENCODING 173
SWIDTH 350 0
DWIDTH 14 0
BBX 10 4 2 8
BITMAP
FFC0
FFC0
FFC0
FFC0
ENDCHAR
STARTCHAR registered
ENCODING 174
SWIDTH 474 0
DWIDTH 19 0
BBX 17 17 1 12
BITMAP
008000
0FF800
1E3C00
380E00
77C700
677300
E73380
C76180
C7E180
C77180
E77380
67FB00
600700
300E00
1C1C00
0FF800
03E000
ENDCHAR
STARTCHAR macron
ENCODING 175
SWIDTH 400 0
DWIDTH 16 0
BBX 14 4 1 23
BITMAP
FFFC
FFFC
FFFC
FFFC
ENDCHAR
STARTCHAR degree
ENCODING 176
SWIDTH 328 0
DWIDTH 13 0
BBX 11 11 1 16
BITMAP
0F00
3F80
71C0
E0E0
E0E0
C060
E060
E0E0
71C0
3F80
1F00
ENDCHAR
STARTCHAR plusminus
ENCODING 177
SWIDTH 550 0
DWIDTH 22 0
BBX 20 23 1 0
BITMAP
00F000
00F000
00F000
00F000
00F000
00F000
00F000
FFFFF0
FFFFF0
FFFFF0
FFFFF0
00F000
00F000
00F000
00F000
00F000
00F000
00F000
000000
FFFFF0
FFFFF0
FFFFF0
FFFFF0
ENDCHAR
STARTCHAR two.sups
ENCODING 178
SWIDTH 374 0
DWIDTH 15 0
BBX 12 16 1 16
BITMAP
1FC0
7BE0
71F0
F1F0
71F0
01F0
01F0
03E0
07C0
0F00
1E00
3800
7FF0
7FF0
7FF0
7FF0
ENDCHAR
STARTCHAR three.sups
ENCODING 179
SWIDTH 374 0
DWIDTH 15 0
BBX 13 16 1 16
BITMAP
1FC0
3BE0
79F0
79F0
21F0
01F0
01E0
0F80
07E0
01F0
00F8
F0F8
F0F8
F1F0
73E0
3FC0
ENDCHAR
STARTCHAR acute
ENCODING 180
SWIDTH 400 0
DWIDTH 16 0
BBX 9 9 4 22
BITMAP
0F00
0F80
1F80
3F80
3F00
7E00
F800
F000
4000
ENDCHAR
STARTCHAR mu.dup4
ENCODING 181
SWIDTH 596 0
DWIDTH 24 0
BBX 22 28 2 -8
BITMAP
0F01E0
FF0FE0
FE0FE0
FE0FE0
FE0FE0
FE0FE0
7E0FE0
7E0FE0
7E0FE0
7E0FE0
7E0FE0
7E0FC0
7E0FC0
7E0FC0
7E0FC0
7FBFE0
7FFFF8
7FFFFC
7FF7F8
7DE3F0
7C80C0
7E0000
FE0000
FE0000
FE0000
FE0000
FE0000
C00000
ENDCHAR
STARTCHAR paragraph
ENCODING 182
SWIDTH 651 0
DWIDTH 26 0
BBX 24 30 1 -4
BITMAP
007FFF
03FFFF
0FF1FC
1FF1F8
3FF1F8
7FF1F8
7FF1F8
FFF1F8
FFF1F8
FFF1F8
FFF1F8
FFF1F8
FFF1F8
FFF1F8
FFF1F8
7FF1F8
7FF1F8
3FF1F8
1FF1F8
0FF1F8
07F1F8
00F1F8
0001F8
0001F8
0001F8
0001F8
0001F8
0001F8
0001F8
0001F8
ENDCHAR
STARTCHAR periodcentered
ENCODING 183
SWIDTH 300 0
DWIDTH 12 0
BBX 8 8 2 9
BITMAP
3C
7E
FF
FF
FF
FF
7E
18
ENDCHAR
STARTCHAR cedilla
ENCODING 184
SWIDTH 400 0
DWIDTH 16 0
BBX 9 9 3 -9
BITMAP
1800
1800
3E00
3F00
0F80
0780
8F80
FF00
FE00
ENDCHAR
STARTCHAR one.sups
ENCODING 185
SWIDTH 374 0
DWIDTH 15 0
BBX 10 16 3 16
BITMAP
0E00
FE00
FE00
3E00
3E00
3E00
3E00
3E00
3E00
3E00
3E00
3E00
3E00
3E00
FFC0
FFC0
ENDCHAR
STARTCHAR ordmasculine
ENCODING 186
SWIDTH 381 0
DWIDTH 15 0
BBX 14 13 1 16
BITMAP
1FC0
3CF0
78F0
F878
F078
F07C
F07C
F078
F078
F878
78F0
3CE0
1FC0
ENDCHAR
STARTCHAR guillemotright
ENCODING 187
SWIDTH 578 0
DWIDTH 23 0
BBX 20 18 2 1
BITMAP
406000
F07800
783C00
3C1E00
3E1F00
1F8FC0
0FC7E0
07E3F0
03E1F0
03E1F0
07E3F0
0FC7E0
1F0F80
3E1F00
7C3E00
783C00
E07000
402000
ENDCHAR
STARTCHAR onequarter
ENCODING 188
SWIDTH 880 0
DWIDTH 35 0
BBX 30 27 2 -1
BITMAP
00000080
070001C0
7F0003C0
7F000380
1F000700
1F000F00
1F000E00
1F001C00
1F003C00
1F003800
1F0070F0
1F00F1F0
1F00E1F0
1F01C3F0
1F03C7F0
FFE38DF0
FFE719F0
000F19F0
000E31F0
001C7FFC
003C7FFC
00387FFC
007001F0
00F001F0
00E001F0
01C001F0
01800000
ENDCHAR
STARTCHAR onehalf
ENCODING 189
SWIDTH 880 0
DWIDTH 35 0
BBX 31 27 2 -1
BITMAP
00000180
0F0003C0
FF000380
FF000700
1F000E00
1F000E00
1F001C00
1F003800
1F003800
1F007000
1F00E3F8
1F00EE7C
1F01CE3E
1F039E3E
1F039E3E
FFC7003E
FFCE003C
000E007C
001C00F8
003801E0
003803C0
00700700
00E00FFE
01E01FFE
01C01FFE
03801FFE
01800000
ENDCHAR
STARTCHAR threequarters
ENCODING 190
SWIDTH 880 0
DWIDTH 35 0
BBX 29 27 3 -1
BITMAP
00000100
1F8003C0
73E00380
71E00700
F1F00E00
61E00E00
01E01C00
03C03800
1F007800
0FC07000
03E0E0E0
01F1E1E0
E1F1C3E0
E1F387E0
E1F78DE0
E3E70DE0
3F8E19E0
001E31E0
001C61E0
00387FF8
0078FFF8
0070FFF8
00E001E0
01E001E0
01C001E0
038001E0
01800000
ENDCHAR
STARTCHAR questiondown
ENCODING 191
SWIDTH 462 0
DWIDTH 18 0
BBX 14 28 2 -7
BITMAP
01E0
03F0
07F8
07F8
07F8
07F8
03F8
01F0
0000
0000
00E0
00E0
03F0
1FF0
7FF0
7FF0
FFF0
FFC0
F800
F000
7C00
7FF0
3FF8
1FF8
0FFC
07F8
01F0
0020
ENDCHAR
STARTCHAR Agrave
ENCODING 192
SWIDTH 680 0
DWIDTH 27 0
BBX 27 35 0 0
BITMAP
01E00000
03F00000
03F80000
03FC0000
00FE0000
003F0000
000F0000
00020000
00000000
001F8000
001F8000
001F8000
003FC000
003FC000
003FC000
007FE000
007FE000
006FE000
00CFF000
00CFF000
00C7F000
0187F800
0187F800
0183F800
0383FC00
03FFFC00
07FFFC00
07FFFE00
0601FE00
0E00FE00
0E00FF00
0C00FF00
7F01FF00
FF83FFE0
FF83FFE0
ENDCHAR
STARTCHAR Aacute
ENCODING 193
SWIDTH 680 0
DWIDTH 27 0
BBX 27 35 0 0
BITMAP
00007000
0001F800
0003F800
0007F800
000FE000
001F8000
001E0000
00080000
00000000
001F8000
001F8000
001F8000
003FC000
003FC000
003FC000
007FE000
007FE000
006FE000
00CFF000
00CFF000
00C7F000
0187F800
0187F800
0183F800
0383FC00
03FFFC00
07FFFC00
07FFFE00
0601FE00
0E00FE00
0E00FF00
0C00FF00
7F01FF00
FF83FFE0
FF83FFE0
ENDCHAR
STARTCHAR Acircumflex
ENCODING 194
SWIDTH 680 0
DWIDTH 27 0
BBX 27 35 0 0
BITMAP
001F0000
003F8000
007FC000
007FE000
00FFF000
01F0F800
03C03C00
01001800
00000000
001F8000
001F8000
001F8000
003FC000
003FC000
003FC000
007FE000
007FE000
006FE000
00CFF000
00CFF000
00C7F000
0187F800
0187F800
0183F800
0383FC00
03FFFC00
07FFFC00
07FFFE00
0601FE00
0E00FE00
0E00FF00
0C00FF00
7F01FF00
FF83FFE0
FF83FFE0
ENDCHAR
STARTCHAR Atilde
ENCODING 195
SWIDTH 680 0
DWIDTH 27 0
BBX 27 34 0 0
BITMAP
007C1800
00FF7800
01FFF800
01FFF000
03CFE000
0383C000
00000000
00000000
001F8000
001F8000
001F8000
003FC000
003FC000
003FC000
007FE000
007FE000
006FE000
00CFF000
00CFF000
00C7F000
0187F800
0187F800
0183F800
0383FC00
03FFFC00
07FFFC00
07FFFE00
0601FE00
0E00FE00
0E00FF00
0C00FF00
7F01FF00
FF83FFE0
FF83FFE0
ENDCHAR
STARTCHAR Adieresis
ENCODING 196
SWIDTH 680 0
DWIDTH 27 0
BBX 27 34 0 0
BITMAP
01E07800
03F0FC00
03F0FC00
03F0FC00
03F0FC00
01E07800
00000000
00000000
001F8000
001F8000
001F8000
003FC000
003FC000
003FC000
007FE000
007FE000
006FE000
00CFF000
00CFF000
00C7F000
0187F800
0187F800
0183F800
0383FC00
03FFFC00
07FFFC00
07FFFE00
0601FE00
0E00FE00
0E00FF00
0C00FF00
7F01FF00
FF83FFE0
FF83FFE0
ENDCHAR
STARTCHAR Aring
ENCODING 197
SWIDTH 680 0
DWIDTH 27 0
BBX 27 36 0 0
BITMAP
000F0000
001F8000
0039C000
0030C000
0030C000
0030C000
003FC000
001F8000
00000000
00000000
001F8000
001F8000
001F8000
003FC000
003FC000
003FC000
007FE000
007FE000
006FE000
00CFF000
00CFF000
00C7F000
0187F800
0187F800
0183F800
0383FC00
03FFFC00
07FFFC00
07FFFE00
0601FE00
0E00FE00
0E00FF00
0C00FF00
7F01FF00
FF83FFE0
FF83FFE0
ENDCHAR
STARTCHAR AE
ENCODING 198
SWIDTH 880 0
DWIDTH 35 0
BBX 34 26 0 0
BITMAP
00FFFFFF80
00FFFFFF80
003FFE0780
000FFE0780
001DFE07C0
001DFE03C0
0019FE03C0
0039FE0000
0031FE0C00
0071FE1C00
0071FE1C00
00E1FFFC00
00E1FFFC00
01C1FFFC00
01FFFE1C00
03FFFE1C00
0381FE0C00
0701FE0000
0701FE0000
0E01FE01C0
0E01FE03C0
0E01FE03C0
1C01FE03C0
7F03FE03C0
FF87FFFFC0
FF87FFFFC0
ENDCHAR
STARTCHAR Ccedilla
ENCODING 199
SWIDTH 618 0
DWIDTH 25 0
BBX 23 36 1 -9
BITMAP
001FC0
00FFF8
03FFFC
0FF03C
1FE03E
3FC01E
3FC01E
7F801E
7F8000
7F8000
FF8000
FF0000
FF0000
FF0000
FF0000
FF0000
FF0000
FF8000
7F8000
7F800E
7F801E
3FC01E
3FC01E
1FE01E
0FF03E
07FFFE
01FFF8
001F80
000E00
000F80
000FC0
0003E0
0003E0
0027E0
003FC0
003F00
ENDCHAR
STARTCHAR Egrave
ENCODING 200
SWIDTH 591 0
DWIDTH 24 0
BBX 22 35 1 0
BITMAP
0F0000
0F8000
0FC000
0FF000
07F800
01FC00
003C00
000800
000000
FFFFF8
FFFFF8
3FE078
1FE078
1FE078
1FE078
1FE078
1FE000
1FE1C0
1FE1C0
1FE1C0
1FFFC0
1FFFC0
1FFFC0
1FE1C0
1FE1C0
1FE1C0
1FE000
1FE000
1FE03C
1FE03C
1FE03C
1FE07C
7FE07C
FFFFFC
FFFFFC
ENDCHAR
STARTCHAR Eacute
ENCODING 201
SWIDTH 591 0
DWIDTH 24 0
BBX 22 35 1 0
BITMAP
0003C0
0007C0
000FC0
003FC0
007F80
00FC00
00F000
004000
000000
FFFFF8
FFFFF8
3FE078
1FE078
1FE078
1FE078
1FE078
1FE000
1FE1C0
1FE1C0
1FE1C0
1FFFC0
1FFFC0
1FFFC0
1FE1C0
1FE1C0
1FE1C0
1FE000
1FE000
1FE03C
1FE03C
1FE03C
1FE07C
7FE07C
FFFFFC
FFFFFC
ENDCHAR
STARTCHAR Ecircumflex
ENCODING 202
SWIDTH 591 0
DWIDTH 24 0
BBX 22 35 1 0
BITMAP
007C00
00FE00
01FF00
03FF80
07EFC0
07C3E0
0F01F0
040060
000000
FFFFF8
FFFFF8
3FE078
1FE078
1FE078
1FE078
1FE078
1FE000
1FE1C0
1FE1C0
1FE1C0
1FFFC0
1FFFC0
1FFFC0
1FE1C0
1FE1C0
1FE1C0
1FE000
1FE000
1FE03C
1FE03C
1FE03C
1FE07C
7FE07C
FFFFFC
FFFFFC
ENDCHAR
STARTCHAR Edieresis
ENCODING 203
SWIDTH 591 0
DWIDTH 24 0
BBX 22 34 1 0
BITMAP
0F01C0
1F83E0
1F87F0
1F87F0
1F83E0
0F01C0
000000
000000
FFFFF8
FFFFF8
3FE078
1FE078
1FE078
1FE078
1FE078
1FE000
1FE1C0
1FE1C0
1FE1C0
1FFFC0
1FFFC0
1FFFC0
1FE1C0
1FE1C0
1FE1C0
1FE000
1FE000
1FE03C
1FE03C
1FE03C
1FE07C
7FE07C
FFFFFC
FFFFFC
ENDCHAR
STARTCHAR Igrave
ENCODING 204
SWIDTH 395 0
DWIDTH 16 0
BBX 14 35 1 0
BITMAP
F000
F800
FE00
FF00
7F80
0FC0
03C0
0080
0000
FFFC
FFFC
3FF0
1FE0
1FE0
1FE0
1FE0
1FE0
1FE0
1FE0
1FE0
1FE0
1FE0
1FE0
1FE0
1FE0
1FE0
1FE0
1FE0
1FE0
1FE0
1FE0
1FE0
7FF0
FFFC
FFFC
ENDCHAR
STARTCHAR Iacute
ENCODING 205
SWIDTH 395 0
DWIDTH 16 0
BBX 14 35 1 0
BITMAP
0038
00FC
01FC
03FC
07F0
0FC0
0F00
0400
0000
FFFC
FFFC
3FF0
1FE0
1FE0
1FE0
1FE0
1FE0
1FE0
1FE0
1FE0
1FE0
1FE0
1FE0
1FE0
1FE0
1FE0
1FE0
1FE0
1FE0
1FE0
1FE0
1FE0
7FF0
FFFC
FFFC
ENDCHAR
STARTCHAR Icircumflex
ENCODING 206
SWIDTH 395 0
DWIDTH 16 0
BBX 16 35 0 0
BITMAP
07C0
07E0
0FF0
1FF8
3FFC
7C3E
F00F
4002
0000
7FFE
7FFE
1FF8
0FF0
0FF0
0FF0
0FF0
0FF0
0FF0
0FF0
0FF0
0FF0
0FF0
0FF0
0FF0
0FF0
0FF0
0FF0
0FF0
0FF0
0FF0
0FF0
0FF0
3FF8
7FFE
7FFE
ENDCHAR
STARTCHAR Idieresis
ENCODING 207
SWIDTH 395 0
DWIDTH 16 0
BBX 14 34 1 0
BITMAP
7878
FCFC
FCFC
FCFC
FCFC
7878
0000
0000
FFFC
FFFC
3FF0
1FE0
1FE0
1FE0
1FE0
1FE0
1FE0
1FE0
1FE0
1FE0
1FE0
1FE0
1FE0
1FE0
1FE0
1FE0
1FE0
1FE0
1FE0
1FE0
1FE0
7FF0
FFFC
FFFC
ENDCHAR
STARTCHAR Eth
ENCODING 208
SWIDTH 703 0
DWIDTH 28 0
BBX 26 26 1 0
BITMAP
FFFF8000
FFFFF000
3FEFF800
1FE1FC00
1FE0FE00
1FE0FF00
1FE07F80
1FE07F80
1FE03F80
1FE03FC0
1FE03FC0
FFFE3FC0
FFFE3FC0
FFFE3FC0
1FE03FC0
1FE03FC0
1FE03FC0
1FE03F80
1FE07F80
1FE07F00
1FE0FF00
1FE0FE00
1FE1FC00
7FEFF800
FFFFE000
FFFF0000
ENDCHAR
STARTCHAR Ntilde
ENCODING 209
SWIDTH 725 0
DWIDTH 29 0
BBX 27 34 1 0
BITMAP
007C3800
00FF7800
01FFF000
01FFF000
03CFE000
0303C000
00000000
00000000
FFE0FFE0
FFE0FFE0
3FF03FC0
1FF80700
1FFC0700
1FFC0700
1FFE0700
1FFF0700
1DFF0700
1CFF8700
1CFFC700
1C7FE700
1C3FE700
1C3FF700
1C1FFF00
1C0FFF00
1C07FF00
1C07FF00
1C03FF00
1C01FF00
1C01FF00
1C00FF00
1C007F00
7FC03F00
FFE03F00
FFE01F00
ENDCHAR
STARTCHAR Ograve
ENCODING 210
SWIDTH 700 0
DWIDTH 28 0
BBX 26 36 1 -1
BITMAP
01C00000
03F00000
03F80000
03FC0000
01FE0000
003F0000
000F0000
00020000
003F0000
01FFE000
07FFF800
0FE1FC00
1FC0FE00
3F807F00
3F807F00
7F807F80
7F807F80
7F807F80
FF003FC0
FF003FC0
FF003FC0
FF003FC0
FF003FC0
FF003FC0
FF003FC0
FF003FC0
7F807F80
7F807F80
7F807F80
3F807F00
3F80FF00
1FC0FE00
0FE1FC00
07FFF800
01FFE000
003F0000
ENDCHAR
STARTCHAR Oacute
ENCODING 211
SWIDTH 700 0
DWIDTH 28 0
BBX 26 36 1 -1
BITMAP
0000E000
0003F000
0007F000
000FF000
001FC000
003F0000
003C0000
00100000
003F0000
01FFE000
07FFF800
0FE1FC00
1FC0FE00
3F807F00
3F807F00
7F807F80
7F807F80
7F807F80
FF003FC0
FF003FC0
FF003FC0
FF003FC0
FF003FC0
FF003FC0
FF003FC0
FF003FC0
7F807F80
7F807F80
7F807F80
3F807F00
3F80FF00
1FC0FE00
0FE1FC00
07FFF800
01FFE000
003F0000
ENDCHAR
STARTCHAR Ocircumflex
ENCODING 212
SWIDTH 700 0
DWIDTH 28 0
BBX 26 36 1 -1
BITMAP
001E0000
003F0000
007F8000
00FFC000
01FFE000
03E1F000
07807800
02001000
003F0000
01FFE000
07FFF800
0FE1FC00
1FC0FE00
3F807F00
3F807F00
7F807F80
7F807F80
7F807F80
FF003FC0
FF003FC0
FF003FC0
FF003FC0
FF003FC0
FF003FC0
FF003FC0
FF003FC0
7F807F80
7F807F80
7F807F80
3F807F00
3F80FF00
1FC0FE00
0FE1FC00
07FFF800
01FFE000
003F0000
ENDCHAR
STARTCHAR Otilde
ENCODING 213
SWIDTH 700 0
DWIDTH 28 0
BBX 26 35 1 -1
BITMAP
00F83000
01FE7000
03FFF000
03FFE000
039FE000
0307C000
00000000
003F0000
01FFE000
07FFF800
0FE1FC00
1FC0FE00
3F807F00
3F807F00
7F807F80
7F807F80
7F807F80
FF003FC0
FF003FC0
FF003FC0
FF003FC0
FF003FC0
FF003FC0
FF003FC0
FF003FC0
7F807F80
7F807F80
7F807F80
3F807F00
3F80FF00
1FC0FE00
0FE1FC00
07FFF800
01FFE000
003F0000
ENDCHAR
STARTCHAR Odieresis
ENCODING 214
SWIDTH 700 0
DWIDTH 28 0
BBX 26 35 1 -1
BITMAP
03C0F000
07E1F800
07E1F800
07E1F800
07E1F800
03C0F000
00000000
003F0000
01FFE000
07FFF800
0FE1FC00
1FC0FE00
3F807F00
3F807F00
7F807F80
7F807F80
7F807F80
FF003FC0
FF003FC0
FF003FC0
FF003FC0
FF003FC0
FF003FC0
FF003FC0
FF003FC0
7F807F80
7F807F80
7F807F80
3F807F00
3F80FF00
1FC0FE00
0FE1FC00
07FFF800
01FFE000
003F0000
ENDCHAR
STARTCHAR multiply
ENCODING 215
SWIDTH 550 0
DWIDTH 22 0
BBX 20 19 1 3
BITMAP
100080
3801C0
FC03F0
7E07E0
3F0FC0
1F9F80
0FFF00
07FE00
03FC00
01F800
03FC00
07FE00
0FFF00
1F9F80
3F0FC0
FE07F0
7C03E0
3801C0
100080
ENDCHAR
STARTCHAR Oslash
ENCODING 216
SWIDTH 700 0
DWIDTH 28 0
BBX 26 30 1 -2
BITMAP
00000200
003F0300
01FFE780
07FFFF00
0FC0FE00
1FC0FE00
3F807F00
3F807F00
7F80FF80
7F01FF80
7F01FF80
FF03FFC0
FF07BFC0
FF0F3FC0
FF1E3FC0
FF3E3FC0
FF3C3FC0
FF783FC0
FFF03FC0
7FE03F80
7FE03F80
7FC07F80
3F807F00
3F807F00
1FC0FE00
3FE1FC00
3FFFF800
79FFE000
303F0000
10000000
ENDCHAR
STARTCHAR Ugrave
ENCODING 217
SWIDTH 732 0
DWIDTH 29 0
BBX 27 36 1 -1
BITMAP
00780000
00FC0000
00FE0000
007F0000
003F8000
000FC000
0003C000
00004000
00000000
FFFC3FE0
FFFC3FE0
3FF00700
1FE00700
1FE00700
1FE00700
1FE00700
1FE00700
1FE00700
1FE00700
1FE00700
1FE00700
1FE00700
1FE00700
1FE00700
1FE00700
1FE00700
1FE00700
1FE00700
1FE00700
1FF00E00
0FF01E00
0FFC3C00
07FFFC00
03FFF800
01FFE000
003F0000
ENDCHAR
STARTCHAR Uacute
ENCODING 218
SWIDTH 732 0
DWIDTH 29 0
BBX 27 36 1 -1
BITMAP
00007800
0000FC00
0001FC00
0003FC00
0007F000
000FC000
000F0000
00040000
00000000
FFFC3FE0
FFFC3FE0
3FF00700
1FE00700
1FE00700
1FE00700
1FE00700
1FE00700
1FE00700
1FE00700
1FE00700
1FE00700
1FE00700
1FE00700
1FE00700
1FE00700
1FE00700
1FE00700
1FE00700
1FE00700
1FF00E00
0FF01E00
0FFC3C00
07FFFC00
03FFF800
01FFE000
003F0000
ENDCHAR
STARTCHAR Ucircumflex
ENCODING 219
SWIDTH 732 0
DWIDTH 29 0
BBX 27 36 1 -1
BITMAP
0007C000
000FE000
001FF000
003FF800
007EFC00
007C3E00
00F01F00
00400600
00000000
FFFC3FE0
FFFC3FE0
3FF00700
1FE00700
1FE00700
1FE00700
1FE00700
1FE00700
1FE00700
1FE00700
1FE00700
1FE00700
1FE00700
1FE00700
1FE00700
1FE00700
1FE00700
1FE00700
1FE00700
1FE00700
1FF00E00
0FF01E00
0FFC3C00
07FFFC00
03FFF800
01FFE000
003F0000
ENDCHAR
STARTCHAR Udieresis
ENCODING 220
SWIDTH 732 0
DWIDTH 29 0
BBX 27 35 1 -1
BITMAP
00F01C00
01F83E00
01F87F00
01F87F00
01F83E00
00F01C00
00000000
00000000
FFFC3FE0
FFFC3FE0
3FF00700
1FE00700
1FE00700
1FE00700
1FE00700
1FE00700
1FE00700
1FE00700
1FE00700
1FE00700
1FE00700
1FE00700
1FE00700
1FE00700
1FE00700
1FE00700
1FE00700
1FE00700
1FF00E00
0FF01E00
0FFC3C00
07FFFC00
03FFF800
01FFE000
003F0000
ENDCHAR
STARTCHAR Yacute
ENCODING 221
SWIDTH 621 0
DWIDTH 25 0
BBX 25 35 0 0
BITMAP
00003800
0000FC00
0001FC00
0003FC00
0007F000
000FC000
000F0000
00040000
00000000
FFFC7F80
FFFC7F80
3FF03F00
1FE01C00
1FF01800
0FF03800
0FF83000
07F87000
07FC6000
03FCE000
03FEC000
03FFC000
01FF8000
01FF8000
00FF0000
00FF0000
007F0000
007F0000
007F0000
007F0000
007F0000
007F8000
007F8000
01FFE000
07FFF000
07FFF000
ENDCHAR
STARTCHAR Thorn
ENCODING 222
SWIDTH 626 0
DWIDTH 25 0
BBX 23 26 1 0
BITMAP
FFFC00
FFFC00
3FF000
1FE000
1FE000
1FFFC0
1FFFF8
1FE7FC
1FE1FE
1FE0FE
1FE0FE
1FE0FE
1FE0FE
1FE0FE
1FE0FE
1FE0FE
1FE1FC
1FE3FC
1FFFF8
1FFFE0
1FF800
1FE000
1FE000
7FF000
FFFC00
FFFC00
ENDCHAR
STARTCHAR germandbls
ENCODING 223
SWIDTH 687 0
DWIDTH 27 0
BBX 26 30 1 -1
BITMAP
007FF000
01FFFC00
03F0FE00
07E07E00
0FC07F00
1FC03F00
1FC03F00
3FC03F00
3FC07E00
3FC07C00
3FC0F000
3FC3E000
3FC78000
3FCF8000
3FCFE000
3FCFF800
3FCFFE00
3FCFFF00
3FCFFF80
3FC7FF80
3FC3FFC0
3FC0FFC0
3FC03FC0
3FCE1FC0
3FDE0FC0
3FDF0F80
3FDF1F80
FFDFFF00
FFCFFC00
0001E000
ENDCHAR
STARTCHAR agrave
ENCODING 224
SWIDTH 540 0
DWIDTH 22 0
BBX 21 32 1 -1
BITMAP
0F0000
1F8000
1F8000
0FC000
0FC000
03E000
01F000
00F000
002000
000000
000000
07FC00
1FFF00
3E3F80
7E3F80
7E1FC0
7E1FC0
7C1FC0
381FC0
007FC0
07FFC0
1F9FC0
3F1FC0
7E1FC0
FE1FC0
FE1FC0
FE1FC0
FF3FC0
FFFFF8
7FDFF0
3F8FE0
0E0380
ENDCHAR
STARTCHAR aacute
ENCODING 225
SWIDTH 540 0
DWIDTH 22 0
BBX 21 32 1 -1
BITMAP
001E00
001F00
003F00
007F00
007E00
00FC00
00F000
01E000
008000
000000
000000
07FC00
1FFF00
3E3F80
7E3F80
7E1FC0
7E1FC0
7C1FC0
381FC0
007FC0
07FFC0
1F9FC0
3F1FC0
7E1FC0
FE1FC0
FE1FC0
FE1FC0
FF3FC0
FFFFF8
7FDFF0
3F8FE0
0E0380
ENDCHAR
STARTCHAR acircumflex
ENCODING 226
SWIDTH 540 0
DWIDTH 22 0
BBX 21 31 1 -1
BITMAP
00F000
01F800
03FC00
03FE00
07FF00
0F8F00
1E0780
0C0180
000000
000000
07FC00
1FFF00
3E3F80
7E3F80
7E1FC0
7E1FC0
7C1FC0
381FC0
007FC0
07FFC0
1F9FC0
3F1FC0
7E1FC0
FE1FC0
FE1FC0
FE1FC0
FF3FC0
FFFFF8
7FDFF0
3F8FE0
0E0380
ENDCHAR
STARTCHAR atilde
ENCODING 227
SWIDTH 540 0
DWIDTH 22 0
BBX 21 30 1 -1
BITMAP
07C180
0FF380
1FFF80
1FFF00
1CFF00
383E00
000000
000000
000000
07FC00
1FFF00
3E3F80
7E3F80
7E1FC0
7E1FC0
7C1FC0
381FC0
007FC0
07FFC0
1F9FC0
3F1FC0
7E1FC0
FE1FC0
FE1FC0
FE1FC0
FF3FC0
FFFFF8
7FDFF0
3F8FE0
0E0380
ENDCHAR
STARTCHAR adieresis
ENCODING 228
SWIDTH 540 0
DWIDTH 22 0
BBX 21 30 1 -1
BITMAP
1E0780
3F0FC0
7F0FC0
7F1FC0
3F0FC0
3E0780
000000
000000
000000
07FC00
1FFF00
3E3F80
7E3F80
7E1FC0
7E1FC0
7C1FC0
381FC0
007FC0
07FFC0
1F9FC0
3F1FC0
7E1FC0
FE1FC0
FE1FC0
FE1FC0
FF3FC0
FFFFF8
7FDFF0
3F8FE0
0E0380
ENDCHAR
STARTCHAR aring
ENCODING 229
SWIDTH 540 0
DWIDTH 22 0
BBX 21 33 1 -1
BITMAP
00E000
03F800
07FC00
070E00
060E00
060E00
070E00
07BC00
03F800
00F000
000000
000000
07FC00
1FFF00
3E3F80
7E3F80
7E1FC0
7E1FC0
7C1FC0
381FC0
007FC0
07FFC0
1F9FC0
3F1FC0
7E1FC0
FE1FC0
FE1FC0
FE1FC0
FF3FC0
FFFFF8
7FDFF0
3F8FE0
0E0380
ENDCHAR
STARTCHAR ae
ENCODING 230
SWIDTH 792 0
DWIDTH 32 0
BBX 30 21 1 -1
BITMAP
07FC3F80
1FFFFFE0
3E3FF3F0
7E3FE1F8
7E3FE1F8
7E1FE1F8
7C1FE1FC
381FE1FC
007FFFFC
07FFFFFC
1F9FFFFC
3F1FE000
7E1FE000
FE1FE000
FE1FF008
FE0FF81C
FF1FFFF8
FFFFFFF8
7FF3FFF0
3FC0FFC0
07001C00
ENDCHAR
STARTCHAR ccedilla
ENCODING 231
SWIDTH 523 0
DWIDTH 21 0
BBX 19 29 1 -9
BITMAP
01FE00
07FF80
1FEFC0
3FCFC0
7F87E0
7F07E0
FF07E0
FF03C0
FF0000
FF0000
FF0000
FF0000
FF0000
FF8000
7F8040
7FC0C0
3FFFE0
3FFFC0
1FFF80
07FE00
007000
00E000
00F800
00FC00
003E00
001E00
023E00
03FC00
03F800
ENDCHAR
STARTCHAR egrave
ENCODING 232
SWIDTH 526 0
DWIDTH 21 0
BBX 19 32 1 -1
BITMAP
078000
0F8000
0FC000
0FE000
07E000
03F000
00F800
007800
001000
000000
000000
01FC00
07FF00
1F9F80
3F8FC0
7F0FC0
7F0FE0
FF0FE0
FF0FE0
FFFFE0
FFFFE0
FFFFE0
FF0000
FF0000
FF8000
7F8040
7FC0E0
3FFFE0
3FFFC0
0FFF80
07FF00
007000
ENDCHAR
STARTCHAR eacute
ENCODING 233
SWIDTH 526 0
DWIDTH 21 0
BBX 19 32 1 -1
BITMAP
000F00
001F00
001F80
003F00
007E00
007C00
00F800
00E000
004000
000000
000000
01FC00
07FF00
1F9F80
3F8FC0
7F0FC0
7F0FE0
FF0FE0
FF0FE0
FFFFE0
FFFFE0
FFFFE0
FF0000
FF0000
FF8000
7F8040
7FC0E0
3FFFE0
3FFFC0
0FFF80
07FF00
007000
ENDCHAR
STARTCHAR ecircumflex
ENCODING 234
SWIDTH 526 0
DWIDTH 21 0
BBX 19 31 1 -1
BITMAP
00F000
01F800
01FC00
03FE00
07DF00
0F8F00
1E0780
0C0180
000000
000000
01FC00
07FF00
1F9F80
3F8FC0
7F0FC0
7F0FE0
FF0FE0
FF0FE0
FFFFE0
FFFFE0
FFFFE0
FF0000
FF0000
FF8000
7F8040
7FC0E0
3FFFE0
3FFFC0
0FFF80
07FF00
007000
ENDCHAR
STARTCHAR edieresis
ENCODING 235
SWIDTH 526 0
DWIDTH 21 0
BBX 19 30 1 -1
BITMAP
0E0380
1F07E0
3F8FE0
3F8FE0
3F8FE0
1F07C0
000000
000000
000000
01FC00
07FF00
1F9F80
3F8FC0
7F0FC0
7F0FE0
FF0FE0
FF0FE0
FFFFE0
FFFFE0
FFFFE0
FF0000
FF0000
FF8000
7F8040
7FC0E0
3FFFE0
3FFFC0
0FFF80
07FF00
007000
ENDCHAR
STARTCHAR igrave
ENCODING 236
SWIDTH 324 0
DWIDTH 13 0
BBX 12 31 0 0
BITMAP
7800
FC00
FC00
7E00
7F00
1F00
0F80
0780
0100
0000
0000
00E0
0FE0
7FE0
7FE0
3FE0
1FE0
1FE0
1FE0
1FE0
1FE0
1FE0
1FE0
1FE0
1FE0
1FE0
1FE0
1FE0
1FE0
7FF0
7FF0
ENDCHAR
STARTCHAR iacute
ENCODING 237
SWIDTH 324 0
DWIDTH 13 0
BBX 12 31 1 0
BITMAP
00F0
01F0
03F0
03F0
07E0
07C0
0F80
0E00
0400
0000
0000
01C0
1FC0
FFC0
FFC0
7FC0
3FC0
3FC0
3FC0
3FC0
3FC0
3FC0
3FC0
3FC0
3FC0
3FC0
3FC0
3FC0
3FC0
FFE0
FFE0
ENDCHAR
STARTCHAR icircumflex
ENCODING 238
SWIDTH 324 0
DWIDTH 13 0
BBX 14 30 0 0
BITMAP
0780
0FC0
1FE0
3FE0
3FF0
7878
F03C
4018
0000
0000
00E0
0FE0
7FE0
7FE0
3FE0
1FE0
1FE0
1FE0
1FE0
1FE0
1FE0
1FE0
1FE0
1FE0
1FE0
1FE0
1FE0
1FE0
7FF0
7FF0
ENDCHAR
STARTCHAR idieresis
ENCODING 239
SWIDTH 324 0
DWIDTH 13 0
BBX 15 29 -1 0
BITMAP
3C3C
7E7E
FEFE
FEFE
7E7E
7C7C
0000
0000
0000
0070
07F0
3FF0
3FF0
1FF0
0FF0
0FF0
0FF0
0FF0
0FF0
0FF0
0FF0
0FF0
0FF0
0FF0
0FF0
0FF0
0FF0
3FF8
3FF8
ENDCHAR
STARTCHAR eth
ENCODING 240
SWIDTH 558 0
DWIDTH 22 0
BBX 20 30 1 -1
BITMAP
0E00C0
1F83E0
0FFFC0
03FF00
01FC00
07FE00
1FFF00
1E3F80
081F80
001FC0
07FFE0
0FFFE0
1F8FF0
3F8FF0
7F0FF0
7F0FF0
FF07F0
FF07F0
FF07F0
FF07F0
FF07F0
FF07F0
FF07F0
7F0FE0
7F0FE0
3F8FC0
3F9F80
0FFF00
07FE00
00E000
ENDCHAR
STARTCHAR ntilde
ENCODING 241
SWIDTH 620 0
DWIDTH 25 0
BBX 23 29 1 0
BITMAP
03E0E0
07FDE0
07FFC0
0FFFC0
0E7F80
0C1F00
000000
000000
000000
038FC0
1F9FF0
FFBFF0
FFFFF8
7FE7F8
3F87F8
3F83F8
3F83F8
3F83F8
3F83F8
3F83F8
3F83F8
3F83F8
3F83F8
3F83F8
3F83F8
3F83F8
3F83F8
FFEFFE
FFEFFE
ENDCHAR
STARTCHAR ograve
ENCODING 242
SWIDTH 572 0
DWIDTH 23 0
BBX 21 32 1 -1
BITMAP
0F0000
0F8000
0FC000
0FC000
07E000
03F000
00F000
007800
003000
000000
000000
01FC00
0FFF00
1F9FC0
3F8FE0
7F07E0
7F07F0
FF07F0
FF07F8
FF07F8
FF07F8
FF07F8
FF07F8
FF07F8
FF07F8
7F07F0
7F07F0
3F0FE0
3F8FC0
1FFF80
07FF00
007000
ENDCHAR
STARTCHAR oacute
ENCODING 243
SWIDTH 572 0
DWIDTH 23 0
BBX 21 32 1 -1
BITMAP
000780
000F80
001F80
001F80
003F00
003E00
007C00
00F000
002000
000000
000000
01FC00
0FFF00
1F9FC0
3F8FE0
7F07E0
7F07F0
FF07F0
FF07F8
FF07F8
FF07F8
FF07F8
FF07F8
FF07F8
FF07F8
7F07F0
7F07F0
3F0FE0
3F8FC0
1FFF80
07FF00
007000
ENDCHAR
STARTCHAR ocircumflex
ENCODING 244
SWIDTH 572 0
DWIDTH 23 0
BBX 21 31 1 -1
BITMAP
00F800
01F800
01FC00
03FE00
07DF00
0F8F80
1E03C0
0C0180
000000
000000
01FC00
0FFF00
1F9FC0
3F8FE0
7F07E0
7F07F0
FF07F0
FF07F8
FF07F8
FF07F8
FF07F8
FF07F8
FF07F8
FF07F8
7F07F0
7F07F0
3F0FE0
3F8FC0
1FFF80
07FF00
007000
ENDCHAR
STARTCHAR otilde
ENCODING 245
SWIDTH 572 0
DWIDTH 23 0
BBX 21 30 1 -1
BITMAP
03E1C0
07FBC0
0FFF80
1FFF80
1CFF00
183E00
000000
000000
000000
01FC00
0FFF00
1F9FC0
3F8FE0
7F07E0
7F07F0
FF07F0
FF07F8
FF07F8
FF07F8
FF07F8
FF07F8
FF07F8
FF07F8
7F07F0
7F07F0
3F0FE0
3F8FC0
1FFF80
07FF00
007000
ENDCHAR
STARTCHAR odieresis
ENCODING 246
SWIDTH 572 0
DWIDTH 23 0
BBX 21 30 1 -1
BITMAP
0E0380
3F07C0
3F8FE0
3F8FE0
3F8FE0
1F07C0
000000
000000
000000
01FC00
0FFF00
1F9FC0
3F8FE0
7F07E0
7F07F0
FF07F0
FF07F8
FF07F8
FF07F8
FF07F8
FF07F8
FF07F8
FF07F8
7F07F0
7F07F0
3F0FE0
3F8FC0
1FFF80
07FF00
007000
ENDCHAR
STARTCHAR divide
ENCODING 247
SWIDTH 550 0
DWIDTH 22 0
BBX 20 20 1 3
BITMAP
00F000
01F800
01F800
01F800
01F800
006000
000000
000000
FFFFF0
FFFFF0
FFFFF0
FFFFF0
000000
000000
000000
00F000
01F800
01F800
01F800
00F000
ENDCHAR
STARTCHAR oslash
ENCODING 248
SWIDTH 572 0
DWIDTH 23 0
BBX 21 23 1 -2
BITMAP
000040
01FC70
0FFFE0
1F8FC0
3F0FE0
7F07E0
7F07F0
FF0FF0
FF1FF8
FF3FF8
FE7FF8
FE77F8
FEE7F8
FFC7F8
FFC7F8
7F87F0
7F07F0
3F07E0
3F8FC0
3FFF80
7FFF00
307000
100000
ENDCHAR
STARTCHAR ugrave
ENCODING 249
SWIDTH 617 0
DWIDTH 25 0
BBX 23 32 1 -1
BITMAP
03C000
07C000
07E000
07F000
03F000
01F800
007C00
003C00
000800
000000
000000
038038
FF87F8
FF8FF8
7F87F8
3F83F8
3F83F8
3F83F8
3F83F8
3F83F8
3F83F8
3F83F8
3F83F8
3F83F8
3F83F8
3F83F8
3FC7F8
3FFFF8
3FFFF8
1FFBFE
0FE3FE
018000
ENDCHAR
STARTCHAR uacute
ENCODING 250
SWIDTH 617 0
DWIDTH 25 0
BBX 23 32 1 -1
BITMAP
000780
000F80
001F80
001F80
003F00
007E00
007800
00F000
006000
000000
000000
038038
FF87F8
FF8FF8
7F87F8
3F83F8
3F83F8
3F83F8
3F83F8
3F83F8
3F83F8
3F83F8
3F83F8
3F83F8
3F83F8
3F83F8
3FC7F8
3FFFF8
3FFFF8
1FFBFE
0FE3FE
018000
ENDCHAR
STARTCHAR ucircumflex
ENCODING 251
SWIDTH 617 0
DWIDTH 25 0
BBX 23 31 1 -1
BITMAP
003C00
007E00
00FE00
01FF00
03EF80
03C7C0
0781E0
0600C0
000000
000000
038038
FF87F8
FF8FF8
7F87F8
3F83F8
3F83F8
3F83F8
3F83F8
3F83F8
3F83F8
3F83F8
3F83F8
3F83F8
3F83F8
3F83F8
3FC7F8
3FFFF8
3FFFF8
1FFBFE
0FE3FE
018000
ENDCHAR
STARTCHAR udieresis
ENCODING 252
SWIDTH 617 0
DWIDTH 25 0
BBX 23 30 1 -1
BITMAP
0781E0
0FC3F0
1FC7F0
1FC7F0
0FC3F0
0F83E0
000000
000000
000000
038038
FF87F8
FF8FF8
7F87F8
3F83F8
3F83F8
3F83F8
3F83F8
3F83F8
3F83F8
3F83F8
3F83F8
3F83F8
3F83F8
3F83F8
3FC7F8
3FFFF8
3FFFF8
1FFBFE
0FE3FE
018000
ENDCHAR
STARTCHAR yacute
ENCODING 253
SWIDTH 543 0
DWIDTH 22 0
BBX 22 40 0 -9
BITMAP
0001E0
0003F0
0003F0
0007E0
0007E0
000FC0
001F00
001E00
000800
000000
000000
000000
FFF3FC
FFE3F8
3FC0E0
3FC0C0
1FE1C0
1FE1C0
0FE180
0FF380
07F380
07F300
07FF00
03FE00
03FE00
01FE00
01FC00
00FC00
00F800
00F800
007800
007000
003000
003000
386000
7EE000
FEC000
FFC000
7F8000
3E0000
ENDCHAR
STARTCHAR thorn
ENCODING 254
SWIDTH 623 0
DWIDTH 25 0
BBX 23 38 1 -9
BITMAP
018000
3FC000
FFC000
FFC000
3F8000
3F8000
3F8000
3F8000
3F8000
3F8FC0
3FBFF0
3FFFF8
3FFFF8
3FC7FC
3FC3FC
3FC1FE
3FC1FE
3FC1FE
3FC1FE
3FC1FE
3FC1FE
3FC1FE
3FC1FE
3FC3FC
3FC3FC
3FC7F8
3FFFF8
3FFFF0
3FBFC0
3F8600
3F8000
3F8000
3F8000
3F8000
3FC000
7FE000
FFF000
FFF000
ENDCHAR
STARTCHAR ydieresis
ENCODING 255
SWIDTH 543 0
DWIDTH 22 0
BBX 22 38 0 -9
BITMAP
03C0F0
07E1F8
07E1FC
07E1FC
07E1F8
03C0F8
000000
000000
000000
000000
FFF3FC
FFE3F8
3FC0E0
3FC0C0
1FE1C0
1FE1C0
0FE180
0FF380
07F380
07F300
07FF00
03FE00
03FE00
01FE00
01FC00
00FC00
00F800
00F800
007800
007000
003000
003000
386000
7EE000
FEC000
FFC000
7F8000
3E0000
ENDCHAR
STARTCHAR Amacron
ENCODING 256
SWIDTH 680 0
DWIDTH 27 0
BBX 27 33 0 0
BITMAP
01FFF800
01FFF800
01FFF800
01FFF800
00000000
00000000
00000000
001F8000
001F8000
001F8000
003FC000
003FC000
003FC000
007FE000
007FE000
006FE000
00CFF000
00CFF000
00C7F000
0187F800
0187F800
0183F800
0383FC00
03FFFC00
07FFFC00
07FFFE00
0601FE00
0E00FE00
0E00FF00
0C00FF00
7F01FF00
FF83FFE0
FF83FFE0
ENDCHAR
STARTCHAR amacron
ENCODING 257
SWIDTH 540 0
DWIDTH 22 0
BBX 21 28 1 -1
BITMAP
1FFF80
1FFF80
1FFF80
1FFF80
000000
000000
000000
07FC00
1FFF00
3E3F80
7E3F80
7E1FC0
7E1FC0
7C1FC0
381FC0
007FC0
07FFC0
1F9FC0
3F1FC0
7E1FC0
FE1FC0
FE1FC0
FE1FC0
FF3FC0
FFFFF8
7FDFF0
3F8FE0
0E0380
ENDCHAR
STARTCHAR Abreve
ENCODING 258
SWIDTH 680 0
DWIDTH 27 0
BBX 27 34 0 0
BITMAP
01803800
01C07800
00FFF000
00FFF000
007FE000
003F8000
00000000
00000000
001F8000
001F8000
001F8000
003FC000
003FC000
003FC000
007FE000
007FE000
006FE000
00CFF000
00CFF000
00C7F000
0187F800
0187F800
0183F800
0383FC00
03FFFC00
07FFFC00
07FFFE00
0601FE00
0E00FE00
0E00FF00
0C00FF00
7F01FF00
FF83FFE0
FF83FFE0
ENDCHAR
STARTCHAR abreve
ENCODING 259
SWIDTH 540 0
DWIDTH 22 0
BBX 21 31 1 -1
BITMAP
040200
1C0300
1E0700
0F0F00
0FFE00
07FE00
03FC00
000000
000000
000000
07FC00
1FFF00
3E3F80
7E3F80
7E1FC0
7E1FC0
7C1FC0
381FC0
007FC0
07FFC0
1F9FC0
3F1FC0
7E1FC0
FE1FC0
FE1FC0
FE1FC0
FF3FC0
FFFFF8
7FDFF0
3F8FE0
0E0380
ENDCHAR
STARTCHAR Aogonek
ENCODING 260
SWIDTH 680 0
DWIDTH 27 0
BBX 27 35 0 -9
BITMAP
001F8000
001F8000
001F8000
003FC000
003FC000
003FC000
007FE000
007FE000
006FE000
00CFF000
00CFF000
00C7F000
0187F800
0187F800
0183F800
0383FC00
03FFFC00
07FFFC00
07FFFE00
0601FE00
0E00FE00
0E00FF00
0C00FF00
7F01FF00
FF83FFE0
FF83FFE0
00000C00
00003C00
00007800
00007800
00007C00
00007FE0
00007FE0
00007FE0
00001F80
ENDCHAR
STARTCHAR aogonek
ENCODING 261
SWIDTH 540 0
DWIDTH 22 0
BBX 22 29 1 -9
BITMAP
07FC00
1FFF00
3E3F80
7E3F80
7E3FC0
7E1FC0
7C1FC0
381FC0
007FC0
07FFC0
1F9FC0
3F1FC0
7E1FC0
FE1FC0
FE1FC0
FE1FC0
FF1FC0
FFFFF8
7FDFF0
3F8FE0
0E03C0
000380
000780
000F80
000F80
000FFC
000FFC
0007FC
0003F0
ENDCHAR
STARTCHAR Cacute
ENCODING 262
SWIDTH 618 0
DWIDTH 25 0
BBX 23 36 1 -1
BITMAP
000078
0000FC
0001FC
0003F8
0007F0
001FC0
000E00
000800
001FC0
00FFF8
03FFFC
0FF03C
1FE03E
3FC01E
3FC01E
7F801E
7F8000
7F8000
FF8000
FF0000
FF0000
FF0000
FF0000
FF0000
FF0000
FF8000
7F8000
7F800E
7F801E
3FC01E
3FC01E
1FE01E
0FF03E
07FFFE
01FFF8
001F80
ENDCHAR
STARTCHAR cacute
ENCODING 263
SWIDTH 523 0
DWIDTH 21 0
BBX 19 32 1 -1
BITMAP
000F00
001F00
003F00
003F00
007E00
007C00
00F800
01E000
004000
000000
000000
01FE00
07FF80
1FEFC0
3FCFC0
7F87E0
7F07E0
FF07E0
FF03C0
FF0000
FF0000
FF0000
FF0000
FF0000
FF8000
7F8040
7FC0C0
3FFFE0
3FFFC0
1FFF80
07FE00
007000
ENDCHAR
STARTCHAR Ccircumflex
ENCODING 264
SWIDTH 618 0
DWIDTH 25 0
BBX 23 36 1 -1
BITMAP
001F00
003F80
007FC0
00FFE0
01FBF0
03F0F8
03C078
010018
001FC0
00FFF8
03FFFC
0FF03C
1FE03E
3FC01E
3FC01E
7F801E
7F8000
7F8000
FF8000
FF0000
FF0000
FF0000
FF0000
FF0000
FF0000
FF8000
7F8000
7F800E
7F801E
3FC01E
3FC01E
1FE01E
0FF03E
07FFFE
01FFF8
001F80
ENDCHAR
STARTCHAR ccircumflex
ENCODING 265
SWIDTH 523 0
DWIDTH 21 0
BBX 19 31 1 -1
BITMAP
007800
00FC00
01FE00
03FF00
03FF00
078780
0F03C0
060080
000000
000000
01FE00
07FF80
1FEFC0
3FCFC0
7F87E0
7F07E0
FF07E0
FF03C0
FF0000
FF0000
FF0000
FF0000
FF0000
FF8000
7F8040
7FC0C0
3FFFE0
3FFFC0
1FFF80
07FE00
007000
ENDCHAR
STARTCHAR Cdotaccent
ENCODING 266
SWIDTH 618 0
DWIDTH 25 0
BBX 23 36 1 -1
BITMAP
000E00
001F80
003F80
003FC0
003F80
001F80
000F00
000000
001FC0
00FFF8
03FFFC
0FF03C
1FE03E
3FC01E
3FC01E
7F801E
7F8000
7F8000
FF8000
FF0000
FF0000
FF0000
FF0000
FF0000
FF0000
FF8000
7F8000
7F800E
7F801E
3FC01E
3FC01E
1FE01E
0FF03E
07FFFE
01FFF8
001F80
ENDCHAR
STARTCHAR cdotaccent
ENCODING 267
SWIDTH 523 0
DWIDTH 21 0
BBX 19 30 1 -1
BITMAP
007C00
00FE00
00FE00
00FE00
00FE00
007C00
001000
000000
000000
01FE00
07FF80
1FEFC0
3FCFC0
7F87E0
7F07E0
FF07E0
FF03C0
FF0000
FF0000
FF0000
FF0000
FF0000
FF8000
7F8040
7FC0C0
3FFFE0
3FFFC0
1FFF80
07FE00
007000
ENDCHAR
STARTCHAR Ccaron
ENCODING 268
SWIDTH 618 0
DWIDTH 25 0
BBX 23 37 1 -1
BITMAP
008010
01C03C
01F078
00F9F0
007FE0
003FC0
001F80
000F80
000000
001FC0
00FFF8
03FFFC
0FF03C
1FE03E
3FC01E
3FC01E
7F801E
7F8000
7F8000
FF8000
FF0000
FF0000
FF0000
FF0000
FF0000
FF0000
FF8000
7F8000
7F800E
7F801E
3FC01E
3FC01E
1FE01E
0FF03E
07FFFE
01FFF8
001F80
ENDCHAR
STARTCHAR ccaron
ENCODING 269
SWIDTH 523 0
DWIDTH 21 0
BBX 19 32 1 -1
BITMAP
060180
0F03C0
078780
03CF00
03FF00
01FE00
00FC00
007C00
000000
000000
000000
01FE00
07FF80
1FEFC0
3FCFC0
7F87E0
7F07E0
FF07E0
FF03C0
FF0000
FF0000
FF0000
FF0000
FF0000
FF8000
7F8040
7FC0C0
3FFFE0
3FFFC0
1FFF80
07FE00
007000
ENDCHAR
STARTCHAR Dcaron
ENCODING 270
SWIDTH 703 0
DWIDTH 28 0
BBX 26 36 1 0
BITMAP
02002000
0700F000
07C1E000
03E7C000
01FF8000
00FF0000
007F0000
003E0000
00000000
00000000
FFFF8000
FFFFF000
3FEFF800
1FE1FC00
1FE0FE00
1FE0FF00
1FE07F80
1FE07F80
1FE03F80
1FE03FC0
1FE03FC0
1FE03FC0
1FE03FC0
1FE03FC0
1FE03FC0
1FE03FC0
1FE03FC0
1FE03F80
1FE07F80
1FE07F00
1FE0FF00
1FE0FE00
1FE1FC00
7FEFF800
FFFFE000
FFFF0000
ENDCHAR
STARTCHAR dcaron
ENCODING 271
SWIDTH 615 0
DWIDTH 25 0
BBX 28 30 1 -1
BITMAP
000039E0
0007F9F0
001FF9F0
001FF9E0
0007F9E0
0007F9E0
0007F9C0
0007F9C0
0007F800
03F7F800
0FFFF800
1FFFF800
3FFFF800
7FC7F800
7F87F800
FF07F800
FF07F800
FF07F800
FF07F800
FF07F800
FF07F800
FF07F800
FF07F800
FF87F800
7F87F800
7FEFF800
3FFFF800
1FFFFC00
0FF3FC00
01800000
ENDCHAR
STARTCHAR Dcroat
ENCODING 272
SWIDTH 703 0
DWIDTH 28 0
BBX 26 26 1 0
BITMAP
FFFF8000
FFFFF000
3FEFF800
1FE1FC00
1FE0FE00
1FE0FF00
1FE07F80
1FE07F80
1FE03F80
1FE03FC0
1FE03FC0
FFFE3FC0
FFFE3FC0
FFFE3FC0
1FE03FC0
1FE03FC0
1FE03FC0
1FE03F80
1FE07F80
1FE07F00
1FE0FF00
1FE0FE00
1FE1FC00
7FEFF800
FFFFE000
FFFF0000
ENDCHAR
STARTCHAR dcroat
ENCODING 273
SWIDTH 605 0
DWIDTH 24 0
BBX 23 30 1 -1
BITMAP
000038
0007F8
001FF8
001FF8
0007F8
01FFFE
01FFFE
01FFFE
0007F8
0007F8
07F7F8
1FFFF8
3FFFF8
3FEFF8
7F87F8
7F87F8
FF07F8
FF07F8
FF07F8
FF07F8
FF07F8
FF07F8
FF07F8
FF87F8
7F87F8
7FEFF8
3FFFF8
3FFFFC
0FF3FC
018000
ENDCHAR
STARTCHAR Emacron
ENCODING 274
SWIDTH 591 0
DWIDTH 24 0
BBX 22 33 1 0
BITMAP
07FFC0
07FFC0
07FFC0
07FFC0
000000
000000
000000
FFFFF8
FFFFF8
3FE078
1FE078
1FE078
1FE078
1FE078
1FE000
1FE1C0
1FE1C0
1FE1C0
1FFFC0
1FFFC0
1FFFC0
1FE1C0
1FE1C0
1FE1C0
1FE000
1FE000
1FE03C
1FE03C
1FE03C
1FE07C
7FE07C
FFFFFC
FFFFFC
ENDCHAR
STARTCHAR emacron
ENCODING 275
SWIDTH 526 0
DWIDTH 21 0
BBX 19 28 1 -1
BITMAP
1FFF80
1FFF80
1FFF80
1FFF80
000000
000000
000000
01FC00
07FF00
1F9F80
3F8FC0
7F0FC0
7F0FE0
FF0FE0
FF0FE0
FFFFE0
FFFFE0
FFFFE0
FF0000
FF0000
FF8000
7F8040
7FC0E0
3FFFE0
3FFFC0
0FFF80
07FF00
007000
ENDCHAR
STARTCHAR Ebreve
ENCODING 276
SWIDTH 591 0
DWIDTH 24 0
BBX 22 34 1 0
BITMAP
0E00C0
0701C0
07FFC0
03FF80
03FF00
00FE00
000000
000000
FFFFF8
FFFFF8
3FE078
1FE078
1FE078
1FE078
1FE078
1FE000
1FE1C0
1FE1C0
1FE1C0
1FFFC0
1FFFC0
1FFFC0
1FE1C0
1FE1C0
1FE1C0
1FE000
1FE000
1FE03C
1FE03C
1FE03C
1FE07C
7FE07C
FFFFFC
FFFFFC
ENDCHAR
STARTCHAR ebreve
ENCODING 277
SWIDTH 526 0
DWIDTH 21 0
BBX 19 31 1 -1
BITMAP
040200
1C0380
1E0700
0F0F00
0FFF00
07FE00
03FC00
000000
000000
000000
01FC00
07FF00
1F9F80
3F8FC0
7F0FC0
7F0FE0
FF0FE0
FF0FE0
FFFFE0
FFFFE0
FFFFE0
FF0000
FF0000
FF8000
7F8040
7FC0E0
3FFFE0
3FFFC0
0FFF80
07FF00
007000
ENDCHAR
STARTCHAR Edotaccent
ENCODING 278
SWIDTH 591 0
DWIDTH 24 0
BBX 22 35 1 0
BITMAP
003800
007E00
00FE00
00FE00
00FE00
00FE00
007C00
000000
000000
FFFFF8
FFFFF8
3FE078
1FE078
1FE078
1FE078
1FE078
1FE000
1FE1C0
1FE1C0
1FE1C0
1FFFC0
1FFFC0
1FFFC0
1FE1C0
1FE1C0
1FE1C0
1FE000
1FE000
1FE03C
1FE03C
1FE03C
1FE07C
7FE07C
FFFFFC
FFFFFC
ENDCHAR
STARTCHAR edotaccent
ENCODING 279
SWIDTH 526 0
DWIDTH 21 0
BBX 19 30 1 -1
BITMAP
00F800
01FC00
01FC00
01FC00
01FC00
00F800
002000
000000
000000
01FC00
07FF00
1F9F80
3F8FC0
7F0FC0
7F0FE0
FF0FE0
FF0FE0
FFFFE0
FFFFE0
FFFFE0
FF0000
FF0000
FF8000
7F8040
7FC0E0
3FFFE0
3FFFC0
0FFF80
07FF00
007000
ENDCHAR
STARTCHAR Eogonek
ENCODING 280
SWIDTH 591 0
DWIDTH 24 0
BBX 23 35 1 -9
BITMAP
FFFFF8
FFFFF8
3FE078
1FE078
1FE078
1FE078
1FE078
1FE000
1FE1C0
1FE1C0
1FE1C0
1FFFC0
1FFFC0
1FFFC0
1FE1C0
1FE1C0
1FE1C0
1FE000
1FE000
1FE03C
1FE03C
1FE03C
1FE07C
7FE07C
FFFFFC
FFFFFC
0000C0
0003C0
000780
000780
0007C0
0007FE
0007FE
0007FE
0003F8
ENDCHAR
STARTCHAR eogonek
ENCODING 281
SWIDTH 526 0
DWIDTH 21 0
BBX 19 29 1 -9
BITMAP
01FC00
07FF00
1F9F80
3F8FC0
7F0FC0
7F0FE0
FF0FE0
FF0FE0
FFFFE0
FFFFE0
FFFFE0
FF0000
FF0000
FF8000
7F8040
7FC0E0
3FFFE0
1FFFC0
0FFF80
07FF00
007C00
003800
007800
00F800
00FC00
00FFC0
00FFE0
007FC0
003F00
ENDCHAR
STARTCHAR Ecaron
ENCODING 282
SWIDTH 591 0
DWIDTH 24 0
BBX 22 36 1 0
BITMAP
040040
0E01E0
0F83C0
07CF80
03FF00
01FE00
00FC00
007C00
000000
000000
FFFFF8
FFFFF8
3FE078
1FE078
1FE078
1FE078
1FE078
1FE000
1FE1C0
1FE1C0
1FE1C0
1FFFC0
1FFFC0
1FFFC0
1FE1C0
1FE1C0
1FE1C0
1FE000
1FE000
1FE03C
1FE03C
1FE03C
1FE07C
7FE07C
FFFFFC
FFFFFC
ENDCHAR
STARTCHAR ecaron
ENCODING 283
SWIDTH 526 0
DWIDTH 21 0
BBX 19 32 1 -1
BITMAP
0C0300
1E0780
0F0F00
07DF00
03FE00
03FC00
01F800
00F800
000000
000000
000000
01FC00
07FF00
1F9F80
3F8FC0
7F0FC0
7F0FE0
FF0FE0
FF0FE0
FFFFE0
FFFFE0
FFFFE0
FF0000
FF0000
FF8000
7F8040
7FC0E0
3FFFE0
3FFFC0
0FFF80
07FF00
007000
ENDCHAR
STARTCHAR Gcircumflex
ENCODING 284
SWIDTH 672 0
DWIDTH 27 0
BBX 25 36 1 -1
BITMAP
001F0000
003F8000
007FC000
00FFE000
01FBF000
01F0F800
03C07C00
01001800
001FC000
01FFF800
07FFFC00
0FF03C00
1FE03C00
3FC03C00
3FC01C00
7F801E00
7F800000
7F800000
FF800000
FF000000
FF000000
FF000000
FF0FFF80
FF0FFF80
FF03FF00
FF80FE00
7F80FE00
7F80FE00
7F80FE00
3FC0FE00
3FC0FE00
1FE0FE00
0FF0FE00
03FFFE00
01FFF800
001FC000
ENDCHAR
STARTCHAR gcircumflex
ENCODING 285
SWIDTH 553 0
DWIDTH 22 0
BBX 22 39 0 -9
BITMAP
00F000
01F800
01FC00
03FE00
07DF00
0F8F00
1E0780
0C0180
000000
000000
03FC0C
0FFF7C
3F9FFC
3F0FC0
7F0FE0
7F0FE0
7F0FE0
7F0FE0
3F0FC0
3F0FC0
1FBF80
0FFF00
1D7000
3C0000
3C0000
7FFF80
7FFFE0
7FFFF0
7FFFF8
3FFFF8
1FFFF8
3BFFF8
7001F8
F000F8
F801F0
FC03F0
7FFFE0
3FFF80
07F800
ENDCHAR
STARTCHAR Gbreve
ENCODING 286
SWIDTH 672 0
DWIDTH 27 0
BBX 25 35 1 -1
BITMAP
01C03800
01E07800
00FFF000
00FFF000
007FE000
001F8000
00000000
001FC000
01FFF800
07FFFC00
0FF03C00
1FE03C00
3FC03C00
3FC01C00
7F801E00
7F800000
7F800000
FF800000
FF000000
FF000000
FF000000
FF0FFF80
FF0FFF80
FF03FF00
FF80FE00
7F80FE00
7F80FE00
7F80FE00
3FC0FE00
3FC0FE00
1FE0FE00
0FF0FE00
03FFFE00
01FFF800
001FC000
ENDCHAR
STARTCHAR gbreve
ENCODING 287
SWIDTH 553 0
DWIDTH 22 0
BBX 22 39 0 -9
BITMAP
040200
0E0380
0E0780
0F8F00
07FF00
07FE00
01FC00
000000
000000
000000
03FC0C
0FFF7C
3F9FFC
3F0FC0
7F0FE0
7F0FE0
7F0FE0
7F0FE0
3F0FC0
3F0FC0
1FBF80
0FFF00
1D7000
3C0000
3C0000
7FFF80
7FFFE0
7FFFF0
7FFFF8
3FFFF8
1FFFF8
3BFFF8
7001F8
F000F8
F801F0
FC03F0
7FFFE0
3FFF80
07F800
ENDCHAR
STARTCHAR Gdotaccent
ENCODING 288
SWIDTH 672 0
DWIDTH 27 0
BBX 25 36 1 -1
BITMAP
00070000
001F8000
001FC000
003FC000
003FC000
001F8000
000F0000
00000000
001FC000
01FFF800
07FFFC00
0FF03C00
1FE03C00
3FC03C00
3FC01C00
7F801E00
7F800000
7F800000
FF800000
FF000000
FF000000
FF000000
FF0FFF80
FF0FFF80
FF03FF00
FF80FE00
7F80FE00
7F80FE00
7F80FE00
3FC0FE00
3FC0FE00
1FE0FE00
0FF0FE00
03FFFE00
01FFF800
001FC000
ENDCHAR
STARTCHAR gdotaccent
ENCODING 289
SWIDTH 553 0
DWIDTH 22 0
BBX 22 38 0 -9
BITMAP
00F800
01FC00
01FC00
01FC00
01FC00
00F800
002000
000000
000000
03FC0C
0FFF7C
3F9FFC
3F0FC0
7F0FE0
7F0FE0
7F0FE0
7F0FE0
3F0FC0
3F0FC0
1FBF80
0FFF00
1D7000
3C0000
3C0000
7FFF80
7FFFE0
7FFFF0
7FFFF8
3FFFF8
1FFFF8
3BFFF8
7001F8
F000F8
F801F0
FC03F0
7FFFE0
3FFF80
07F800
ENDCHAR
STARTCHAR uni0122
ENCODING 290
SWIDTH 672 0
DWIDTH 27 0
BBX 25 38 1 -11
BITMAP
001FC000
01FFF800
07FFFC00
0FF03C00
1FE03C00
3FC03C00
3FC01C00
7F801E00
7F800000
7F800000
FF800000
FF000000
FF000000
FF000000
FF0FFF80
FF0FFF80
FF03FF00
FF80FE00
7F80FE00
7F80FE00
7F80FE00
3FC0FE00
3FC0FE00
1FE0FE00
0FF0FE00
03FFFE00
01FFF800
001FC000
00000000
00078000
000FC000
000FC000
000FC000
000FC000
0007C000
00078000
001E0000
000C0000
ENDCHAR
STARTCHAR uni0123
ENCODING 291
SWIDTH 553 0
DWIDTH 22 0
BBX 22 41 0 -9
BITMAP
000400
001C00
007800
00E000
01F800
01F800
01F800
01F800
01F800
000000
000000
000000
03FC0C
0FFF7C
3F9FFC
3F0FC0
7F0FE0
7F0FE0
7F0FE0
7F0FE0
3F0FC0
3F0FC0
1FBF80
0FFF00
1D7000
3C0000
3C0000
7FFF80
7FFFE0
7FFFF0
7FFFF8
3FFFF8
1FFFF8
3BFFF8
7001F8
F000F8
F801F0
FC03F0
7FFFE0
3FFF80
07F800
ENDCHAR
STARTCHAR Hcircumflex
ENCODING 292
SWIDTH 756 0
DWIDTH 30 0
BBX 28 35 1 0
BITMAP
000F8000
001F8000
003FC000
007FE000
00FFF000
01F0F800
03C03C00
01000800
00000000
FFF9FFF0
FFF9FFF0
3FE07FC0
1FE07F80
1FE07F80
1FE07F80
1FE07F80
1FE07F80
1FE07F80
1FE07F80
1FE07F80
1FFFFF80
1FFFFF80
1FFFFF80
1FE07F80
1FE07F80
1FE07F80
1FE07F80
1FE07F80
1FE07F80
1FE07F80
1FE07F80
1FE07F80
7FF0FFE0
FFF9FFF0
FFF9FFF0
ENDCHAR
STARTCHAR hcircumflex
ENCODING 293
SWIDTH 624 0
DWIDTH 25 0
BBX 23 37 1 0
BITMAP
007C00
00FE00
01FF00
03FF80
07EFC0
07C3E0
0F01F0
040060
018000
3FC000
FFC000
FFC000
3F8000
3F8000
3F8000
3F8000
3F8000
3F8FC0
3F9FF0
3FBFF8
3FFFF8
3FE7F8
3FC3FC
3FC3FC
3FC3FC
3FC3FC
3FC3FC
3FC3FC
3FC3FC
3FC3FC
3FC3FC
3FC3FC
3FC3FC
3FC3FC
3FC3FC
FFEFFE
FFEFFE
ENDCHAR
STARTCHAR Hbar
ENCODING 294
SWIDTH 756 0
DWIDTH 30 0
BBX 29 26 1 0
BITMAP
FFF9FFF0
FFF9FFF0
3FE07FC0
1FE07F80
1FE07F80
1FE07F80
FFFFFFF8
FFFFFFF8
FFFFFFF8
1FE07F80
1FE07F80
1FE07F80
1FE07F80
1FFFFF80
1FFFFF80
1FE07F80
1FE07F80
1FE07F80
1FE07F80
1FE07F80
1FE07F80
1FE07F80
1FE07F80
7FF0FFE0
FFF9FFF0
FFF9FFF0
ENDCHAR
STARTCHAR hbar
ENCODING 295
SWIDTH 624 0
DWIDTH 25 0
BBX 23 29 1 0
BITMAP
018000
3FC000
FFC000
FFC000
3FC000
3FC000
FFFE00
FFFE00
3F8000
3F8000
3F87C0
3F9FF0
3FBFF8
3FFFF8
3FE7F8
3FC3F8
3FC3FC
3FC3FC
3FC3FC
3FC3FC
3FC3FC
3FC3FC
3FC3FC
3FC3FC
3FC3FC
3FC3FC
3FC3FC
FFEFFE
FFEFFE
ENDCHAR
STARTCHAR Itilde
ENCODING 296
SWIDTH 395 0
DWIDTH 16 0
BBX 14 34 1 0
BITMAP
3E0C
7F9C
FFFC
FFF8
E7F8
C1F0
0000
0000
FFFC
FFFC
3FF0
1FE0
1FE0
1FE0
1FE0
1FE0
1FE0
1FE0
1FE0
1FE0
1FE0
1FE0
1FE0
1FE0
1FE0
1FE0
1FE0
1FE0
1FE0
1FE0
1FE0
7FF0
FFFC
FFFC
ENDCHAR
STARTCHAR itilde
ENCODING 297
SWIDTH 324 0
DWIDTH 13 0
BBX 15 29 -1 0
BITMAP
1F0E
3FDE
7FFC
7FFC
E3F8
C0F0
0000
0000
0000
0070
07F0
3FF0
3FF0
1FF0
0FF0
0FF0
0FF0
0FF0
0FF0
0FF0
0FF0
0FF0
0FF0
0FF0
0FF0
0FF0
0FF0
3FF8
3FF8
ENDCHAR
STARTCHAR Imacron
ENCODING 298
SWIDTH 395 0
DWIDTH 16 0
BBX 14 33 1 0
BITMAP
FFFC
FFFC
FFFC
FFFC
0000
0000
0000
FFFC
FFFC
3FF0
1FE0
1FE0
1FE0
1FE0
1FE0
1FE0
1FE0
1FE0
1FE0
1FE0
1FE0
1FE0
1FE0
1FE0
1FE0
1FE0
1FE0
1FE0
1FE0
1FE0
7FF0
FFFC
FFFC
ENDCHAR
STARTCHAR imacron
ENCODING 299
SWIDTH 324 0
DWIDTH 13 0
BBX 13 27 0 0
BITMAP
FFF8
FFF8
FFF8
FFF8
0000
0000
0000
00E0
0FE0
7FE0
7FE0
3FE0
1FE0
1FE0
1FE0
1FE0
1FE0
1FE0
1FE0
1FE0
1FE0
1FE0
1FE0
1FE0
1FE0
7FF0
7FF0
ENDCHAR
STARTCHAR Iogonek
ENCODING 302
SWIDTH 395 0
DWIDTH 16 0
BBX 15 35 1 -9
BITMAP
FFFC
FFFC
3FF0
1FE0
1FE0
1FE0
1FE0
1FE0
1FE0
1FE0
1FE0
1FE0
1FE0
1FE0
1FE0
1FE0
1FE0
1FE0
1FE0
1FE0
1FE0
1FE0
1FE0
7FF0
FFFC
FFFC
00C0
0380
0780
0780
0FC0
0FFC
07FE
07FC
03F8
ENDCHAR
STARTCHAR iogonek
ENCODING 303
SWIDTH 324 0
DWIDTH 13 0
BBX 12 38 1 -9
BITMAP
1F00
3F80
3F80
3F80
3F80
1F00
0400
0000
0000
01C0
1FC0
FFC0
FFC0
7FC0
3FC0
3FC0
3FC0
3FC0
3FC0
3FC0
3FC0
3FC0
3FC0
3FC0
3FC0
3FC0
3FC0
FFE0
FFE0
0700
0E00
1E00
3E00
3E00
3FF0
3FF0
1FF0
0FC0
ENDCHAR
STARTCHAR Idotaccent
ENCODING 304
SWIDTH 395 0
DWIDTH 16 0
BBX 14 35 1 0
BITMAP
0700
0FC0
1FC0
1FE0
1FE0
0FC0
0780
0000
0000
FFFC
FFFC
3FF0
1FE0
1FE0
1FE0
1FE0
1FE0
1FE0
1FE0
1FE0
1FE0
1FE0
1FE0
1FE0
1FE0
1FE0
1FE0
1FE0
1FE0
1FE0
1FE0
1FE0
7FF0
FFFC
FFFC
ENDCHAR
STARTCHAR dotlessi
ENCODING 305
SWIDTH 324 0
DWIDTH 13 0
BBX 11 20 1 0
BITMAP
01C0
1FC0
FFC0
FFC0
7FC0
3FC0
3FC0
3FC0
3FC0
3FC0
3FC0
3FC0
3FC0
3FC0
3FC0
3FC0
3FC0
3FC0
FFE0
FFE0
ENDCHAR
STARTCHAR Jcircumflex
ENCODING 308
SWIDTH 404 0
DWIDTH 16 0
BBX 20 42 -4 -7
BITMAP
003C00
007E00
00FF00
01FF80
03FFC0
07C3E0
0F00F0
040020
000000
07FFE0
07FFE0
01FF80
00FF00
00FF00
00FF00
00FF00
00FF00
00FF00
00FF00
00FF00
00FF00
00FF00
00FF00
00FF00
007F00
007F00
007F00
007F00
007F00
007F00
007F00
007F00
007F00
007E00
007E00
007E00
78FC00
FCFC00
FEF800
FFF000
7FE000
3F8000
ENDCHAR
STARTCHAR jcircumflex
ENCODING 309
SWIDTH 320 0
DWIDTH 13 0
BBX 19 39 -5 -9
BITMAP
007C00
00FC00
00FE00
01FF00
03EF80
07C7C0
0F01E0
0600C0
000000
000000
000700
007F00
03FE00
03FE00
01FE00
00FE00
00FE00
00FE00
00FE00
00FE00
00FE00
00FE00
00FE00
00FE00
00FE00
00FE00
00FE00
00FE00
00FE00
00FE00
00FE00
00FE00
00FE00
7CFE00
FEFC00
FEFC00
FFF800
7FE000
3FC000
ENDCHAR
STARTCHAR uni0136
ENCODING 310
SWIDTH 708 0
DWIDTH 28 0
BBX 27 37 1 -11
BITMAP
FFF8FFC0
FFF8FFC0
3FE07F00
1FE03800
1FC07000
1FC07000
1FC0E000
1FC1C000
1FC38000
1FC7C000
1FC7C000
1FCFE000
1FDFE000
1FFFF000
1FFFF000
1FE7F800
1FC7F800
1FC3FC00
1FC3FC00
1FC1FE00
1FC1FE00
1FC1FF00
1FE0FF00
7FE0FFC0
FFF9FFE0
FFF9FFE0
00000000
00000000
000F0000
001F8000
001F8000
001F8000
001F8000
000F0000
000F0000
003C0000
00100000
ENDCHAR
STARTCHAR uni0137
ENCODING 311
SWIDTH 619 0
DWIDTH 25 0
BBX 24 40 1 -11
BITMAP
01C000
3FC000
FFC000
FFC000
3FC000
3FC000
3FC000
3FC000
3FC000
3FC000
3FC7FE
3FC7FC
3FC1C0
3FC380
3FC700
3FCF00
3FDF80
3FFF80
3FFFC0
3FFFC0
3FDFE0
3FDFE0
3FCFE0
3FCFF0
3FC7F0
3FC7F8
3FC7FC
FFE3FF
FFE3FF
000000
000000
003C00
007E00
007E00
007E00
007E00
003E00
003C00
007800
006000
ENDCHAR
STARTCHAR kgreenlandic
ENCODING 312
SWIDTH 615 0
DWIDTH 25 0
BBX 24 20 1 0
BITMAP
01C000
1FC7FC
FF83FC
FF81C0
7F8380
3F8700
3F8F00
3F9F80
3FBF80
3FFF80
3FFFC0
3F9FC0
3F9FE0
3F8FE0
3F8FF0
3F8FF0
3F87F8
3F87FC
FFE3FF
FFE3FF
ENDCHAR
STARTCHAR Lacute
ENCODING 313
SWIDTH 574 0
DWIDTH 23 0
BBX 22 35 1 0
BITMAP
000F00
001F80
003F80
007F00
00FE00
01F800
01C000
010000
000000
FFFC00
FFFC00
3FF000
1FE000
1FE000
1FE000
1FE000
1FE000
1FE000
1FE000
1FE000
1FE000
1FE000
1FE000
1FE000
1FE000
1FE000
1FE000
1FE03C
1FE03C
1FE038
1FE078
1FE078
7FE078
FFFFF8
FFFFF8
ENDCHAR
STARTCHAR lacute
ENCODING 314
SWIDTH 334 0
DWIDTH 13 0
BBX 14 36 1 0
BITMAP
0078
00FC
01FC
03F8
07F0
1FC0
0E00
09C0
3FC0
FFC0
FFC0
3FC0
3FC0
3FC0
3FC0
3FC0
3FC0
3FC0
3FC0
3FC0
3FC0
3FC0
3FC0
3FC0
3FC0
3FC0
3FC0
3FC0
3FC0
3FC0
3FC0
3FC0
3FC0
3FC0
FFE0
FFE0
ENDCHAR
STARTCHAR uni013B
ENCODING 315
SWIDTH 574 0
DWIDTH 23 0
BBX 22 37 1 -11
BITMAP
FFFC00
FFFC00
3FF000
1FE000
1FE000
1FE000
1FE000
1FE000
1FE000
1FE000
1FE000
1FE000
1FE000
1FE000
1FE000
1FE000
1FE000
1FE000
1FE03C
1FE03C
1FE038
1FE078
1FE078
7FE078
FFFFF8
FFFFF8
000000
000000
007800
00FC00
00FC00
00FC00
00FC00
007C00
007800
01E000
00C000
ENDCHAR
STARTCHAR uni013C
ENCODING 316
SWIDTH 334 0
DWIDTH 13 0
BBX 11 40 1 -11
BITMAP
01C0
3FC0
FFC0
FFC0
3FC0
3FC0
3FC0
3FC0
3FC0
3FC0
3FC0
3FC0
3FC0
3FC0
3FC0
3FC0
3FC0
3FC0
3FC0
3FC0
3FC0
3FC0
3FC0
3FC0
3FC0
3FC0
3FC0
FFE0
FFE0
0000
0000
0E00
1F80
3F80
3F80
1F80
0F00
0E00
3C00
3000
ENDCHAR
STARTCHAR Lcaron
ENCODING 317
SWIDTH 574 0
DWIDTH 23 0
BBX 22 28 1 0
BITMAP
000078
00007C
FFFC7C
FFFC78
3FF078
1FE078
1FE070
1FE070
1FE000
1FE000
1FE000
1FE000
1FE000
1FE000
1FE000
1FE000
1FE000
1FE000
1FE000
1FE000
1FE03C
1FE03C
1FE038
1FE078
1FE078
7FE078
FFFFF8
FFFFF8
ENDCHAR
STARTCHAR lcaron
ENCODING 318
SWIDTH 334 0
DWIDTH 13 0
BBX 16 29 1 0
BITMAP
01CF
3FCF
FFCF
FFCF
3FCF
3FCE
3FCE
3FCC
3FC0
3FC0
3FC0
3FC0
3FC0
3FC0
3FC0
3FC0
3FC0
3FC0
3FC0
3FC0
3FC0
3FC0
3FC0
3FC0
3FC0
3FC0
3FC0
FFE0
FFE0
ENDCHAR
STARTCHAR Ldot
ENCODING 319
SWIDTH 574 0
DWIDTH 23 0
BBX 22 26 1 0
BITMAP
FFFC00
FFFC00
3FF000
1FE000
1FE000
1FE000
1FE000
1FE0F0
1FE1F8
1FE1FC
1FE3FC
1FE3FC
1FE1FC
1FE1F8
1FE060
1FE000
1FE000
1FE000
1FE03C
1FE03C
1FE038
1FE078
1FE078
7FE078
FFFFF8
FFFFF8
ENDCHAR
STARTCHAR ldot
ENCODING 320
SWIDTH 432 0
DWIDTH 17 0
BBX 18 29 1 0
BITMAP
01C000
3FC000
FFC000
FFC000
3FC000
3FC000
3FC000
3FC000
3FC000
3FC000
3FC000
3FCF80
3FDFC0
3FDFC0
3FFFC0
3FDFC0
3FDFC0
3FCF80
3FC200
3FC000
3FC000
3FC000
3FC000
3FC000
3FC000
3FC000
3FC000
FFE000
FFE000
ENDCHAR
STARTCHAR Lslash
ENCODING 321
SWIDTH 574 0
DWIDTH 23 0
BBX 22 26 1 0
BITMAP
FFFC00
FFFC00
3FF000
1FE000
1FE000
1FE000
1FE000
1FE200
1FE600
1FFE00
1FFE00
1FF800
1FE000
3FE000
7FE000
FFE000
FFE000
9FE000
1FE03C
1FE03C
1FE038
1FE078
1FE078
7FE078
FFFFF8
FFFFF8
ENDCHAR
STARTCHAR lslash
ENCODING 322
SWIDTH 334 0
DWIDTH 13 0
BBX 12 29 1 0
BITMAP
01C0
3FC0
FFC0
FFC0
3FC0
3FC0
3FC0
3FC0
3FC0
3FC0
3FF0
3FF0
3FF0
3FE0
3FC0
7FC0
FFC0
FFC0
BFC0
BFC0
3FC0
3FC0
3FC0
3FC0
3FC0
3FC0
3FC0
FFE0
FFE0
ENDCHAR
STARTCHAR Nacute
ENCODING 323
SWIDTH 725 0
DWIDTH 29 0
BBX 27 35 1 0
BITMAP
0000F000
0001F800
0003F800
0007F000
000FE000
003F8000
001C0000
00100000
00000000
FFE0FFE0
FFE0FFE0
3FF03FC0
1FF80700
1FFC0700
1FFC0700
1FFE0700
1FFF0700
1DFF0700
1CFF8700
1CFFC700
1C7FE700
1C3FE700
1C3FF700
1C1FFF00
1C0FFF00
1C07FF00
1C07FF00
1C03FF00
1C01FF00
1C01FF00
1C00FF00
1C007F00
7FC03F00
FFE03F00
FFE01F00
ENDCHAR
STARTCHAR nacute
ENCODING 324
SWIDTH 620 0
DWIDTH 25 0
BBX 23 31 1 0
BITMAP
0001E0
0003F0
0003F0
0007E0
000FC0
000F80
001F00
001C00
000800
000000
000000
038FC0
1F9FF0
FFBFF0
FFFFF8
7FE7F8
3F87F8
3F83F8
3F83F8
3F83F8
3F83F8
3F83F8
3F83F8
3F83F8
3F83F8
3F83F8
3F83F8
3F83F8
3F83F8
FFEFFE
FFEFFE
ENDCHAR
STARTCHAR uni0145
ENCODING 325
SWIDTH 725 0
DWIDTH 29 0
BBX 27 37 1 -11
BITMAP
FFE0FFE0
FFE0FFE0
3FF03FC0
1FF80700
1FFC0700
1FFC0700
1FFE0700
1FFF0700
1DFF0700
1CFF8700
1CFFC700
1C7FE700
1C3FE700
1C3FF700
1C1FFF00
1C0FFF00
1C07FF00
1C07FF00
1C03FF00
1C01FF00
1C01FF00
1C00FF00
1C007F00
7FC03F00
FFE03F00
FFE01F00
00000000
00000000
000F0000
001F8000
001F8000
001F8000
001F8000
000F8000
000F0000
001E0000
00180000
ENDCHAR
STARTCHAR uni0146
ENCODING 326
SWIDTH 620 0
DWIDTH 25 0
BBX 23 31 1 -11
BITMAP
038FC0
1F9FF0
FFBFF0
FFFFF8
7FE7F8
3F87F8
3F83F8
3F83F8
3F83F8
3F83F8
3F83F8
3F83F8
3F83F8
3F83F8
3F83F8
3F83F8
3F83F8
3F83F8
FFEFFE
FFEFFE
000000
000000
003800
00FC00
00FC00
00FE00
00FC00
007C00
007800
00F000
00C000
ENDCHAR
STARTCHAR Ncaron
ENCODING 327
SWIDTH 725 0
DWIDTH 29 0
BBX 27 36 1 0
BITMAP
01001000
03C07800
01E0F000
00FBE000
00FFE000
007FC000
003F8000
001F0000
00000000
00000000
FFE0FFE0
FFE0FFE0
3FF03FC0
1FF80700
1FFC0700
1FFC0700
1FFE0700
1FFF0700
1DFF0700
1CFF8700
1CFFC700
1C7FE700
1C3FE700
1C3FF700
1C1FFF00
1C0FFF00
1C07FF00
1C07FF00
1C03FF00
1C01FF00
1C01FF00
1C00FF00
1C007F00
7FC03F00
FFE03F00
FFE01F00
ENDCHAR
STARTCHAR ncaron
ENCODING 328
SWIDTH 620 0
DWIDTH 25 0
BBX 23 31 1 0
BITMAP
0300C0
0781E0
03C3C0
01F7C0
00FF80
00FF00
007E00
003E00
000000
000000
000000
038FC0
1F9FF0
FFBFF0
FFFFF8
7FE7F8
3F87F8
3F83F8
3F83F8
3F83F8
3F83F8
3F83F8
3F83F8
3F83F8
3F83F8
3F83F8
3F83F8
3F83F8
3F83F8
FFEFFE
FFEFFE
ENDCHAR
STARTCHAR napostrophe
ENCODING 329
SWIDTH 820 0
DWIDTH 33 0
BBX 31 29 1 0
BITMAP
78000000
FC000000
FE000000
FE000000
FE000000
7E000000
3E000000
1C000000
3C000000
78038FC0
F01F9FF0
C0FFBFF0
00FFFFF8
007FE7F8
003F87F8
003F83F8
003F83F8
003F83F8
003F83F8
003F83F8
003F83F8
003F83F8
003F83F8
003F83F8
003F83F8
003F83F8
003F83F8
00FFEFFE
00FFEFFE
ENDCHAR
STARTCHAR Omacron
ENCODING 332
SWIDTH 700 0
DWIDTH 28 0
BBX 26 34 1 -1
BITMAP
03FFF000
03FFF000
03FFF000
03FFF000
00000000
00000000
003F0000
01FFE000
07FFF800
0FE1FC00
1FC0FE00
3F807F00
3F807F00
7F807F80
7F807F80
7F807F80
FF003FC0
FF003FC0
FF003FC0
FF003FC0
FF003FC0
FF003FC0
FF003FC0
FF003FC0
7F807F80
7F807F80
7F807F80
3F807F00
3F80FF00
1FC0FE00
0FE1FC00
07FFF800
01FFE000
003F0000
ENDCHAR
STARTCHAR omacron
ENCODING 333
SWIDTH 572 0
DWIDTH 23 0
BBX 21 28 1 -1
BITMAP
0FFF80
0FFF80
0FFF80
0FFF80
000000
000000
000000
01FC00
0FFF00
1F9FC0
3F8FE0
7F07E0
7F07F0
FF07F0
FF07F8
FF07F8
FF07F8
FF07F8
FF07F8
FF07F8
FF07F8
7F07F0
7F07F0
3F0FE0
3F8FC0
1FFF80
07FF00
007000
ENDCHAR
STARTCHAR uni014E
ENCODING 334
SWIDTH 700 0
DWIDTH 28 0
BBX 26 35 1 -1
BITMAP
03807000
03C0F000
01FFE000
01FFE000
00FFC000
003F0000
00000000
003F0000
01FFE000
07FFF800
0FE1FC00
1FC0FE00
3F807F00
3F807F00
7F807F80
7F807F80
7F807F80
FF003FC0
FF003FC0
FF003FC0
FF003FC0
FF003FC0
FF003FC0
FF003FC0
FF003FC0
7F807F80
7F807F80
7F807F80
3F807F00
3F80FF00
1FC0FE00
0FE1FC00
07FFF800
01FFE000
003F0000
ENDCHAR
STARTCHAR uni014F
ENCODING 335
SWIDTH 572 0
DWIDTH 23 0
BBX 21 31 1 -1
BITMAP
020200
0E0380
0E0380
0F8F80
07FF00
07FE00
01FC00
000000
000000
000000
01FC00
0FFF00
1F9FC0
3F8FE0
7F07E0
7F07F0
FF07F0
FF07F8
FF07F8
FF07F8
FF07F8
FF07F8
FF07F8
FF07F8
7F07F0
7F07F0
3F0FE0
3F8FC0
1FFF80
07FF00
007000
ENDCHAR
STARTCHAR Ohungarumlaut
ENCODING 336
SWIDTH 700 0
DWIDTH 28 0
BBX 26 37 1 -1
BITMAP
001C7000
003E7800
003CF800
007CF000
0079E000
0071E000
00E1C000
00C38000
00000000
003F0000
01FFE000
07FFF800
0FE1FC00
1FC0FE00
3F807F00
3F807F00
7F807F80
7F807F80
7F807F80
FF003FC0
FF003FC0
FF003FC0
FF003FC0
FF003FC0
FF003FC0
FF003FC0
FF003FC0
7F807F80
7F807F80
7F807F80
3F807F00
3F80FF00
1FC0FE00
0FE1FC00
07FFF800
01FFE000
003F0000
ENDCHAR
STARTCHAR ohungarumlaut
ENCODING 337
SWIDTH 572 0
DWIDTH 23 0
BBX 21 33 1 -1
BITMAP
0038E0
0079E0
00FBE0
00FBE0
00F3C0
01F7C0
01E780
01C700
038E00
018600
000000
000000
01FC00
0FFF00
1F9FC0
3F8FE0
7F07E0
7F07F0
FF07F0
FF07F8
FF07F8
FF07F8
FF07F8
FF07F8
FF07F8
FF07F8
7F07F0
7F07F0
3F0FE0
3F8FC0
1FFF80
07FF00
007000
ENDCHAR
STARTCHAR OE
ENCODING 338
SWIDTH 927 0
DWIDTH 37 0
BBX 35 28 1 -1
BITMAP
001FE00000
00FFFFFFC0
03FFFFFFC0
0FF0FF03C0
1FE0FF03C0
3FC0FF03C0
3FC0FF01C0
7F80FF01C0
7F80FF0000
7F80FF0E00
FF80FF0E00
FF00FF0E00
FF00FFFE00
FF00FFFE00
FF00FFFE00
FF00FF0E00
FF00FF0E00
FF80FF0E00
7F80FF0000
7F80FF0000
7F80FF01E0
3FC0FF01E0
1FC0FF01E0
1FE0FF01E0
0FF0FF01E0
03FFFFFFE0
00FFFFFFE0
001FC00000
ENDCHAR
STARTCHAR oe
ENCODING 339
SWIDTH 854 0
DWIDTH 34 0
BBX 32 21 1 -1
BITMAP
01FC0FE0
0FFF3FF8
1F9FFCFC
3F8FFC7E
7F07F87F
7F07F87F
FF07F87F
FF07F87F
FF07FFFF
FF07FFFF
FF07FFFF
FF07F800
FF07F800
FF07FC00
7F07FC02
7F07FE07
3F0FFFFF
3F8FFFFE
1FFFFFFC
07FE1FF8
007003C0
ENDCHAR
STARTCHAR Racute
ENCODING 340
SWIDTH 696 0
DWIDTH 28 0
BBX 27 36 1 -1
BITMAP
0001E000
0003F000
0007F000
000FE000
001FC000
007F0000
00380000
00200000
00000000
FFFFE000
FFFFF800
3FEFFC00
1FE1FE00
1FE0FE00
1FE0FF00
1FE0FF00
1FE0FF00
1FE0FE00
1FE0FE00
1FE1FC00
1FE7F000
1FFF8000
1FFFF000
1FE3FC00
1FE3FC00
1FE1FE00
1FE1FE00
1FE1FE00
1FE1FE00
1FE1FF00
1FE1FF00
1FE1FF00
7FF0FFC0
FFFCFFE0
FFFC7FE0
00000F00
ENDCHAR
STARTCHAR racute
ENCODING 341
SWIDTH 483 0
DWIDTH 19 0
BBX 18 31 1 0
BITMAP
000780
000F80
001F80
001F80
003F00
007E00
007C00
00F000
006000
000000
000000
038780
1F9FC0
FFBFC0
FFBFC0
7FBFC0
3FE7C0
3FC380
3FC000
3FC000
3F8000
3F8000
3F8000
3F8000
3F8000
3F8000
3F8000
3F8000
3FE000
FFF800
FFF800
ENDCHAR
STARTCHAR uni0156
ENCODING 342
SWIDTH 696 0
DWIDTH 28 0
BBX 27 37 1 -11
BITMAP
FFFFE000
FFFFF800
3FEFFC00
1FE1FE00
1FE0FE00
1FE0FF00
1FE0FF00
1FE0FF00
1FE0FE00
1FE0FE00
1FE1FC00
1FE7F000
1FFF8000
1FFFF000
1FE3FC00
1FE3FC00
1FE1FE00
1FE1FE00
1FE1FE00
1FE1FE00
1FE1FF00
1FE1FF00
1FE1FF00
7FF0FFC0
FFFCFFE0
FFFC7FE0
00000F00
00000000
000E0000
001F8000
003F8000
003F8000
001F8000
000F0000
000E0000
003C0000
00300000
ENDCHAR
STARTCHAR uni0157
ENCODING 343
SWIDTH 483 0
DWIDTH 19 0
BBX 18 31 1 -11
BITMAP
038780
1F9FC0
FFBFC0
FFBFC0
7FBFC0
3FE7C0
3FC380
3FC000
3FC000
3F8000
3F8000
3F8000
3F8000
3F8000
3F8000
3F8000
3F8000
3FE000
FFF800
FFF800
000000
000000
0E0000
1F8000
3F8000
3F8000
1F8000
0F0000
0E0000
3C0000
300000
ENDCHAR
STARTCHAR Rcaron
ENCODING 344
SWIDTH 696 0
DWIDTH 28 0
BBX 27 37 1 -1
BITMAP
02002000
0780F000
03C1E000
01F7C000
00FFC000
00FF8000
007F0000
003E0000
00000000
00000000
FFFFE000
FFFFF800
3FEFFC00
1FE1FE00
1FE0FE00
1FE0FF00
1FE0FF00
1FE0FF00
1FE0FE00
1FE0FE00
1FE1FC00
1FE7F000
1FFF8000
1FFFF000
1FE3FC00
1FE3FC00
1FE1FE00
1FE1FE00
1FE1FE00
1FE1FE00
1FE1FF00
1FE1FF00
1FE1FF00
7FF0FFC0
FFFCFFE0
FFFC7FE0
00000F00
ENDCHAR
STARTCHAR rcaron
ENCODING 345
SWIDTH 483 0
DWIDTH 19 0
BBX 18 31 1 0
BITMAP
0C0300
1E0780
0F0F00
07BE00
07FC00
03FC00
01F800
01F000
000000
000000
000000
038780
1F9FC0
FFBFC0
FFBFC0
7FBFC0
3FE7C0
3FC380
3FC000
3FC000
3F8000
3F8000
3F8000
3F8000
3F8000
3F8000
3F8000
3F8000
3FE000
FFF800
FFF800
ENDCHAR
STARTCHAR Sacute
ENCODING 346
SWIDTH 553 0
DWIDTH 22 0
BBX 20 36 1 -1
BITMAP
0003C0
0007C0
000FC0
003FC0
007F80
00FE00
007000
004000
01FE00
07FFC0
1FFFE0
3F83E0
7F03E0
7F03E0
7F03E0
7F03E0
7F8000
7FC000
7FF000
7FFC00
3FFF00
1FFF80
0FFFC0
07FFE0
01FFF0
007FF0
001FF0
000FF0
F807F0
F807F0
F807F0
F807E0
F80FC0
FFFF80
3FFF00
07F800
ENDCHAR
STARTCHAR sacute
ENCODING 347
SWIDTH 463 0
DWIDTH 19 0
BBX 17 32 1 -1
BITMAP
000E00
001F00
003F00
007F00
007E00
00FC00
00F000
01E000
008000
000000
000000
07F800
1FFF00
3E1F00
7C1F00
FC1E00
FE0E00
FF8000
FFF000
FFFC00
7FFE00
7FFF00
3FFF80
0FFF80
01FF80
F07F80
F03F80
F03F00
F03F00
FFFE00
7FF800
038000
ENDCHAR
STARTCHAR Scircumflex
ENCODING 348
SWIDTH 553 0
DWIDTH 22 0
BBX 20 36 1 -1
BITMAP
00F800
01FC00
03FE00
07FF00
0FDF80
0F87C0
1E03E0
0800C0
01FE00
07FFC0
1FFFE0
3F83E0
7F03E0
7F03E0
7F03E0
7F03E0
7F8000
7FC000
7FF000
7FFC00
3FFF00
1FFF80
0FFFC0
07FFE0
01FFF0
007FF0
001FF0
000FF0
F807F0
F807F0
F807F0
F807E0
F80FC0
FFFF80
3FFF00
07F800
ENDCHAR
STARTCHAR scircumflex
ENCODING 349
SWIDTH 463 0
DWIDTH 19 0
BBX 17 31 1 -1
BITMAP
01E000
03F000
07F800
0FF800
0FFC00
1E1E00
3C0F00
100600
000000
000000
07F800
1FFF00
3E1F00
7C1F00
FC1E00
FE0E00
FF8000
FFF000
FFFC00
7FFE00
7FFF00
3FFF80
0FFF80
01FF80
F07F80
F03F80
F03F00
F03F00
FFFE00
7FF800
038000
ENDCHAR
STARTCHAR uni015E
ENCODING 350
SWIDTH 553 0
DWIDTH 22 0
BBX 20 36 1 -9
BITMAP
01FE00
07FFC0
1FFFE0
3F83E0
7F03E0
7F03E0
7F03E0
7F03E0
7F8000
7FC000
7FF000
7FFC00
3FFF00
1FFF80
0FFFC0
07FFE0
01FFF0
007FF0
001FF0
000FF0
F807F0
F807F0
F807F0
F807E0
F80FC0
FFFF80
3FFF00
07F800
006000
007800
007E00
001E00
001F00
013E00
01FE00
03F800
ENDCHAR
STARTCHAR uni015F
ENCODING 351
SWIDTH 463 0
DWIDTH 19 0
BBX 17 29 1 -9
BITMAP
07F800
1FFF00
3E1F00
7C1F00
FC1E00
FE0E00
FF8000
FFF000
FFFC00
7FFE00
7FFF00
3FFF80
0FFF80
01FF80
F07F80
F03F80
F03F00
F03F00
FFFE00
7FF800
038000
018000
01E000
01F800
007800
007800
08F800
0FF800
0FE000
ENDCHAR
STARTCHAR Scaron
ENCODING 352
SWIDTH 553 0
DWIDTH 22 0
BBX 20 37 1 -1
BITMAP
040040
0E01E0
0F83C0
07CF80
03FF00
01FE00
00FE00
007C00
000000
01FE00
07FFC0
1FFFE0
3F83E0
7F03E0
7F03E0
7F03E0
7F03E0
7F8000
7FC000
7FF000
7FFC00
3FFF00
1FFF80
0FFFC0
07FFE0
01FFF0
007FF0
001FF0
000FF0
F807F0
F807F0
F807F0
F807E0
F80FC0
FFFF80
3FFF00
07F800
ENDCHAR
STARTCHAR scaron
ENCODING 353
SWIDTH 463 0
DWIDTH 19 0
BBX 17 32 1 -1
BITMAP
100600
3C0E00
1E3E00
1F7C00
0FF800
07F800
07F000
03E000
000000
000000
000000
07F800
1FFF00
3E1F00
7C1F00
FC1E00
FE0E00
FF8000
FFF000
FFFC00
7FFE00
7FFF00
3FFF80
0FFF80
01FF80
F07F80
F03F80
F03F00
F03F00
FFFE00
7FF800
038000
ENDCHAR
STARTCHAR uni0162
ENCODING 354
SWIDTH 646 0
DWIDTH 26 0
BBX 24 35 1 -9
BITMAP
FFFFFF
FFFFFF
F0FF0F
F0FF0F
F0FF0F
F0FF0F
F0FF0F
00FF00
00FF00
00FF00
00FF00
00FF00
00FF00
00FF00
00FF00
00FF00
00FF00
00FF00
00FF00
00FF00
00FF00
00FF00
00FF00
03FFC0
07FFE0
07FFE0
001800
001800
003E00
003F00
000F80
000780
008F80
00FF00
00FE00
ENDCHAR
STARTCHAR uni0163
ENCODING 355
SWIDTH 372 0
DWIDTH 15 0
BBX 15 34 0 -9
BITMAP
07C0
07C0
0FC0
0FC0
0FC0
1FC0
FFFC
FFFC
FFFC
1FC0
1FC0
1FC0
1FC0
1FC0
1FC0
1FC0
1FC0
1FC0
1FC0
1FC0
1FE0
1FE2
1FFE
0FFC
07F8
01C0
0180
01E0
01F8
0078
0078
08F8
0FF8
0FE0
ENDCHAR
STARTCHAR Tcaron
ENCODING 356
SWIDTH 646 0
DWIDTH 26 0
BBX 24 36 1 0
BITMAP
020040
0700E0
07C3E0
03E7C0
01FF80
00FF00
007E00
003C00
000000
000000
FFFFFF
FFFFFF
F0FF0F
F0FF0F
F0FF0F
F0FF0F
F0FF0F
00FF00
00FF00
00FF00
00FF00
00FF00
00FF00
00FF00
00FF00
00FF00
00FF00
00FF00
00FF00
00FF00
00FF00
00FF00
00FF00
03FFC0
07FFE0
07FFE0
ENDCHAR
STARTCHAR tcaron
ENCODING 357
SWIDTH 372 0
DWIDTH 15 0
BBX 17 31 0 -1
BITMAP
000300
000780
000780
000780
000780
07CF00
07CF00
0FCE00
0FCE00
0FC000
1FC000
FFFC00
FFFC00
FFFC00
1FC000
1FC000
1FC000
1FC000
1FC000
1FC000
1FC000
1FC000
1FC000
1FC000
1FC000
1FE000
1FE200
1FFE00
0FFC00
07F800
00C000
ENDCHAR
STARTCHAR Utilde
ENCODING 360
SWIDTH 732 0
DWIDTH 29 0
BBX 27 35 1 -1
BITMAP
001F0600
003FDE00
007FFE00
007FFC00
00F3F800
00E0F000
00000000
00000000
FFFC3FE0
FFFC3FE0
3FF00700
1FE00700
1FE00700
1FE00700
1FE00700
1FE00700
1FE00700
1FE00700
1FE00700
1FE00700
1FE00700
1FE00700
1FE00700
1FE00700
1FE00700
1FE00700
1FE00700
1FE00700
1FF00E00
0FF01E00
0FFC3C00
07FFFC00
03FFF800
01FFE000
003F0000
ENDCHAR
STARTCHAR utilde
ENCODING 361
SWIDTH 617 0
DWIDTH 25 0
BBX 23 30 1 -1
BITMAP
01F060
03FDE0
07FFE0
07FFC0
0F3F80
0E0F00
000000
000000
000000
038038
FF87F8
FF8FF8
7F87F8
3F83F8
3F83F8
3F83F8
3F83F8
3F83F8
3F83F8
3F83F8
3F83F8
3F83F8
3F83F8
3F83F8
3FC7F8
3FFFF8
3FFFF8
1FFBFE
0FE3FE
018000
ENDCHAR
STARTCHAR Umacron
ENCODING 362
SWIDTH 732 0
DWIDTH 29 0
BBX 27 34 1 -1
BITMAP
007FFC00
007FFC00
007FFC00
007FFC00
00000000
00000000
00000000
FFFC3FE0
FFFC3FE0
3FF00700
1FE00700
1FE00700
1FE00700
1FE00700
1FE00700
1FE00700
1FE00700
1FE00700
1FE00700
1FE00700
1FE00700
1FE00700
1FE00700
1FE00700
1FE00700
1FE00700
1FE00700
1FF00E00
0FF01E00
0FFC3C00
07FFFC00
03FFF800
01FFE000
003F0000
ENDCHAR
STARTCHAR umacron
ENCODING 363
SWIDTH 617 0
DWIDTH 25 0
BBX 23 28 1 -1
BITMAP
07FFE0
07FFE0
07FFE0
07FFE0
000000
000000
000000
038038
FF87F8
FF8FF8
7F87F8
3F83F8
3F83F8
3F83F8
3F83F8
3F83F8
3F83F8
3F83F8
3F83F8
3F83F8
3F83F8
3F83F8
3FC7F8
3FFFF8
3FFFF8
1FFBFE
0FE3FE
018000
ENDCHAR
STARTCHAR Ubreve
ENCODING 364
SWIDTH 732 0
DWIDTH 29 0
BBX 27 35 1 -1
BITMAP
00600E00
00701C00
007EFC00
003FF800
001FF000
000FE000
00000000
00000000
FFFC3FE0
FFFC3FE0
3FF00700
1FE00700
1FE00700
1FE00700
1FE00700
1FE00700
1FE00700
1FE00700
1FE00700
1FE00700
1FE00700
1FE00700
1FE00700
1FE00700
1FE00700
1FE00700
1FE00700
1FE00700
1FF00E00
0FF01E00
0FFC3C00
07FFFC00
03FFF800
01FFE000
003F0000
ENDCHAR
STARTCHAR ubreve
ENCODING 365
SWIDTH 617 0
DWIDTH 25 0
BBX 23 31 1 -1
BITMAP
010080
0700C0
0781C0
03C3C0
03FF80
01FF80
00FF00
000000
000000
000000
038038
FF87F8
FF8FF8
7F87F8
3F83F8
3F83F8
3F83F8
3F83F8
3F83F8
3F83F8
3F83F8
3F83F8
3F83F8
3F83F8
3F83F8
3FC7F8
3FFFF8
3FFFF8
1FFBFE
0FE3FE
018000
ENDCHAR
STARTCHAR Uring
ENCODING 366
SWIDTH 732 0
DWIDTH 29 0
BBX 27 37 1 -1
BITMAP
0003C000
0007E000
000E7000
000C3000
000C3000
000C7000
000FE000
0007C000
00000000
00000000
FFFC3FE0
FFFC3FE0
3FF00700
1FE00700
1FE00700
1FE00700
1FE00700
1FE00700
1FE00700
1FE00700
1FE00700
1FE00700
1FE00700
1FE00700
1FE00700
1FE00700
1FE00700
1FE00700
1FE00700
1FE00700
1FF00E00
0FF01E00
0FFC3C00
07FFFC00
03FFF800
01FFE000
003F0000
ENDCHAR
STARTCHAR uring
ENCODING 367
SWIDTH 617 0
DWIDTH 25 0
BBX 23 33 1 -1
BITMAP
003C00
00FE00
01FF00
01C380
018380
018380
01C380
01EF00
00FE00
003C00
000000
000000
038038
FF87F8
FF8FF8
7F87F8
3F83F8
3F83F8
3F83F8
3F83F8
3F83F8
3F83F8
3F83F8
3F83F8
3F83F8
3F83F8
3F83F8
3FC7F8
3FFFF8
3FFFF8
1FFBFE
0FE3FE
018000
ENDCHAR
STARTCHAR Uhungarumlaut
ENCODING 368
SWIDTH 732 0
DWIDTH 29 0
BBX 27 37 1 -1
BITMAP
00038E00
0007CF00
00079F00
000F9E00
000F3C00
000E3C00
001C3800
001C7000
00000000
00000000
FFFC3FE0
FFFC3FE0
3FF00700
1FE00700
1FE00700
1FE00700
1FE00700
1FE00700
1FE00700
1FE00700
1FE00700
1FE00700
1FE00700
1FE00700
1FE00700
1FE00700
1FE00700
1FE00700
1FE00700
1FE00700
1FF00E00
0FF01E00
0FFC3C00
07FFFC00
03FFF800
01FFE000
003F0000
ENDCHAR
STARTCHAR uhungarumlaut
ENCODING 369
SWIDTH 617 0
DWIDTH 25 0
BBX 23 33 1 -1
BITMAP
001C70
003CF0
007DF0
007DF0
0079E0
00F3C0
00F3C0
00E380
01C700
00C200
000000
000000
038038
FF87F8
FF8FF8
7F87F8
3F83F8
3F83F8
3F83F8
3F83F8
3F83F8
3F83F8
3F83F8
3F83F8
3F83F8
3F83F8
3F83F8
3FC7F8
3FFFF8
3FFFF8
1FFBFE
0FE3FE
018000
ENDCHAR
STARTCHAR Uogonek
ENCODING 370
SWIDTH 732 0
DWIDTH 29 0
BBX 27 35 1 -9
BITMAP
FFFC3FE0
FFFC3FE0
3FF00700
1FE00700
1FE00700
1FE00700
1FE00700
1FE00700
1FE00700
1FE00700
1FE00700
1FE00700
1FE00700
1FE00700
1FE00700
1FE00700
1FE00700
1FE00700
1FE00700
1FE00700
1FF00E00
0FF01E00
0FFC3C00
07FFFC00
03FFF800
01FFE000
003FC000
00038000
00078000
000F8000
000F8000
000FFC00
000FFC00
0007FE00
0003F000
ENDCHAR
STARTCHAR uogonek
ENCODING 371
SWIDTH 617 0
DWIDTH 25 0
BBX 24 29 1 -9
BITMAP
038038
FF87F8
FF8FF8
7F87F8
3F83F8
3F83F8
3F83F8
3F83F8
3F83F8
3F83F8
3F83F8
3F83F8
3F83F8
3F83F8
3F83F8
3FC7F8
3FFFF8
3FFFF8
1FFBFE
0FE3FE
018060
0001C0
0003C0
0003C0
0007E0
0007FE
0003FF
0003FE
0001FC
ENDCHAR
STARTCHAR Wcircumflex
ENCODING 372
SWIDTH 989 0
DWIDTH 40 0
BBX 40 35 0 0
BITMAP
00001F0000
00001F8000
00003FC000
00007FE000
0000FFF000
0001F0F800
0003C03C00
0001000800
0000000000
FFF8FFF9FF
FFF8FFF9FF
3FE03FE07C
1FE03FC030
1FE03FC070
1FE03FC070
0FF03FC060
0FF07FE0E0
0FF07FE0E0
0FF06FE0C0
07F8EFE0C0
07F8EFF1C0
07F8CFF1C0
03F8C7F180
03FDC7F380
03FD87FB80
01FD83FB00
01FF83FB00
01FF83FF00
01FF01FE00
00FF01FE00
00FF01FE00
00FE01FC00
007E00FC00
007E00FC00
007C00F800
ENDCHAR
STARTCHAR wcircumflex
ENCODING 373
SWIDTH 800 0
DWIDTH 32 0
BBX 32 30 0 0
BITMAP
0000F000
0001F800
0003F800
0007FC00
000FBE00
000F1F00
001E0780
00180300
00000000
00000000
00000000
FFEFFE7F
FFC7FC7E
7F83F838
3F83F838
3FC3FC30
1FC7FC70
1FC7FC70
1FC6FE60
0FEEFEE0
0FECFEE0
0FEC7EC0
07FC7FC0
07F87FC0
07F83F80
03F83F80
03F03F80
01F01F00
01F01F00
01E00E00
ENDCHAR
STARTCHAR Ycircumflex
ENCODING 374
SWIDTH 621 0
DWIDTH 25 0
BBX 25 35 0 0
BITMAP
000F8000
001FC000
001FE000
003FF000
007FF800
00F87C00
01E01E00
00800C00
00000000
FFFC7F80
FFFC7F80
3FF03F00
1FE01C00
1FF01800
0FF03800
0FF83000
07F87000
07FC6000
03FCE000
03FEC000
03FFC000
01FF8000
01FF8000
00FF0000
00FF0000
007F0000
007F0000
007F0000
007F0000
007F0000
007F8000
007F8000
01FFE000
07FFF000
07FFF000
ENDCHAR
STARTCHAR ycircumflex
ENCODING 375
SWIDTH 543 0
DWIDTH 22 0
BBX 22 39 0 -9
BITMAP
001E00
003F00
007F80
00FFC0
00FFC0
01E1E0
03C0F0
018060
000000
000000
000000
FFF3FC
FFE3F8
3FC0E0
3FC0C0
1FE1C0
1FE1C0
0FE180
0FF380
07F380
07F300
07FF00
03FE00
03FE00
01FE00
01FC00
00FC00
00F800
00F800
007800
007000
003000
003000
386000
7EE000
FEC000
FFC000
7F8000
3E0000
ENDCHAR
STARTCHAR Ydieresis
ENCODING 376
SWIDTH 621 0
DWIDTH 25 0
BBX 25 34 0 0
BITMAP
00F03C00
01F87E00
01F87E00
01F87E00
01F87E00
00F03C00
00000000
00000000
FFFC7F80
FFFC7F80
3FF03F00
1FE01C00
1FF01800
0FF03800
0FF83000
07F87000
07FC6000
03FCE000
03FEC000
03FFC000
01FF8000
01FF8000
00FF0000
00FF0000
007F0000
007F0000
007F0000
007F0000
007F0000
007F8000
007F8000
01FFE000
07FFF000
07FFF000
ENDCHAR
STARTCHAR Zacute
ENCODING 377
SWIDTH 568 0
DWIDTH 23 0
BBX 21 35 1 0
BITMAP
0001E0
0003E0
0007F0
000FE0
001FC0
007F00
003800
002000
000000
FFFFF8
FFFFF8
F80FF0
F01FF0
F01FE0
F03FE0
F07FC0
007FC0
00FF80
00FF80
01FF00
01FE00
03FE00
03FC00
07FC00
0FF800
0FF800
1FF000
1FF078
3FE078
3FC078
7FC078
7F8078
FF80F8
FFFFF8
FFFFF8
ENDCHAR
STARTCHAR zacute
ENCODING 378
SWIDTH 468 0
DWIDTH 19 0
BBX 17 31 1 0
BITMAP
000F00
001F00
001F80
003F00
007E00
007C00
00F800
00E000
004000
000000
000000
000000
FFFF80
F87F80
F0FF00
F0FF00
F1FE00
F1FE00
03FC00
07F800
07F800
0FF000
0FF000
1FE000
3FE380
3FC780
7FC780
7F8780
FF0780
FFFF80
FFFF80
ENDCHAR
STARTCHAR Zdotaccent
ENCODING 379
SWIDTH 568 0
DWIDTH 23 0
BBX 21 35 1 0
BITMAP
003800
007E00
00FE00
00FE00
00FE00
007E00
003C00
000000
000000
FFFFF8
FFFFF8
F80FF0
F01FF0
F01FE0
F03FE0
F07FC0
007FC0
00FF80
00FF80
01FF00
01FE00
03FE00
03FC00
07FC00
0FF800
0FF800
1FF000
1FF078
3FE078
3FC078
7FC078
7F8078
FF80F8
FFFFF8
FFFFF8
ENDCHAR
STARTCHAR zdotaccent
ENCODING 380
SWIDTH 468 0
DWIDTH 19 0
BBX 17 29 1 0
BITMAP
01F000
03F800
03F800
03F800
03F800
01F000
004000
000000
000000
000000
FFFF80
F87F80
F0FF00
F0FF00
F1FE00
F1FE00
03FC00
07F800
07F800
0FF000
0FF000
1FE000
3FE380
3FC780
7FC780
7F8780
FF0780
FFFF80
FFFF80
ENDCHAR
STARTCHAR Zcaron
ENCODING 381
SWIDTH 568 0
DWIDTH 23 0
BBX 21 36 1 0
BITMAP
040040
0F00E0
0783E0
03E7C0
01FF80
00FF00
00FE00
007C00
000000
000000
FFFFF8
FFFFF8
F80FF0
F01FF0
F01FE0
F03FE0
F07FC0
007FC0
00FF80
00FF80
01FF00
01FE00
03FE00
03FC00
07FC00
0FF800
0FF800
1FF000
1FF078
3FE078
3FC078
7FC078
7F8078
FF80F8
FFFFF8
FFFFF8
ENDCHAR
STARTCHAR zcaron
ENCODING 382
SWIDTH 468 0
DWIDTH 19 0
BBX 17 31 1 0
BITMAP
0C0300
1E0780
0F0F00
079E00
07FE00
03FC00
01F800
01F000
000000
000000
000000
000000
FFFF80
F87F80
F0FF00
F0FF00
F1FE00
F1FE00
03FC00
07F800
07F800
0FF000
0FF000
1FE000
3FE380
3FC780
7FC780
7F8780
FF0780
FFFF80
FFFF80
ENDCHAR
STARTCHAR longs
ENCODING 383
SWIDTH 365 0
DWIDTH 15 0
BBX 18 29 1 0
BITMAP
007F00
01FF80
03FFC0
07CFC0
0FCFC0
1FC780
1FC000
3FC000
3FC000
3FC000
3FC000
3FC000
3FC000
3FC000
3FC000
3FC000
3FC000
3FC000
3FC000
3FC000
3FC000
3FC000
3FC000
3FC000
3FC000
3FC000
3FE000
FFF800
FFF800
ENDCHAR
STARTCHAR uni018F
ENCODING 399
SWIDTH 666 0
DWIDTH 27 0
BBX 25 28 1 -1
BITMAP
00FE0000
03FFC000
0FFFE000
1F0FF800
3803FC00
1001FC00
0001FE00
0000FE00
0000FF00
0000FF00
0000FF00
0000FF00
FFFFFF00
FFFFFF80
FFFFFF80
FF00FF00
FF00FF00
FF00FF00
FF00FF00
7F00FF00
7F00FE00
7F80FE00
3F81FC00
3F81FC00
1FC3F800
0FFFF000
03FFC000
007E0000
ENDCHAR
STARTCHAR uni0192
ENCODING 402
SWIDTH 560 0
DWIDTH 22 0
BBX 22 30 0 -4
BITMAP
000080
000FF8
001FFC
003F7C
003F7C
007E3C
007E18
007E00
007E00
00FE00
07FFE0
07FFE0
07FFE0
00FE00
00FE00
00FE00
00FC00
00FC00
00FC00
00FC00
00FC00
00FC00
01FC00
01FC00
71F800
79F800
F9F000
7FF000
7FE000
3F8000
ENDCHAR
STARTCHAR Ohorn
ENCODING 416
SWIDTH 700 0
DWIDTH 28 0
BBX 26 33 1 -1
BITMAP
000007C0
000007C0
000007C0
000007C0
000003C0
003F0380
01FFE380
07FFFF00
0FE1FE00
1FC0FE00
3F807F00
3F807F00
7F807F80
7F807F80
7F807F80
FF003FC0
FF003FC0
FF003FC0
FF003FC0
FF003FC0
FF003FC0
FF003FC0
FF003FC0
7F807F80
7F807F80
7F807F80
3F807F00
3F80FF00
1FC0FE00
0FE1FC00
07FFF800
01FFE000
003F0000
ENDCHAR
STARTCHAR ohorn
ENCODING 417
SWIDTH 572 0
DWIDTH 23 0
BBX 22 26 1 -1
BITMAP
00007C
00007C
00007C
00007C
00003C
01FC38
0FFF38
1F9FF0
3F8FE0
7F07E0
7F07F0
FF07F0
FF07F8
FF07F8
FF07F8
FF07F8
FF07F8
FF07F8
FF07F8
7F07F0
7F07F0
3F0FE0
3F8FC0
1FFF80
07FF00
007000
ENDCHAR
STARTCHAR Uhorn
ENCODING 431
SWIDTH 732 0
DWIDTH 29 0
BBX 30 34 1 -1
BITMAP
00000038
0000007C
0000007C
0000007C
0000003C
00000038
00000038
FFFC3FF0
FFFC3FE0
3FF00700
1FE00700
1FE00700
1FE00700
1FE00700
1FE00700
1FE00700
1FE00700
1FE00700
1FE00700
1FE00700
1FE00700
1FE00700
1FE00700
1FE00700
1FE00700
1FE00700
1FE00700
1FF00E00
0FF01E00
0FFC3C00
07FFFC00
03FFF800
01FFE000
003F0000
ENDCHAR
STARTCHAR uhorn
ENCODING 432
SWIDTH 617 0
DWIDTH 25 0
BBX 27 26 1 -1
BITMAP
000003E0
000003E0
000003E0
000003E0
000001E0
038039C0
FF87F9C0
FF8FFF80
7F87FF00
3F83FC00
3F83F800
3F83F800
3F83F800
3F83F800
3F83F800
3F83F800
3F83F800
3F83F800
3F83F800
3F83F800
3FC7F800
3FFFF800
3FFFF800
1FFBFE00
0FE3FE00
01800000
ENDCHAR
STARTCHAR uni01CD
ENCODING 461
SWIDTH 680 0
DWIDTH 27 0
BBX 27 36 0 0
BITMAP
00801000
03C03800
01E0F800
00F9F000
007FE000
003FC000
001F8000
001F0000
00000000
00000000
001F8000
001F8000
001F8000
003FC000
003FC000
003FC000
007FE000
007FE000
006FE000
00CFF000
00CFF000
00C7F000
0187F800
0187F800
0183F800
0383FC00
03FFFC00
07FFFC00
07FFFE00
0601FE00
0E00FE00
0E00FF00
0C00FF00
7F01FF00
FF83FFE0
FF83FFE0
ENDCHAR
STARTCHAR uni01CE
ENCODING 462
SWIDTH 540 0
DWIDTH 22 0
BBX 21 32 1 -1
BITMAP
0C0300
1E0780
0F0F00
07BE00
07FE00
03FC00
01F800
01F000
000000
000000
000000
07FC00
1FFF00
3E3F80
7E3F80
7E1FC0
7E1FC0
7C1FC0
381FC0
007FC0
07FFC0
1F9FC0
3F1FC0
7E1FC0
FE1FC0
FE1FC0
FE1FC0
FF3FC0
FFFFF8
7FDFF0
3F8FE0
0E0380
ENDCHAR
STARTCHAR uni01CF
ENCODING 463
SWIDTH 395 0
DWIDTH 16 0
BBX 14 36 1 0
BITMAP
4008
E01C
F87C
7CF8
3FF0
1FE0
0FC0
0F80
0000
0000
FFFC
FFFC
3FF0
1FE0
1FE0
1FE0
1FE0
1FE0
1FE0
1FE0
1FE0
1FE0
1FE0
1FE0
1FE0
1FE0
1FE0
1FE0
1FE0
1FE0
1FE0
1FE0
1FE0
7FF0
FFFC
FFFC
ENDCHAR
STARTCHAR uni01D0
ENCODING 464
SWIDTH 324 0
DWIDTH 13 0
BBX 14 31 0 0
BITMAP
6018
F03C
7878
3DF0
3FE0
1FE0
0FC0
0F80
0000
0000
0000
00E0
0FE0
7FE0
7FE0
3FE0
1FE0
1FE0
1FE0
1FE0
1FE0
1FE0
1FE0
1FE0
1FE0
1FE0
1FE0
1FE0
1FE0
7FF0
7FF0
ENDCHAR
STARTCHAR uni01D1
ENCODING 465
SWIDTH 700 0
DWIDTH 28 0
BBX 26 37 1 -1
BITMAP
01002000
03807000
03E1F000
01F3E000
00FFC000
007F8000
003F0000
001E0000
00000000
003F0000
01FFE000
07FFF800
0FE1FC00
1FC0FE00
3F807F00
3F807F00
7F807F80
7F807F80
7F807F80
FF003FC0
FF003FC0
FF003FC0
FF003FC0
FF003FC0
FF003FC0
FF003FC0
FF003FC0
7F807F80
7F807F80
7F807F80
3F807F00
3F80FF00
1FC0FE00
0FE1FC00
07FFF800
01FFE000
003F0000
ENDCHAR
STARTCHAR uni01D2
ENCODING 466
SWIDTH 572 0
DWIDTH 23 0
BBX 21 32 1 -1
BITMAP
040100
0E0780
0F8F00
07DF00
03FE00
01FC00
01FC00
00F800
000000
000000
000000
01FC00
0FFF00
1F9FC0
3F8FE0
7F07E0
7F07F0
FF07F0
FF07F8
FF07F8
FF07F8
FF07F8
FF07F8
FF07F8
FF07F8
7F07F0
7F07F0
3F0FE0
3F8FC0
1FFF80
07FF00
007000
ENDCHAR
STARTCHAR uni01D3
ENCODING 467
SWIDTH 732 0
DWIDTH 29 0
BBX 27 37 1 -1
BITMAP
00200400
00700E00
007C3E00
003E7C00
001FF800
000FF000
0007E000
0003C000
00000000
00000000
FFFC3FE0
FFFC3FE0
3FF00700
1FE00700
1FE00700
1FE00700
1FE00700
1FE00700
1FE00700
1FE00700
1FE00700
1FE00700
1FE00700
1FE00700
1FE00700
1FE00700
1FE00700
1FE00700
1FE00700
1FE00700
1FF00E00
0FF01E00
0FFC3C00
07FFFC00
03FFF800
01FFE000
003F0000
ENDCHAR
STARTCHAR uni01D4
ENCODING 468
SWIDTH 617 0
DWIDTH 25 0
BBX 23 32 1 -1
BITMAP
020080
0701C0
07C7C0
03EF80
01FF00
00FE00
00FE00
007C00
000000
000000
000000
038038
FF87F8
FF8FF8
7F87F8
3F83F8
3F83F8
3F83F8
3F83F8
3F83F8
3F83F8
3F83F8
3F83F8
3F83F8
3F83F8
3F83F8
3FC7F8
3FFFF8
3FFFF8
1FFBFE
0FE3FE
018000
ENDCHAR
STARTCHAR uni01D5
ENCODING 469
SWIDTH 732 0
DWIDTH 29 0
BBX 27 41 1 -1
BITMAP
007FFC00
007FFC00
007FFC00
007FFC00
00000000
00000000
00F01E00
01F83F00
01F87F00
01F83F00
01F83F00
00F01C00
00000000
00000000
FFFC3FE0
FFFC3FE0
3FF00700
1FE00700
1FE00700
1FE00700
1FE00700
1FE00700
1FE00700
1FE00700
1FE00700
1FE00700
1FE00700
1FE00700
1FE00700
1FE00700
1FE00700
1FE00700
1FE00700
1FE00700
1FF00E00
0FF01E00
0FFC3C00
07FFFC00
03FFF800
01FFE000
003F0000
ENDCHAR
STARTCHAR uni01D6
ENCODING 470
SWIDTH 617 0
DWIDTH 25 0
BBX 23 34 1 -1
BITMAP
07FFE0
07FFE0
07FFE0
07FFE0
000000
0781E0
0FC3F0
1FC7F0
1FC7F0
0FC3F0
0F83E0
000000
000000
038038
FF87F8
FF8FF8
7F87F8
3F83F8
3F83F8
3F83F8
3F83F8
3F83F8
3F83F8
3F83F8
3F83F8
3F83F8
3F83F8
3F83F8
3FC7F8
3FFFF8
3FFFF8
1FFBFE
0FE3FE
018000
ENDCHAR
STARTCHAR uni01D7
ENCODING 471
SWIDTH 732 0
DWIDTH 29 0
BBX 27 42 1 -1
BITMAP
00001000
00007800
0000FC00
0001F800
0001F800
0003E000
00038000
00F01E00
01F83F00
01F87F00
01F83F00
01F83F00
00F01C00
00000000
00000000
FFFC3FE0
FFFC3FE0
3FF00700
1FE00700
1FE00700
1FE00700
1FE00700
1FE00700
1FE00700
1FE00700
1FE00700
1FE00700
1FE00700
1FE00700
1FE00700
1FE00700
1FE00700
1FE00700
1FE00700
1FE00700
1FF00E00
0FF01E00
0FFC3C00
07FFFC00
03FFF800
01FFE000
003F0000
ENDCHAR
STARTCHAR uni01D8
ENCODING 472
SWIDTH 617 0
DWIDTH 25 0
BBX 23 37 1 -1
BITMAP
000300
000780
000F80
001F80
001F00
001E00
003C00
001800
0301C0
0FC3E0
0FC7F0
0FC7F0
0FC3F0
0783E0
000000
000000
038038
FF87F8
FF8FF8
7F87F8
3F83F8
3F83F8
3F83F8
3F83F8
3F83F8
3F83F8
3F83F8
3F83F8
3F83F8
3F83F8
3F83F8
3FC7F8
3FFFF8
3FFFF8
1FFBFE
0FE3FE
018000
ENDCHAR
STARTCHAR uni01D9
ENCODING 473
SWIDTH 732 0
DWIDTH 29 0
BBX 27 43 1 -1
BITMAP
00400400
00F01E00
00783C00
003EF800
003FF800
001FF000
000FE000
0007C000
00F01E00
01F83F00
01F87F00
01F83F00
01F83F00
00F01C00
00000000
00000000
FFFC3FE0
FFFC3FE0
3FF00700
1FE00700
1FE00700
1FE00700
1FE00700
1FE00700
1FE00700
1FE00700
1FE00700
1FE00700
1FE00700
1FE00700
1FE00700
1FE00700
1FE00700
1FE00700
1FE00700
1FE00700
1FF00E00
0FF01E00
0FFC3C00
07FFFC00
03FFF800
01FFE000
003F0000
ENDCHAR
STARTCHAR uni01DA
ENCODING 474
SWIDTH 617 0
DWIDTH 25 0
BBX 23 37 1 -1
BITMAP
040040
0F00E0
0783E0
03E7C0
01FF80
00FF00
007E00
007C00
0781E0
0FC3F0
1FC7F0
1FC7F0
0FC3F0
0F83E0
000000
000000
038038
FF87F8
FF8FF8
7F87F8
3F83F8
3F83F8
3F83F8
3F83F8
3F83F8
3F83F8
3F83F8
3F83F8
3F83F8
3F83F8
3F83F8
3FC7F8
3FFFF8
3FFFF8
1FFBFE
0FE3FE
018000
ENDCHAR
STARTCHAR uni01DB
ENCODING 475
SWIDTH 732 0
DWIDTH 29 0
BBX 27 42 1 -1
BITMAP
00100000
003C0000
007E0000
003F0000
003F0000
000F8000
00038000
00F01C00
01F83F00
01F87F00
01F83F00
01F83F00
00F01E00
00000000
00000000
FFFC3FE0
FFFC3FE0
3FF00700
1FE00700
1FE00700
1FE00700
1FE00700
1FE00700
1FE00700
1FE00700
1FE00700
1FE00700
1FE00700
1FE00700
1FE00700
1FE00700
1FE00700
1FE00700
1FE00700
1FE00700
1FF00E00
0FF01E00
0FFC3C00
07FFFC00
03FFF800
01FFE000
003F0000
ENDCHAR
STARTCHAR uni01DC
ENCODING 476
SWIDTH 617 0
DWIDTH 25 0
BBX 23 37 1 -1
BITMAP
00C000
01E000
03F000
01F000
01F000
007800
003800
001800
0301C0
0FC3E0
0FC7F0
0FC7F0
0FC3F0
0783E0
000000
000000
038038
FF87F8
FF8FF8
7F87F8
3F83F8
3F83F8
3F83F8
3F83F8
3F83F8
3F83F8
3F83F8
3F83F8
3F83F8
3F83F8
3F83F8
3FC7F8
3FFFF8
3FFFF8
1FFBFE
0FE3FE
018000
ENDCHAR
STARTCHAR Gcaron
ENCODING 486
SWIDTH 672 0
DWIDTH 27 0
BBX 25 37 1 -1
BITMAP
00800800
01C03C00
00F07800
007DF000
007FE000
003FE000
001FC000
000F8000
00000000
001FC000
01FFF800
07FFFC00
0FF03C00
1FE03C00
3FC03C00
3FC01C00
7F801E00
7F800000
7F800000
FF800000
FF000000
FF000000
FF000000
FF0FFF80
FF0FFF80
FF03FF00
FF80FE00
7F80FE00
7F80FE00
7F80FE00
3FC0FE00
3FC0FE00
1FE0FE00
0FF0FE00
03FFFE00
01FFF800
001FC000
ENDCHAR
STARTCHAR gcaron
ENCODING 487
SWIDTH 553 0
DWIDTH 22 0
BBX 22 40 0 -9
BITMAP
0C0300
1E0780
0F0F00
07DE00
03FE00
03FC00
01F800
00F800
000000
000000
000000
03FC0C
0FFF7C
3F9FFC
3F0FC0
7F0FE0
7F0FE0
7F0FE0
7F0FE0
3F0FC0
3F0FC0
1FBF80
0FFF00
1D7000
3C0000
3C0000
7FFF80
7FFFE0
7FFFF0
7FFFF8
3FFFF8
1FFFF8
3BFFF8
7001F8
F000F8
F801F0
FC03F0
7FFFE0
3FFF80
07F800
ENDCHAR
STARTCHAR uni01F8
ENCODING 504
SWIDTH 725 0
DWIDTH 29 0
BBX 27 35 1 0
BITMAP
01E00000
03F00000
03F80000
01FC0000
00FE0000
003F8000
00070000
00010000
00000000
FFE0FFE0
FFE0FFE0
3FF03FC0
1FF80700
1FFC0700
1FFC0700
1FFE0700
1FFF0700
1DFF0700
1CFF8700
1CFFC700
1C7FE700
1C3FE700
1C3FF700
1C1FFF00
1C0FFF00
1C07FF00
1C07FF00
1C03FF00
1C01FF00
1C01FF00
1C00FF00
1C007F00
7FC03F00
FFE03F00
FFE01F00
ENDCHAR
STARTCHAR uni01F9
ENCODING 505
SWIDTH 620 0
DWIDTH 25 0
BBX 23 31 1 0
BITMAP
078000
0FC000
0FC000
07E000
03F000
01F000
00F800
003800
001000
000000
000000
038FC0
1F9FF0
FFBFF0
FFFFF8
7FE7F8
3F87F8
3F83F8
3F83F8
3F83F8
3F83F8
3F83F8
3F83F8
3F83F8
3F83F8
3F83F8
3F83F8
3F83F8
3F83F8
FFEFFE
FFEFFE
ENDCHAR
STARTCHAR uni0218
ENCODING 536
SWIDTH 553 0
DWIDTH 22 0
BBX 20 38 1 -11
BITMAP
01FE00
07FFC0
1FFFE0
3F83E0
7F03E0
7F03E0
7F03E0
7F03E0
7F8000
7FC000
7FF000
7FFC00
3FFF00
1FFF80
0FFFC0
07FFE0
01FFF0
007FF0
001FF0
000FF0
F807F0
F807F0
F807F0
F807E0
F80FC0
FFFF80
3FFF00
07F800
000000
00F000
01F800
01F800
01F800
01F800
00F000
00F000
03C000
010000
ENDCHAR
STARTCHAR uni0219
ENCODING 537
SWIDTH 463 0
DWIDTH 19 0
BBX 17 31 1 -11
BITMAP
07F800
1FFF00
3E1F00
7C1F00
FC1E00
FE0E00
FF8000
FFF000
FFFC00
7FFE00
7FFF00
3FFF80
0FFF80
01FF80
F07F80
F03F80
F03F00
F03F00
FFFE00
7FF800
038000
000000
01C000
03F000
07F000
07F000
03F000
01E000
01C000
078000
060000
ENDCHAR
STARTCHAR uni021A
ENCODING 538
SWIDTH 646 0
DWIDTH 26 0
BBX 24 37 1 -11
BITMAP
FFFFFF
FFFFFF
F0FF0F
F0FF0F
F0FF0F
F0FF0F
F0FF0F
00FF00
00FF00
00FF00
00FF00
00FF00
00FF00
00FF00
00FF00
00FF00
00FF00
00FF00
00FF00
00FF00
00FF00
00FF00
00FF00
03FFC0
07FFE0
07FFE0
000000
000000
001C00
003F00
007F00
007F00
003F00
001E00
001C00
007800
006000
ENDCHAR
STARTCHAR uni021B
ENCODING 539
SWIDTH 372 0
DWIDTH 15 0
BBX 15 36 0 -11
BITMAP
07C0
07C0
0FC0
0FC0
0FC0
1FC0
FFFC
FFFC
FFFC
1FC0
1FC0
1FC0
1FC0
1FC0
1FC0
1FC0
1FC0
1FC0
1FC0
1FC0
1FE0
1FE2
1FFE
0FFC
07F8
00C0
0000
01C0
03F0
07F0
07F0
03F0
01E0
01C0
0780
0600
ENDCHAR
STARTCHAR uni0237
ENCODING 567
SWIDTH 320 0
DWIDTH 13 0
BBX 16 29 -5 -9
BITMAP
0007
007F
03FE
03FE
01FE
00FE
00FE
00FE
00FE
00FE
00FE
00FE
00FE
00FE
00FE
00FE
00FE
00FE
00FE
00FE
00FE
00FE
00FE
7CFE
FEFC
FEFC
FFF8
7FE0
3FC0
ENDCHAR
STARTCHAR uni0251
ENCODING 593
SWIDTH 594 0
DWIDTH 24 0
BBX 24 21 1 -1
BITMAP
03F038
0FFCF8
1FFFF8
3FFFF8
3FC7F8
7F87F8
7F07F8
7F07F8
FF07F8
FF07F8
FF07F8
FF07F8
FF07F8
FF07F8
7F07F8
7F87F8
7FCFF8
3FFFFF
1FFBFE
0FF1FC
018070
ENDCHAR
STARTCHAR uni0259
ENCODING 601
SWIDTH 526 0
DWIDTH 21 0
BBX 19 21 1 -1
BITMAP
07F800
1FFE00
3FFF00
7FFF80
78FFC0
207FC0
003FE0
001FE0
001FE0
FFFFE0
FFFFE0
FF9FE0
FE1FE0
FE1FE0
FE1FE0
FE1FC0
7E1FC0
3F3F80
1FFF00
0FFC00
00E000
ENDCHAR
STARTCHAR uni0261
ENCODING 609
SWIDTH 592 0
DWIDTH 24 0
BBX 21 29 1 -9
BITMAP
03F038
0FFCF8
1FFFF8
3FFFF8
3FC7F8
7F87F8
7F07F8
7F07F8
FF07F8
FF07F8
FF07F8
FF07F8
FF07F8
FF07F8
7F87F8
7FC7F8
3FFFF8
3FFFF8
1FFFF8
07E7F8
0007F8
3807F8
7C07F0
7E07F0
7E07F0
7E0FE0
3E1FC0
1FFF80
0FFE00
ENDCHAR
STARTCHAR h.sups
ENCODING 688
SWIDTH 412 0
DWIDTH 16 0
BBX 16 19 0 16
BITMAP
0E00
FE00
7E00
3E00
3E00
3E00
3EF8
3FFC
3F3C
3E3E
3E3E
3E3E
3E3E
3E3E
3E3E
3E3E
3E3E
7F7F
7F7F
ENDCHAR
STARTCHAR j.sups
ENCODING 690
SWIDTH 200 0
DWIDTH 8 0
BBX 10 26 -3 10
BITMAP
0100
0780
07C0
07C0
0300
0000
0000
01C0
1FC0
1FC0
07C0
07C0
07C0
07C0
07C0
07C0
07C0
07C0
07C0
07C0
07C0
0780
6780
F780
FF00
7C00
ENDCHAR
STARTCHAR r.sups
ENCODING 691
SWIDTH 315 0
DWIDTH 13 0
BBX 11 13 1 16
BITMAP
19E0
FFE0
FFE0
7CE0
7C00
7C00
7C00
7C00
7C00
7C00
7C00
FE00
FF00
ENDCHAR
STARTCHAR w.sups
ENCODING 695
SWIDTH 533 0
DWIDTH 21 0
BBX 21 13 0 16
BITMAP
FEFEF8
FC7C78
7C3C20
3C7C60
3C7C60
1EDE40
1EDEC0
1E9EC0
0F8F80
0F8F80
0F0700
070700
060700
ENDCHAR
STARTCHAR y.sups
ENCODING 696
SWIDTH 353 0
DWIDTH 14 0
BBX 14 19 0 10
BITMAP
FE7C
FE3C
7C10
3C30
3E20
1E60
1E60
0F40
0FC0
0780
0780
0780
0300
0300
0200
0200
F400
FC00
3800
ENDCHAR
STARTCHAR quoteleft.dup5
ENCODING 699
SWIDTH 218 0
DWIDTH 9 0
BBX 7 12 1 17
BITMAP
06
1E
38
70
F0
F8
FC
FE
FE
FE
FE
7C
ENDCHAR
STARTCHAR quoteright.dup6
ENCODING 700
SWIDTH 218 0
DWIDTH 9 0
BBX 7 12 1 17
BITMAP
78
FC
FE
FE
FE
7E
3E
1C
3C
78
F0
C0
ENDCHAR
STARTCHAR uni02BE
ENCODING 702
SWIDTH 180 0
DWIDTH 7 0
BBX 5 9 1 22
BITMAP
E0
F0
38
38
38
38
78
F0
E0
ENDCHAR
STARTCHAR uni02BF
ENCODING 703
SWIDTH 180 0
DWIDTH 7 0
BBX 5 9 1 22
BITMAP
38
78
F0
E0
E0
E0
F0
78
38
ENDCHAR
STARTCHAR circumflex
ENCODING 710
SWIDTH 376 0
DWIDTH 15 0
BBX 15 8 0 22
BITMAP
07C0
07C0
0FE0
1FF0
3EF8
7C7C
F01E
600C
ENDCHAR
STARTCHAR caron
ENCODING 711
SWIDTH 400 0
DWIDTH 16 0
BBX 14 8 1 23
BITMAP
6018
F03C
7878
3CF0
3FF0
1FE0
0FC0
07C0
ENDCHAR
STARTCHAR uni02C8
ENCODING 712
SWIDTH 160 0
DWIDTH 6 0
BBX 6 8 0 22
BITMAP
FC
7C
7C
7C
7C
7C
7C
7C
ENDCHAR
STARTCHAR uni02C9
ENCODING 713
SWIDTH 342 0
DWIDTH 14 0
BBX 14 4 1 23
BITMAP
FFFC
FFFC
FFFC
FFFC
ENDCHAR
STARTCHAR uni02CA
ENCODING 714
SWIDTH 224 0
DWIDTH 9 0
BBX 9 9 0 22
BITMAP
0F00
0F80
1F80
3F80
3F00
7E00
7800
F000
4000
ENDCHAR
STARTCHAR uni02CB
ENCODING 715
SWIDTH 224 0
DWIDTH 9 0
BBX 9 9 0 22
BITMAP
7800
F800
FC00
FE00
7E00
3F00
0F00
0780
0100
ENDCHAR
STARTCHAR uni02CC
ENCODING 716
SWIDTH 160 0
DWIDTH 6 0
BBX 6 9 0 -11
BITMAP
7C
7C
7C
7C
7C
7C
7C
7C
FC
ENDCHAR
STARTCHAR breve
ENCODING 728
SWIDTH 400 0
DWIDTH 16 0
BBX 14 7 1 23
BITMAP
2010
E01C
7038
7878
7FF8
3FF0
1FE0
ENDCHAR
STARTCHAR dotaccent
ENCODING 729
SWIDTH 400 0
DWIDTH 16 0
BBX 8 7 4 22
BITMAP
3C
7E
FF
FF
7E
7E
18
ENDCHAR
STARTCHAR ring
ENCODING 730
SWIDTH 400 0
DWIDTH 16 0
BBX 10 10 3 22
BITMAP
1E00
7F80
7F80
E1C0
E1C0
E1C0
E1C0
7F80
7F80
1E00
ENDCHAR
STARTCHAR ogonek
ENCODING 731
SWIDTH 400 0
DWIDTH 16 0
BBX 10 9 3 -9
BITMAP
1E00
7800
7800
F800
F800
FFC0
FFC0
7FC0
3F00
ENDCHAR
STARTCHAR tilde
ENCODING 732
SWIDTH 400 0
DWIDTH 16 0
BBX 14 6 1 23
BITMAP
3E0C
7F9C
7FFC
FFFC
E7F8
C1F0
ENDCHAR
STARTCHAR hungarumlaut
ENCODING 733
SWIDTH 400 0
DWIDTH 16 0
BBX 13 10 3 22
BITMAP
1C70
3EF8
3EF8
7DF0
7DF0
79E0
F3C0
E380
E380
4100
ENDCHAR
STARTCHAR l.sups
ENCODING 737
SWIDTH 207 0
DWIDTH 8 0
BBX 8 19 0 16
BITMAP
0E
FE
7E
3E
3E
3E
3E
3E
3E
3E
3E
3E
3E
3E
3E
3E
3E
7F
7F
ENDCHAR
STARTCHAR s.sups
ENCODING 738
SWIDTH 301 0
DWIDTH 12 0
BBX 10 13 1 16
BITMAP
3F80
71C0
E1C0
F1C0
FC00
FF80
7FC0
3FC0
07C0
C1C0
C1C0
E780
7F00
ENDCHAR
STARTCHAR x.sups
ENCODING 739
SWIDTH 375 0
DWIDTH 15 0
BBX 15 13 0 16
BITMAP
FF7C
7E3C
3E30
1F60
0FC0
0FC0
07C0
07E0
0FE0
09F0
18F8
79FC
F9FE
ENDCHAR
STARTCHAR uni0300
ENCODING 768
SWIDTH 0 0
DWIDTH 0 0
BBX 9 9 -6 22
BITMAP
F000
F800
FC00
FC00
7E00
3F00
0F00
0780
0300
ENDCHAR
STARTCHAR uni0301
ENCODING 769
SWIDTH 0 0
DWIDTH 0 0
BBX 9 9 -3 22
BITMAP
0F00
1F80
1F80
3F00
3F00
7C00
F800
F000
4000
ENDCHAR
STARTCHAR uni0302
ENCODING 770
SWIDTH 0 0
DWIDTH 0 0
BBX 14 8 -7 22
BITMAP
0780
0FC0
1FE0
3FF0
3FF0
7878
F03C
6018
ENDCHAR
STARTCHAR uni0303
ENCODING 771
SWIDTH 0 0
DWIDTH 0 0
BBX 14 6 -7 23
BITMAP
3E0C
7F9C
FFFC
FFF8
E7F8
C1F0
ENDCHAR
STARTCHAR uni0304
ENCODING 772
SWIDTH 0 0
DWIDTH 0 0
BBX 14 4 -7 23
BITMAP
FFFC
FFFC
FFFC
FFFC
ENDCHAR
STARTCHAR uni0306
ENCODING 774
SWIDTH 0 0
DWIDTH 0 0
BBX 14 7 -7 23
BITMAP
2010
E01C
7038
7878
7FF8
3FF0
1FE0
ENDCHAR
STARTCHAR uni0307
ENCODING 775
SWIDTH 0 0
DWIDTH 0 0
BBX 8 7 -4 22
BITMAP
3C
7E
FF
FF
7E
7E
18
ENDCHAR
STARTCHAR uni0308
ENCODING 776
SWIDTH 0 0
DWIDTH 0 0
BBX 16 6 -8 23
BITMAP
781E
FC3F
FC3F
FC3F
FC3F
781E
ENDCHAR
STARTCHAR uni0309
ENCODING 777
SWIDTH 0 0
DWIDTH 0 0
BBX 7 10 -3 22
BITMAP
E0
F8
FC
FE
FE
1E
1E
7C
78
60
ENDCHAR
STARTCHAR uni030A
ENCODING 778
SWIDTH 0 0
DWIDTH 0 0
BBX 10 10 -5 22
BITMAP
1E00
7F80
7F80
E1C0
E1C0
E1C0
E1C0
7F80
7F80
1E00
ENDCHAR
STARTCHAR uni030B
ENCODING 779
SWIDTH 0 0
DWIDTH 0 0
BBX 13 10 -4 22
BITMAP
1C70
3CF0
7CF8
7DF0
79F0
79E0
F3C0
E380
E700
4100
ENDCHAR
STARTCHAR uni030C
ENCODING 780
SWIDTH 0 0
DWIDTH 0 0
BBX 14 8 -7 23
BITMAP
6018
F03C
7878
3CF0
3FF0
1FE0
0FC0
07C0
ENDCHAR
STARTCHAR uni031B
ENCODING 795
SWIDTH 0 0
DWIDTH 0 0
BBX 8 10 -1 15
BITMAP
1E
1F
1F
1F
0E
0E
0E
3C
F0
C0
ENDCHAR
STARTCHAR uni0323
ENCODING 803
SWIDTH 0 0
DWIDTH 0 0
BBX 8 7 -4 -10
BITMAP
3C
7E
FF
FF
7E
7E
18
ENDCHAR
STARTCHAR uni0324
ENCODING 804
SWIDTH 0 0
DWIDTH 0 0
BBX 16 6 -8 -8
BITMAP
781E
FC3F
FC3F
FC3F
FC3F
781E
ENDCHAR
STARTCHAR uni0326
ENCODING 806
SWIDTH 0 0
DWIDTH 0 0
BBX 7 9 -4 -11
BITMAP
3C
7E
7E
7E
7E
3C
3C
F0
40
ENDCHAR
STARTCHAR uni0327
ENCODING 807
SWIDTH 0 0
DWIDTH 0 0
BBX 9 9 -4 -9
BITMAP
1800
1800
3E00
3F00
0F80
0780
8F80
FF00
FE00
ENDCHAR
STARTCHAR uni0328
ENCODING 808
SWIDTH 0 0
DWIDTH 0 0
BBX 11 9 -6 -9
BITMAP
0E00
3800
7800
7800
FC00
FFC0
7FE0
7FC0
3F80
ENDCHAR
STARTCHAR uni0329
ENCODING 809
SWIDTH 0 0
DWIDTH 0 0
BBX 6 9 -3 -11
BITMAP
78
FC
FC
FC
FC
FC
FC
FC
FC
ENDCHAR
STARTCHAR uni032E
ENCODING 814
SWIDTH 0 0
DWIDTH 0 0
BBX 14 7 -7 -9
BITMAP
2010
E01C
7038
7878
7FF8
3FF0
1FE0
ENDCHAR
STARTCHAR uni0331
ENCODING 817
SWIDTH 0 0
DWIDTH 0 0
BBX 14 4 -7 -8
BITMAP
FFFC
FFFC
FFFC
FFFC
ENDCHAR
STARTCHAR uni0374
ENCODING 884
SWIDTH 259 0
DWIDTH 10 0
BBX 7 14 2 15
BITMAP
7C
7E
7E
FE
FE
FC
FC
FC
F8
F8
F0
F0
F0
E0
ENDCHAR
STARTCHAR uni0375
ENCODING 885
SWIDTH 259 0
DWIDTH 10 0
BBX 7 14 2 -5
BITMAP
0E
1E
1E
3E
3E
3E
7E
7C
FC
FC
FC
FC
FC
7C
ENDCHAR
STARTCHAR uni037E
ENCODING 894
SWIDTH 320 0
DWIDTH 13 0
BBX 9 28 1 -8
BITMAP
1F00
3F80
3F80
7F80
3F80
3F80
1F00
0400
0000
0000
0000
0000
0000
1F00
3F80
3F80
7F80
3F80
3F80
1F80
0780
0700
0F00
1E00
3C00
7800
F000
4000
ENDCHAR
STARTCHAR tonos
ENCODING 900
SWIDTH 400 0
DWIDTH 16 0
BBX 7 10 5 21
BITMAP
1E
3E
3E
3E
3C
7C
78
70
F0
20
ENDCHAR
STARTCHAR dieresistonos
ENCODING 901
SWIDTH 400 0
DWIDTH 16 0
BBX 16 10 0 22
BITMAP
01E0
03E0
03E0
03E0
F3CF
FBDF
FBDF
F38F
0380
0300
ENDCHAR
STARTCHAR Alphatonos
ENCODING 902
SWIDTH 680 0
DWIDTH 27 0
BBX 27 27 0 0
BITMAP
1C000000
1E1F8000
3E1F8000
3E1F8000
3E3FC000
7C3FC000
783FC000
787FE000
707FE000
E06FE000
00CFF000
00CFF000
00C7F000
0187F800
0187F800
0183F800
0383FC00
03FFFC00
07FFFC00
07FFFE00
0601FE00
0E00FE00
0E00FF00
0C00FF00
7F01FF00
FF83FFE0
FF83FFE0
ENDCHAR
STARTCHAR anoteleia
ENCODING 903
SWIDTH 300 0
DWIDTH 12 0
BBX 8 8 2 12
BITMAP
3C
7E
FF
FF
FF
FF
7E
18
ENDCHAR
STARTCHAR Epsilontonos
ENCODING 904
SWIDTH 754 0
DWIDTH 30 0
BBX 30 27 -1 0
BITMAP
1C000000
3E7FFFF8
3E7FFFF8
7E1FE078
7C1FE078
781FE078
781FE03C
F01FE03C
E01FE000
E01FE1C0
001FE1C0
001FE1C0
001FFFC0
001FFFC0
001FFFC0
001FE1C0
001FE1C0
001FE1C0
001FE000
001FE000
001FE01C
001FE03C
001FE03C
001FE03C
003FE03C
007FFFFC
007FFFFC
ENDCHAR
STARTCHAR Etatonos
ENCODING 905
SWIDTH 919 0
DWIDTH 37 0
BBX 37 27 -1 0
BITMAP
1C00000000
3E7FFDFFF8
3E7FFDFFF8
7E1FF03FE0
7C1FE03FC0
781FE03FC0
781FE03FC0
F01FE03FC0
E01FE03FC0
E01FE03FC0
001FE03FC0
001FE03FC0
001FFFFFC0
001FFFFFC0
001FFFFFC0
001FE03FC0
001FE03FC0
001FE03FC0
001FE03FC0
001FE03FC0
001FE03FC0
001FE03FC0
001FE03FC0
001FE03FC0
003FF07FE0
007FFDFFF8
007FFDFFF8
ENDCHAR
STARTCHAR Iotatonos
ENCODING 906
SWIDTH 558 0
DWIDTH 22 0
BBX 22 27 -1 0
BITMAP
1C0000
3E7FFC
3E7FFC
7E1FF0
7C1FE0
781FE0
781FE0
F01FE0
E01FE0
E01FE0
001FE0
001FE0
001FE0
001FE0
001FE0
001FE0
001FE0
001FE0
001FE0
001FE0
001FE0
001FE0
001FE0
001FE0
003FF8
007FFC
007FFC
ENDCHAR
STARTCHAR Omicrontonos
ENCODING 908
SWIDTH 782 0
DWIDTH 31 0
BBX 31 28 -1 -1
BITMAP
1C01FC00
3E0FFF00
3E1FFFC0
7E7F07E0
7CFE07F0
78FE03F8
79FC03F8
F1FC03FC
E3FC01FC
E3FC01FE
03FC01FE
03FC01FE
07FC01FE
07FC01FE
07FC01FE
07FC01FE
03FC01FE
03FC01FE
03FC01FE
03FC01FC
01FC03FC
01FC03F8
00FE03F8
00FE07F0
007F07E0
001FFFC0
000FFF00
0001F800
ENDCHAR
STARTCHAR Upsilontonos
ENCODING 910
SWIDTH 800 0
DWIDTH 32 0
BBX 33 27 -1 0
BITMAP
1C00000000
3EFFFC7F80
3EFFFC7F80
7E3FF03F00
7C1FF01C00
781FF01C00
780FF83800
F00FF83800
E007F87000
E007FC7000
0003FCE000
0003FEE000
0001FEC000
0001FFC000
0000FF8000
0000FF8000
00007F8000
00007F8000
00007F8000
00007F8000
00007F8000
00007F8000
00007F8000
00007F8000
0001FFE000
0003FFF000
0003FFF000
ENDCHAR
STARTCHAR Omegatonos
ENCODING 911
SWIDTH 826 0
DWIDTH 33 0
BBX 34 27 -1 0
BITMAP
1C01FE0000
3E0FFFC000
3E3FFFF000
7E7F03F800
7CFF01FC00
78FE01FE00
79FE00FE00
F1FC00FF00
E3FC00FF00
E3FC00FF00
03FC00FF00
03FC00FF00
03FC00FF00
03FC00FF00
03FC00FF00
01FC00FF00
01FE00FE00
00FE01FC00
007F01F800
073F83F1C0
070FC7E3C0
0703C783C0
07FF87FF80
07FF87FF80
07FF87FF80
07FF87FF80
07FF87FF80
ENDCHAR
STARTCHAR iotadieresistonos
ENCODING 912
SWIDTH 330 0
DWIDTH 13 0
BBX 17 33 -1 -1
BITMAP
01E000
03E000
03E000
03E000
F3EF00
FBCF80
FBCF80
F3CF00
038000
038000
000000
000000
00E000
1FE000
1FE000
1FE000
1FE000
1FE000
1FE000
1FE000
1FE000
0FE000
0FC000
0FC000
0FC000
0FC000
0FC000
0FE000
0FFC00
0FFC00
0FFC00
07F800
00C000
ENDCHAR
STARTCHAR Alpha
ENCODING 913
SWIDTH 680 0
DWIDTH 27 0
BBX 27 26 0 0
BITMAP
001F8000
001F8000
001F8000
003FC000
003FC000
003FC000
007FE000
007FE000
006FE000
00CFF000
00CFF000
00C7F000
0187F800
0187F800
0183F800
0383FC00
03FFFC00
07FFFC00
07FFFE00
0601FE00
0E00FE00
0E00FF00
0C00FF00
7F01FF00
FF83FFE0
FF83FFE0
ENDCHAR
STARTCHAR Beta
ENCODING 914
SWIDTH 660 0
DWIDTH 26 0
BBX 25 26 1 0
BITMAP
FFFFE000
FFFFF800
3FEFFC00
1FE1FE00
1FE1FE00
1FE1FE00
1FE0FE00
1FE1FE00
1FE1FE00
1FE1FC00
1FE3F000
1FFFC000
1FFFF000
1FEFFC00
1FE1FE00
1FE0FF00
1FE0FF00
1FE07F80
1FE07F80
1FE07F80
1FE0FF00
1FE0FF00
1FE1FE00
7FEFFC00
FFFFF800
FFFFC000
ENDCHAR
STARTCHAR Gamma
ENCODING 915
SWIDTH 580 0
DWIDTH 23 0
BBX 21 26 1 0
BITMAP
FFFFF8
FFFFF8
3FE078
1FE078
1FE078
1FE078
1FE078
1FE038
1FE000
1FE000
1FE000
1FE000
1FE000
1FE000
1FE000
1FE000
1FE000
1FE000
1FE000
1FE000
1FE000
1FE000
1FE000
7FF800
FFFC00
FFFC00
ENDCHAR
STARTCHAR Delta.dup7
ENCODING 916
SWIDTH 626 0
DWIDTH 25 0
BBX 22 26 2 0
BITMAP
00FC00
00FC00
00FE00
01FE00
01FE00
03FF00
03FF00
037F00
077F80
067F80
063FC0
0C3FC0
0C3FC0
1C1FE0
181FE0
181FF0
380FF0
300FF0
7007F8
6007F8
6007FC
E003FC
FFFFFC
FFFFFC
FFFFFC
FFFFFC
ENDCHAR
STARTCHAR Epsilon
ENCODING 917
SWIDTH 591 0
DWIDTH 24 0
BBX 22 26 1 0
BITMAP
FFFFF8
FFFFF8
3FE078
1FE078
1FE078
1FE078
1FE078
1FE000
1FE1C0
1FE1C0
1FE1C0
1FFFC0
1FFFC0
1FFFC0
1FE1C0
1FE1C0
1FE1C0
1FE000
1FE000
1FE03C
1FE03C
1FE03C
1FE07C
7FE07C
FFFFFC
FFFFFC
ENDCHAR
STARTCHAR Zeta
ENCODING 918
SWIDTH 568 0
DWIDTH 23 0
BBX 21 26 1 0
BITMAP
FFFFF8
FFFFF8
F80FF0
F01FF0
F01FE0
F03FE0
F07FC0
007FC0
00FF80
00FF80
01FF00
01FE00
03FE00
03FC00
07FC00
0FF800
0FF800
1FF000
1FF078
3FE078
3FC078
7FC078
7F8078
FF80F8
FFFFF8
FFFFF8
ENDCHAR
STARTCHAR Eta
ENCODING 919
SWIDTH 756 0
DWIDTH 30 0
BBX 28 26 1 0
BITMAP
FFF9FFF0
FFF9FFF0
3FE07FC0
1FE07F80
1FE07F80
1FE07F80
1FE07F80
1FE07F80
1FE07F80
1FE07F80
1FE07F80
1FFFFF80
1FFFFF80
1FFFFF80
1FE07F80
1FE07F80
1FE07F80
1FE07F80
1FE07F80
1FE07F80
1FE07F80
1FE07F80
1FE07F80
7FF0FFE0
FFF9FFF0
FFF9FFF0
ENDCHAR
STARTCHAR Theta
ENCODING 920
SWIDTH 720 0
DWIDTH 29 0
BBX 27 28 1 -1
BITMAP
003F8000
01FFF000
07FFFC00
0FC0FE00
1FC07F00
3F803F80
3F803F80
7F003FC0
7F001FC0
7F001FC0
FF219FC0
FF319FE0
FF3F9FE0
FF3F9FE0
FF3F9FE0
FF319FE0
FF319FE0
FF219FC0
7F001FC0
7F001FC0
7F003FC0
3F803F80
3F803F00
1FC07F00
0FE0FE00
07FFFC00
01FFF000
001F0000
ENDCHAR
STARTCHAR Iota
ENCODING 921
SWIDTH 395 0
DWIDTH 16 0
BBX 14 26 1 0
BITMAP
FFFC
FFFC
3FF0
1FE0
1FE0
1FE0
1FE0
1FE0
1FE0
1FE0
1FE0
1FE0
1FE0
1FE0
1FE0
1FE0
1FE0
1FE0
1FE0
1FE0
1FE0
1FE0
1FE0
7FF0
FFFC
FFFC
ENDCHAR
STARTCHAR Kappa
ENCODING 922
SWIDTH 708 0
DWIDTH 28 0
BBX 27 26 1 0
BITMAP
FFF8FFC0
FFF8FFC0
3FE07F00
1FE03800
1FC07000
1FC07000
1FC0E000
1FC1C000
1FC38000
1FC7C000
1FC7C000
1FCFE000
1FDFE000
1FFFF000
1FFFF000
1FE7F800
1FC7F800
1FC3FC00
1FC3FC00
1FC1FE00
1FC1FE00
1FC1FF00
1FE0FF00
7FE0FFC0
FFF9FFE0
FFF9FFE0
ENDCHAR
STARTCHAR Lambda
ENCODING 923
SWIDTH 656 0
DWIDTH 26 0
BBX 26 26 0 0
BITMAP
001F0000
001F0000
003F8000
003F8000
003FC000
007FC000
007FC000
00FFE000
00FFE000
00DFE000
01CFF000
01CFF000
018FF000
0387F800
0387F800
0307F800
0703FC00
0703FC00
0603FC00
0E03FE00
0E01FE00
0C01FF00
1C01FF00
7E01FF80
FF87FFC0
FF87FFC0
ENDCHAR
STARTCHAR Mu
ENCODING 924
SWIDTH 893 0
DWIDTH 36 0
BBX 35 26 0 0
BITMAP
7FF801FFC0
7FF801FFC0
1FFC01FF80
0FFC03FF00
0FFC03FF00
0FFE03FF00
0FFE07FF00
0FFE07FF00
0EFF06FF00
0EFF0EFF00
0EFF0EFF00
0E7F8CFF00
0E7F9CFF00
0E3F9CFF00
0E3FD8FF00
0E3FF8FF00
0E1FF8FF00
0E1FF0FF00
0E1FF0FF00
0E0FF0FF00
0E0FE0FF00
0E0FE0FF00
0E07E0FF00
3FC7C3FF80
FFC7C7FFE0
FFC3C7FFE0
ENDCHAR
STARTCHAR Nu
ENCODING 925
SWIDTH 725 0
DWIDTH 29 0
BBX 27 26 1 0
BITMAP
FFE0FFE0
FFE0FFE0
3FF03FC0
1FF80700
1FFC0700
1FFC0700
1FFE0700
1FFF0700
1DFF0700
1CFF8700
1CFFC700
1C7FE700
1C3FE700
1C3FF700
1C1FFF00
1C0FFF00
1C07FF00
1C07FF00
1C03FF00
1C01FF00
1C01FF00
1C00FF00
1C007F00
7FC03F00
FFE03F00
FFE01F00
ENDCHAR
STARTCHAR Xi
ENCODING 926
SWIDTH 564 0
DWIDTH 23 0
BBX 21 26 1 0
BITMAP
FFFFF0
FFFFF0
FFFFF0
FFFFF0
FFFFF0
F00070
E00070
E00070
000000
0E0300
0E0700
0FFF00
0FFF00
0FFF00
0FFF00
0E0700
0E0300
000000
E00038
E00038
E00078
FFFFF8
FFFFF8
FFFFF8
FFFFF8
FFFFF8
ENDCHAR
STARTCHAR Omicron
ENCODING 927
SWIDTH 700 0
DWIDTH 28 0
BBX 26 28 1 -1
BITMAP
003F0000
01FFE000
07FFF800
0FE1FC00
1FC0FE00
3F807F00
3F807F00
7F807F80
7F807F80
7F807F80
FF003FC0
FF003FC0
FF003FC0
FF003FC0
FF003FC0
FF003FC0
FF003FC0
FF003FC0
7F807F80
7F807F80
7F807F80
3F807F00
3F80FF00
1FC0FE00
0FE1FC00
07FFF800
01FFE000
003F0000
ENDCHAR
STARTCHAR Pi
ENCODING 928
SWIDTH 752 0
DWIDTH 30 0
BBX 28 26 1 0
BITMAP
FFFFFFF0
FFFFFFF0
3FE07FC0
1FE07F80
1FE07F80
1FE07F80
1FE07F80
1FE07F80
1FE07F80
1FE07F80
1FE07F80
1FE07F80
1FE07F80
1FE07F80
1FE07F80
1FE07F80
1FE07F80
1FE07F80
1FE07F80
1FE07F80
1FE07F80
1FE07F80
1FE07F80
7FF0FFE0
FFF9FFF0
FFF9FFF0
ENDCHAR
STARTCHAR Rho
ENCODING 929
SWIDTH 622 0
DWIDTH 25 0
BBX 23 26 1 0
BITMAP
FFFF80
FFFFF0
3FEFF8
1FE1FC
1FE1FE
1FE0FE
1FE0FE
1FE0FE
1FE0FE
1FE0FE
1FE0FE
1FE1FC
1FE1FC
1FE7F8
1FFFF0
1FFF80
1FE000
1FE000
1FE000
1FE000
1FE000
1FE000
1FE000
7FF800
FFFC00
FFFC00
ENDCHAR
STARTCHAR Sigma
ENCODING 931
SWIDTH 568 0
DWIDTH 23 0
BBX 21 26 1 0
BITMAP
7FFFF0
7FFFF0
7F00F0
7F00F0
3F80F0
1F80F0
1FC0F0
0FE070
0FE000
07F000
03F000
03F800
01F800
01F000
01E000
03C078
078078
0F0078
1F0078
3E00F8
3C00F8
7FFFF8
FFFFF8
FFFFF8
FFFFF0
FFFFF0
ENDCHAR
STARTCHAR Tau
ENCODING 932
SWIDTH 646 0
DWIDTH 26 0
BBX 24 26 1 0
BITMAP
FFFFFF
FFFFFF
F0FF0F
F0FF0F
F0FF0F
F0FF0F
F0FF0F
00FF00
00FF00
00FF00
00FF00
00FF00
00FF00
00FF00
00FF00
00FF00
00FF00
00FF00
00FF00
00FF00
00FF00
00FF00
00FF00
03FFC0
07FFE0
07FFE0
ENDCHAR
STARTCHAR Upsilon
ENCODING 933
SWIDTH 621 0
DWIDTH 25 0
BBX 25 26 0 0
BITMAP
FFFC7F80
FFFC7F80
3FF03F00
1FE01C00
1FF01800
0FF03800
0FF83000
07F87000
07FC6000
03FCE000
03FEC000
03FFC000
01FF8000
01FF8000
00FF0000
00FF0000
007F0000
007F0000
007F0000
007F0000
007F0000
007F8000
007F8000
01FFE000
07FFF000
07FFF000
ENDCHAR
STARTCHAR Phi
ENCODING 934
SWIDTH 824 0
DWIDTH 33 0
BBX 29 27 2 0
BITMAP
00FFF800
00FFF800
00FFF800
001FC000
001FC000
03FFFE00
0FFFFF80
1FDFDFC0
3F1FC7E0
7F1FC7F0
FE1FC3F0
FE1FC3F8
FE1FC3F8
FE1FC3F8
FE1FC3F8
FE1FC3F8
FE1FC3F0
7F1FC7F0
3F9FCFE0
3FDFDFE0
0FFFFF80
03FFFE00
001FC000
001FC000
003FF000
00FFF800
00FFF800
ENDCHAR
STARTCHAR Chi
ENCODING 935
SWIDTH 657 0
DWIDTH 26 0
BBX 26 26 0 0
BITMAP
FFF8FF80
FFF8FF80
3FE03C00
1FF03800
0FF87000
0FF87000
07FCE000
03FDC000
03FFC000
01FF8000
01FF8000
00FF8000
00FF8000
007FC000
007FC000
00FFE000
00FFE000
01DFF000
038FF800
038FF800
0707FC00
0F03FC00
0E03FE00
3E07FF80
FF0FFFC0
FF0FFFC0
ENDCHAR
STARTCHAR Psi
ENCODING 936
SWIDTH 852 0
DWIDTH 34 0
BBX 34 26 0 0
BITMAP
FC1FFE0FC0
FF1FFE3FC0
7F87F83F80
3F87F87F00
1F87F87E00
1F87F87E00
1F87F87E00
1FC7F87E00
1FC7F8FE00
1FC7F8FE00
0FC7F8FE00
0FC7F8FC00
0FC7F8FC00
07E7F9F800
03F7FBF800
01FFFFE000
007FFF8000
0007F80000
0007F80000
0007F80000
0007F80000
0007F80000
0007F80000
000FFC0000
001FFE0000
001FFE0000
ENDCHAR
STARTCHAR Omega.dup8
ENCODING 937
SWIDTH 744 0
DWIDTH 30 0
BBX 29 27 0 0
BITMAP
001FE000
00FFFC00
03FFFF00
07F03F80
0FE01FC0
1FE01FC0
1FC00FE0
3FC00FE0
3FC00FF0
3FC00FF0
3FC00FF0
3FC00FF0
3FC00FF0
3FC00FF0
3FC00FF0
1FC00FE0
1FC01FE0
0FE01FC0
07E03F80
E3F07F38
F1F8FC38
7078F038
7FF87FF8
7FF87FF8
7FF87FF8
7FF87FF8
7FF87FF8
ENDCHAR
STARTCHAR Iotadieresis
ENCODING 938
SWIDTH 395 0
DWIDTH 16 0
BBX 14 34 1 0
BITMAP
7878
FCFC
FCFC
FCFC
FCFC
7878
0000
0000
FFFC
FFFC
3FF0
1FE0
1FE0
1FE0
1FE0
1FE0
1FE0
1FE0
1FE0
1FE0
1FE0
1FE0
1FE0
1FE0
1FE0
1FE0
1FE0
1FE0
1FE0
1FE0
1FE0
7FF0
FFFC
FFFC
ENDCHAR
STARTCHAR Upsilondieresis
ENCODING 939
SWIDTH 621 0
DWIDTH 25 0
BBX 25 34 0 0
BITMAP
00F03C00
01F87E00
01F87E00
01F87E00
01F87E00
00F03C00
00000000
00000000
FFFC7F80
FFFC7F80
3FF03F00
1FE01C00
1FF01800
0FF03800
0FF83000
07F87000
07FC6000
03FCE000
03FEC000
03FFC000
01FF8000
01FF8000
00FF0000
00FF0000
007F0000
007F0000
007F0000
007F0000
007F0000
007F8000
007F8000
01FFE000
07FFF000
07FFF000
ENDCHAR
STARTCHAR alphatonos
ENCODING 940
SWIDTH 599 0
DWIDTH 24 0
BBX 23 32 1 -1
BITMAP
001E00
003E00
003E00
003E00
007C00
007C00
007800
007000
00E000
002000
000000
07E078
1FF7F8
3FFFF0
3F9FF0
7F07F0
7F07F0
FE07F0
FE07F0
FE07F0
FE07F0
FE07E0
FE07E0
FE07E0
FE07E0
FE0FE0
7F0FF0
7F9FFC
3FFBFE
1FF3FE
0FE1FC
010060
ENDCHAR
STARTCHAR epsilontonos
ENCODING 941
SWIDTH 509 0
DWIDTH 20 0
BBX 19 32 1 -1
BITMAP
001E00
003E00
003E00
003E00
003C00
007C00
007800
007000
00F000
002000
000000
07FC00
1FFF80
3F9FC0
7F0FC0
7E07C0
7E0380
7F0000
3F8000
3FF800
0FF800
0FF800
3FF800
7F0000
7E0000
FE00C0
FF01E0
FFFFC0
7FFF80
3FFF00
1FFC00
03C000
ENDCHAR
STARTCHAR etatonos
ENCODING 942
SWIDTH 597 0
DWIDTH 24 0
BBX 22 39 0 -8
BITMAP
000F00
001F00
001F00
001F00
001E00
003E00
003C00
003800
007800
001000
000000
1E07E0
7F8FF0
FFDFF8
FFFFF8
3FFFF8
1FE1F8
1FC1FC
1FC1FC
1FC1FC
1FC1FC
1FC1FC
1FC1FC
1FC1FC
1FC1FC
1FC1FC
1FC1FC
1FC1FC
1FC1FC
3FC1FC
3FC1FC
1801FC
0001FC
0003FC
0003FC
0003FC
0003FC
0003FC
000300
ENDCHAR
STARTCHAR iotatonos
ENCODING 943
SWIDTH 330 0
DWIDTH 13 0
BBX 11 32 2 -1
BITMAP
0780
0F80
0F80
1F80
1F00
1E00
1E00
3C00
3800
0800
0000
0700
FF00
FF00
FF00
FF00
FF00
FF00
FF00
FF00
7F00
7E00
7E00
7E00
7E00
7E00
7F00
7FE0
7FE0
7FE0
3FC0
0600
ENDCHAR
STARTCHAR upsilondieresistonos
ENCODING 944
SWIDTH 557 0
DWIDTH 22 0
BBX 21 33 0 -1
BITMAP
003C00
003E00
003E00
003E00
0F3CF0
1F3DF0
1F39F0
0F38F0
003800
003000
000000
000000
1F01E0
7F83F0
FFC3F0
FFC3F0
3FC3F0
1FC3F8
1FC3F8
1FC1F8
1FC0F8
1FC0F8
1FC078
1FC038
1FC038
1FC078
1FC070
1FC070
1FE0F0
0FFFE0
07FFC0
03FF80
003800
ENDCHAR
STARTCHAR alpha
ENCODING 945
SWIDTH 599 0
DWIDTH 24 0
BBX 23 21 1 -1
BITMAP
07E078
1FF7F8
3FFFF0
3F9FF0
7F07F0
7F07F0
FE07F0
FE07F0
FE07F0
FE07F0
FE07E0
FE07E0
FE07E0
FE07E0
FE0FE0
7F0FF0
7F9FFC
3FFBFE
1FF3FE
0FE1FC
010060
ENDCHAR
STARTCHAR beta
ENCODING 946
SWIDTH 601 0
DWIDTH 24 0
BBX 21 37 2 -8
BITMAP
00FC00
07FF80
0FDFC0
1F0FC0
3F07E0
3F07E0
7E07E0
7E07E0
7E07E0
7E07C0
FE0FC0
FE1F80
FE3F00
FEFC00
FE7F00
FE7FC0
FE3FE0
FE07F0
FE03F0
FE03F8
FE03F8
FE03F8
FE03F8
FE03F8
FE07F0
FF0FF0
FFFFE0
FFFFC0
FEFF80
FF1C00
FF0000
FF0000
FF0000
FF0000
FF0000
FF8000
C00000
ENDCHAR
STARTCHAR gamma
ENCODING 947
SWIDTH 557 0
DWIDTH 22 0
BBX 21 28 0 -8
BITMAP
1F00F0
7F81F8
7FC3F8
FFC3F8
FFE3F8
1FE3F8
0FE1F8
0FF1F0
07F1F0
07F0F0
07F0E0
03F9E0
03F9C0
03F9C0
01FB80
01FB80
01FF00
00FE00
00FE00
00FC00
00FE00
007E00
00FE00
00FE00
00FE00
00FE00
01FE00
00C000
ENDCHAR
STARTCHAR delta
ENCODING 948
SWIDTH 552 0
DWIDTH 22 0
BBX 20 30 1 -1
BITMAP
00FC00
07FF00
0F1FC0
1F0FE0
3F0FE0
3F87E0
3FC3E0
3FE000
1FF800
1FFC00
0FFE00
03FF00
01FF80
07FFC0
1FFFE0
3F9FE0
7F0FF0
FF0FF0
FF07F0
FE07F0
FE07F0
FE07F0
FE07F0
FE07F0
FF07E0
7F07C0
7F8FC0
1FFF00
0FFE00
006000
ENDCHAR
STARTCHAR epsilon
ENCODING 949
SWIDTH 509 0
DWIDTH 20 0
BBX 19 21 1 -1
BITMAP
07FC00
1FFF80
3F9FC0
7F0FC0
7E07C0
7E0380
7F0000
3F8000
3FF800
0FF800
0FF800
3FF800
7F0000
7E0000
FE00C0
FF01E0
FFFFC0
7FFF80
3FFF00
1FFC00
03C000
ENDCHAR
STARTCHAR zeta
ENCODING 950
SWIDTH 437 0
DWIDTH 17 0
BBX 16 37 1 -8
BITMAP
7FFE
7FFF
7FFF
7FFF
7FFE
003C
007C
00F8
01F0
03E0
07C0
0FC0
1F80
1F00
3F00
7E00
7E00
FC00
FC00
FC00
FC00
FC00
FE00
FF80
FFE0
7FF8
3FFC
1FFE
07FE
01FE
003E
001E
001E
001E
003C
0038
0078
ENDCHAR
STARTCHAR eta
ENCODING 951
SWIDTH 597 0
DWIDTH 24 0
BBX 22 28 0 -8
BITMAP
1E07E0
7F8FF0
FFDFF8
FFFFF8
3FFFF8
1FE1F8
1FC1FC
1FC1FC
1FC1FC
1FC1FC
1FC1FC
1FC1FC
1FC1FC
1FC1FC
1FC1FC
1FC1FC
1FC1FC
1FC1FC
3FC1FC
3FC1FC
1801FC
0001FC
0003FC
0003FC
0003FC
0003FC
0003FC
000300
ENDCHAR
STARTCHAR theta
ENCODING 952
SWIDTH 530 0
DWIDTH 21 0
BBX 19 30 1 -1
BITMAP
00F000
07FE00
0FFF00
1F1F80
3E1F80
3E0FC0
7E0FC0
7E0FC0
7E0FE0
7E0FE0
FE0FE0
FE0FE0
FE0FE0
FFFFE0
FFFFE0
FFFFE0
FE0FE0
FE0FE0
FE0FE0
FE0FE0
FE0FE0
7E0FC0
7E0FC0
7E0FC0
3F0F80
3F0F80
1F9F00
0FFE00
07FC00
00E000
ENDCHAR
STARTCHAR iota
ENCODING 953
SWIDTH 330 0
DWIDTH 13 0
BBX 11 21 2 -1
BITMAP
0700
FF00
FF00
FF00
FF00
FF00
FF00
FF00
FF00
7F00
7E00
7E00
7E00
7E00
7E00
7F00
7FE0
7FE0
7FE0
3FC0
0600
ENDCHAR
STARTCHAR kappa
ENCODING 954
SWIDTH 577 0
DWIDTH 23 0
BBX 22 21 0 -1
BITMAP
1E0038
7F80FC
FF81FC
FFC3FC
3FC7FC
1FCFF8
1FDFC0
1FDC00
1FF800
1FF800
1FFC00
1FEE00
1FCF00
1FCF80
1FC7E0
1FC7FC
1FC7FC
1FC3FC
3FC3F8
3FC1F0
180060
ENDCHAR
STARTCHAR lambda
ENCODING 955
SWIDTH 609 0
DWIDTH 24 0
BBX 25 30 0 -1
BITMAP
07800000
1FC00000
3FE00000
7FE00000
7FF00000
7CF00000
20380000
00180000
00180000
003C0000
003C0000
007C0000
007E0000
00FE0000
00FE0000
01FF0000
01FF0000
03FF0000
03FB8000
07F38000
07F38000
0FF3C000
0FE1E000
1FE1F000
3FE1FF80
3FC1FF80
7FC0FF00
7F80FF00
FF807E00
00001800
ENDCHAR
STARTCHAR mu
ENCODING 956
SWIDTH 596 0
DWIDTH 24 0
BBX 22 28 2 -8
BITMAP
0F01E0
FF0FE0
FE0FE0
FE0FE0
FE0FE0
FE0FE0
7E0FE0
7E0FE0
7E0FE0
7E0FE0
7E0FE0
7E0FC0
7E0FC0
7E0FC0
7E0FC0
7FBFE0
7FFFF8
7FFFFC
7FF7F8
7DE3F0
7C80C0
7E0000
FE0000
FE0000
FE0000
FE0000
FE0000
C00000
ENDCHAR
STARTCHAR nu
ENCODING 957
SWIDTH 558 0
DWIDTH 22 0
BBX 21 20 0 0
BITMAP
1F00F0
3F81F8
7FC3F8
FFE3F8
7FE3F8
1FE3F8
0FF1F8
0FF1F0
07F1F0
07F1F0
07F8E0
03F9E0
03F9C0
03F9C0
01FB80
01FB80
01FF00
00FF00
00FE00
00FC00
ENDCHAR
STARTCHAR xi
ENCODING 958
SWIDTH 451 0
DWIDTH 18 0
BBX 16 37 1 -8
BITMAP
FFFE
FFFF
FFFF
FFFF
FFFF
01F0
0F80
1F00
3F00
3F00
3F00
3FE0
3FFE
3FFE
1FFE
07FE
0FFE
3F00
7C00
7C00
FC00
FC00
FE00
FF80
FFE0
7FF8
3FFE
1FFE
07FF
00FF
003F
001F
001E
001E
001C
003C
0038
ENDCHAR
STARTCHAR omicron
ENCODING 959
SWIDTH 560 0
DWIDTH 22 0
BBX 20 21 1 -1
BITMAP
03FC00
0FFF00
1FBFC0
3F1FE0
7E0FE0
7E0FF0
7E07F0
FE07F0
FE07F0
FE07F0
FE07F0
FE07F0
FE07F0
FF07F0
7F07F0
7F07E0
3F87E0
3F8FC0
1FFF80
07FE00
006000
ENDCHAR
STARTCHAR pi
ENCODING 960
SWIDTH 623 0
DWIDTH 25 0
BBX 24 21 0 -1
BITMAP
01FFFF
1FFFFF
7FFFFF
FFFFFF
FFFFFF
7FFFFF
01C3E0
01C3E0
01C3E0
01C7E0
01C7E0
03C7E0
03C7E0
03C7F0
3FC7F0
7FC7F0
7F87FF
7F87FF
7F83FF
3F01FE
0C0030
ENDCHAR
STARTCHAR rho
ENCODING 961
SWIDTH 601 0
DWIDTH 24 0
BBX 20 28 2 -8
BITMAP
03FC00
0FFF00
1FBFC0
3F1FC0
3E0FE0
7E0FE0
7E0FE0
7E07F0
FE07F0
FE07F0
FE07F0
FE07F0
FE07F0
FE07E0
FE0FE0
FE0FE0
FE0FC0
FFFFC0
FFFF80
FEFE00
FE1000
FF0000
FF0000
FF0000
FF0000
FF0000
FF0000
C00000
ENDCHAR
STARTCHAR uni03C2
ENCODING 962
SWIDTH 469 0
DWIDTH 19 0
BBX 17 28 1 -8
BITMAP
03FC00
0FFF00
1FBF80
3F3F80
3E1F00
7C0600
7C0000
FC0000
FC0000
FC0000
FC0000
FC0000
FE0000
FF0000
7F8000
7FF000
3FFC00
1FFE00
0FFF00
03FF00
00FF00
001F00
001F00
001F00
001E00
001E00
001C00
003800
ENDCHAR
STARTCHAR sigma
ENCODING 963
SWIDTH 633 0
DWIDTH 25 0
BBX 24 21 1 -1
BITMAP
001FFE
03FFFE
0FFFFE
1F9FFE
3F0FFE
7F0F81
7E0FC0
FE07E0
FE07F0
FE07F0
FE07F0
FE07F0
FE07F0
FE07F0
7F07E0
7F07E0
3F07C0
3F8FC0
1FFF80
07FE00
006000
ENDCHAR
STARTCHAR tau
ENCODING 964
SWIDTH 485 0
DWIDTH 19 0
BBX 19 21 0 -1
BITMAP
01FFC0
1FFFC0
7FFFC0
FFFFC0
FFFFE0
7FFFE0
01F000
01F000
03F000
03F000
03F000
03F000
03F000
03F000
03F000
03F000
03FF00
03FF80
03FF00
01FE00
003800
ENDCHAR
STARTCHAR upsilon
ENCODING 965
SWIDTH 557 0
DWIDTH 22 0
BBX 21 21 0 -1
BITMAP
1F01E0
7F83F0
FFC3F0
FFC3F0
3FC3F0
1FC3F8
1FC3F8
1FC1F8
1FC0F8
1FC0F8
1FC078
1FC038
1FC038
1FC078
1FC070
1FC070
1FE0F0
0FFFE0
07FFC0
03FF80
003800
ENDCHAR
STARTCHAR phi
ENCODING 966
SWIDTH 774 0
DWIDTH 31 0
BBX 29 34 1 -8
BITMAP
000F8000
000F8000
000F8000
000F8000
000F8000
000F8000
00FFFC00
07FFFF00
0FEFBFC0
3F8F8FE0
3F0F8FF0
7F0F87F0
7E0F87F0
FE0F83F8
FE0F83F8
FE0F83F8
FE0F83F8
FE0FC3F8
FE0FC3F8
FE0FC3F8
7F0FC3F0
7F0FC7F0
7F8FC7E0
3FCFCFC0
1FFFFF80
07FFFF00
007FF800
001FC000
001FC000
001FC000
001FC000
001FC000
001FC000
001F0000
ENDCHAR
STARTCHAR chi
ENCODING 967
SWIDTH 569 0
DWIDTH 23 0
BBX 23 28 0 -8
BITMAP
1F01FC
3F81FE
7F83FC
FFC3F8
7FC7F8
03E7F0
00EFF0
00EFE0
007FC0
007FC0
003F80
003F80
007F00
007F00
00FE00
00FC00
01FC00
03FE00
03FE00
07F600
07F700
0FF780
0FE7C0
1FE3FE
3FC3FE
3FC3FE
7F81FC
7F80F8
ENDCHAR
STARTCHAR psi
ENCODING 968
SWIDTH 799 0
DWIDTH 32 0
BBX 31 33 0 -8
BITMAP
0001F000
0001F000
0001F000
0001F000
0001F000
1F01F078
7F81F0FC
FFC1F0FC
FFC1F0FE
3FC1F0FE
1FC1F0FC
1FC1F0FC
1FC1F0FC
1FC1F07C
1FC1F07C
1FC1F03C
1FC3F03C
1FC3F038
1FC3F038
1FC3F078
0FE3F070
0FF3F0E0
07FFF7E0
03FFFF80
00FFFF00
0007F800
0003F800
0003F800
0003F800
0003F800
0003F800
0003F800
0003C000
ENDCHAR
STARTCHAR omega
ENCODING 969
SWIDTH 797 0
DWIDTH 32 0
BBX 29 21 1 -1
BITMAP
01800600
07C00F00
0F8007C0
1F8007E0
3F01C3F0
3F0FC3F0
7F0FC3F8
7E0FC3F8
7E0FC1F8
7E0FC1F8
FE0FC1F8
FE0FC1F8
FE0F81F8
7E0FC1F8
7E0FC3F8
7F0FC3F8
7F9FE7F0
3FFFFFF0
1FFCFFE0
0FF87FC0
01C00E00
ENDCHAR
STARTCHAR iotadieresis
ENCODING 970
SWIDTH 330 0
DWIDTH 13 0
BBX 15 30 -1 -1
BITMAP
3C3C
7E7E
FEFE
FEFE
7E7E
7C7C
0000
0000
0000
00E0
1FE0
1FE0
1FE0
1FE0
1FE0
1FE0
1FE0
1FE0
0FE0
0FC0
0FC0
0FC0
0FC0
0FC0
0FE0
0FFC
0FFC
0FFC
07F8
00C0
ENDCHAR
STARTCHAR upsilondieresis
ENCODING 971
SWIDTH 557 0
DWIDTH 22 0
BBX 21 30 0 -1
BITMAP
0F03C0
1F87E0
1F87E0
1F87F0
1F87E0
0F03E0
000000
000000
000000
1F01E0
7F83F0
FFC3F0
FFC3F0
3FC3F0
1FC3F8
1FC3F8
1FC1F8
1FC0F8
1FC0F8
1FC078
1FC038
1FC038
1FC078
1FC070
1FC070
1FE0F0
0FFFE0
07FFC0
03FF80
003800
ENDCHAR
STARTCHAR omicrontonos
ENCODING 972
SWIDTH 560 0
DWIDTH 22 0
BBX 20 32 1 -1
BITMAP
001E00
003F00
003E00
003E00
003E00
007C00
007800
007000
007000
002000
000000
03FC00
0FFF00
1FBFC0
3F1FE0
7E0FE0
7E0FF0
7E07F0
FE07F0
FE07F0
FE07F0
FE07F0
FE07F0
FE07F0
FF07F0
7F07F0
7F07E0
3F87E0
3F8FC0
1FFF80
07FE00
006000
ENDCHAR
STARTCHAR upsilontonos
ENCODING 973
SWIDTH 557 0
DWIDTH 22 0
BBX 21 32 0 -1
BITMAP
000F00
001F00
001F00
001F00
001E00
003E00
003C00
003800
007800
001000
000000
1F01E0
7F83F0
FFC3F0
FFC3F0
3FC3F0
1FC3F8
1FC3F8
1FC1F8
1FC0F8
1FC0F8
1FC078
1FC038
1FC038
1FC078
1FC070
1FC070
1FE0F0
0FFFE0
07FFC0
03FF80
003800
ENDCHAR
STARTCHAR omegatonos
ENCODING 974
SWIDTH 797 0
DWIDTH 32 0
BBX 29 32 1 -1
BITMAP
0000F000
0000F800
0001F800
0001F000
0001F000
0001E000
0003C000
0003C000
00038000
00010000
00000000
01800600
07C00F00
0F8007C0
1F8007E0
3F01C3F0
3F0FC3F0
7F0FC3F8
7E0FC3F8
7E0FC1F8
7E0FC1F8
FE0FC1F8
FE0FC1F8
FE0F81F8
7E0FC1F8
7E0FC3F8
7F0FC3F8
7F9FE7F0
3FFFFFF0
1FFCFFE0
0FF87FC0
01C00E00
ENDCHAR
STARTCHAR uni03D7
ENCODING 983
SWIDTH 724 0
DWIDTH 29 0
BBX 27 29 0 -9
BITMAP
01E00780
07F80FC0
0FF83FC0
0FFC7FC0
03FC7F80
01FCFF80
01FDF800
01FF8000
01FF8000
01FF8000
01FFC000
01FDE000
01FCF000
01FCF800
01FCFE00
01FC7FE0
01FC7FE0
03F83FC0
43F81FC0
E3F80FC0
71000780
78000780
7C001F00
7F80FE00
3FFFFE00
1FFFFC00
0FFFF800
07FFE000
01FF8000
ENDCHAR
STARTCHAR uni03D9
ENCODING 985
SWIDTH 556 0
DWIDTH 22 0
BBX 20 28 1 -8
BITMAP
03FC00
0FFF00
1FBFC0
3F1FE0
7E0FE0
7E0FF0
7E07F0
FE07F0
FE07F0
FE07F0
FE07F0
FE07F0
FE07F0
FF07F0
7F07F0
7F07E0
3F87E0
3F8FC0
1FFF80
07FE00
00FC00
00FC00
00FC00
00FC00
01FC00
01FC00
01FE00
00C000
ENDCHAR
STARTCHAR uni03DB
ENCODING 987
SWIDTH 500 0
DWIDTH 20 0
BBX 19 32 1 -8
BITMAP
0000E0
0000E0
0001C0
0001C0
000FC0
03FFC0
0FFF80
1FFF80
3FFF00
7FFF00
7FFC00
7C0000
F00000
F00000
F00000
F00000
F80000
7E0000
7F8000
7FF000
3FFC00
3FFE00
0FFF00
07FF00
01FF00
003F80
001F00
000F00
000F00
001E00
001E00
003C00
ENDCHAR
STARTCHAR uni03DD
ENCODING 989
SWIDTH 484 0
DWIDTH 19 0
BBX 16 28 2 -8
BITMAP
0007
FFFF
FFFF
FF0F
FF00
7E00
7E00
7E00
7E00
7E00
7E00
7E00
7FFE
7FFE
7E7E
7E00
7E00
7E00
7E00
7E00
7E00
7E00
FF00
FF00
FF00
FF00
FF00
E000
ENDCHAR
STARTCHAR uni03E1
ENCODING 993
SWIDTH 612 0
DWIDTH 24 0
BBX 21 36 1 -7
BITMAP
780000
7F0000
7FC000
3FF000
0FF800
07FC00
03FE00
01FF00
00FF80
007FC0
003FC0
007FE0
07FFE0
7FFFF0
FFFFF0
7F8FF0
7E07F8
7807F8
4003F8
0003F8
003FF8
01FFF8
1FFFF8
1FF9F8
0FE1F8
0F81F8
0E01F8
0001F0
0001F0
0001F0
0003F0
0003E0
0003E0
0003C0
0003C0
000380
ENDCHAR
STARTCHAR uni0400
ENCODING 1024
SWIDTH 591 0
DWIDTH 24 0
BBX 22 35 1 0
BITMAP
0F0000
0F8000
0FC000
0FF000
07F800
01FC00
003C00
000800
000000
FFFFF8
FFFFF8
3FE078
1FE078
1FE078
1FE078
1FE078
1FE000
1FE1C0
1FE1C0
1FE1C0
1FFFC0
1FFFC0
1FFFC0
1FE1C0
1FE1C0
1FE1C0
1FE000
1FE000
1FE03C
1FE03C
1FE03C
1FE07C
7FE07C
FFFFFC
FFFFFC
ENDCHAR
STARTCHAR uni0401
ENCODING 1025
SWIDTH 591 0
DWIDTH 24 0
BBX 22 34 1 0
BITMAP
0F01C0
1F83E0
1F87F0
1F87F0
1F83E0
0F01C0
000000
000000
FFFFF8
FFFFF8
3FE078
1FE078
1FE078
1FE078
1FE078
1FE000
1FE1C0
1FE1C0
1FE1C0
1FFFC0
1FFFC0
1FFFC0
1FE1C0
1FE1C0
1FE1C0
1FE000
1FE000
1FE03C
1FE03C
1FE03C
1FE07C
7FE07C
FFFFFC
FFFFFC
ENDCHAR
STARTCHAR uni0402
ENCODING 1026
SWIDTH 742 0
DWIDTH 30 0
BBX 28 29 1 -3
BITMAP
FFFFFF00
FFFFFF00
F1FF0F00
F1FF0F00
F0FE0F00
F0FE0F00
F0FE0F00
00FE0000
00FE0000
00FE0000
00FFFF00
00FFFFC0
00FE3FE0
00FE0FE0
00FE0FF0
00FE0FF0
00FE0FF0
00FE0FF0
00FE0FF0
00FE0FF0
00FE0FF0
00FE0FF0
00FE0FE0
03FE0FE0
0FFF1FC0
0FFF3F80
00007F00
00007E00
00007000
ENDCHAR
STARTCHAR uni0403
ENCODING 1027
SWIDTH 580 0
DWIDTH 23 0
BBX 21 35 1 0
BITMAP
0001E0
0003E0
0007E0
001FE0
003FC0
007E00
007800
002000
000000
FFFFF8
FFFFF8
3FE078
1FE078
1FE078
1FE078
1FE078
1FE038
1FE000
1FE000
1FE000
1FE000
1FE000
1FE000
1FE000
1FE000
1FE000
1FE000
1FE000
1FE000
1FE000
1FE000
1FE000
7FF800
FFFC00
FFFC00
ENDCHAR
STARTCHAR uni0404
ENCODING 1028
SWIDTH 605 0
DWIDTH 24 0
BBX 22 28 1 -1
BITMAP
003F80
01FFF8
07FFFC
0FE07C
1FC03C
3F803C
3F803C
7F003C
7F0000
FF0000
FF0380
FF0380
FFFF80
FFFF80
FFFF80
FF0380
FF0380
FF0380
FF0000
7F001C
7F001C
7F803C
3F803C
1FC03C
0FE03C
07FFFC
01FFF0
001F80
ENDCHAR
STARTCHAR uni0405
ENCODING 1029
SWIDTH 553 0
DWIDTH 22 0
BBX 20 28 1 -1
BITMAP
01FE00
07FFC0
1FFFE0
3F83E0
7F03E0
7F03E0
7F03E0
7F03E0
7F8000
7FC000
7FF000
7FFC00
3FFF00
1FFF80
0FFFC0
07FFE0
01FFF0
007FF0
001FF0
000FF0
F807F0
F807F0
F807F0
F807E0
F80FC0
FFFF80
3FFF00
07F800
ENDCHAR
STARTCHAR uni0406
ENCODING 1030
SWIDTH 395 0
DWIDTH 16 0
BBX 14 26 1 0
BITMAP
FFFC
FFFC
3FF0
1FE0
1FE0
1FE0
1FE0
1FE0
1FE0
1FE0
1FE0
1FE0
1FE0
1FE0
1FE0
1FE0
1FE0
1FE0
1FE0
1FE0
1FE0
1FE0
1FE0
7FF0
FFFC
FFFC
ENDCHAR
STARTCHAR uni0407
ENCODING 1031
SWIDTH 395 0
DWIDTH 16 0
BBX 14 34 1 0
BITMAP
7878
FCFC
FCFC
FCFC
FCFC
7878
0000
0000
FFFC
FFFC
3FF0
1FE0
1FE0
1FE0
1FE0
1FE0
1FE0
1FE0
1FE0
1FE0
1FE0
1FE0
1FE0
1FE0
1FE0
1FE0
1FE0
1FE0
1FE0
1FE0
1FE0
7FF0
FFFC
FFFC
ENDCHAR
STARTCHAR uni0408
ENCODING 1032
SWIDTH 404 0
DWIDTH 16 0
BBX 19 33 -4 -7
BITMAP
07FFE0
07FFE0
01FF80
00FF00
00FF00
00FF00
00FF00
00FF00
00FF00
00FF00
00FF00
00FF00
00FF00
00FF00
00FF00
007F00
007F00
007F00
007F00
007F00
007F00
007F00
007F00
007F00
007E00
007E00
007E00
78FC00
FCFC00
FEF800
FFF000
7FE000
3F8000
ENDCHAR
STARTCHAR uni0409
ENCODING 1033
SWIDTH 945 0
DWIDTH 38 0
BBX 37 27 0 -1
BITMAP
01FFFFE000
01FFFFE000
00F87F8000
00387F8000
00387F8000
00387F8000
00387F8000
00307F8000
00307F8000
00307F8000
00307FFF00
00707FFFC0
00707F9FE0
00707F8FF0
00707F87F8
00607F87F8
00E07F87F8
00E07F83F8
00E07F83F8
01C07F87F8
3DC07F87F8
7FC07F87F0
FF807F8FF0
FF81FFFFE0
7F03FFFF80
7E03FFFE00
1800000000
ENDCHAR
STARTCHAR uni040A
ENCODING 1034
SWIDTH 992 0
DWIDTH 40 0
BBX 38 26 1 0
BITMAP
FFF9FFF000
FFF9FFF000
3FE07FC000
1FE07F8000
1FE07F8000
1FE07F8000
1FE07F8000
1FE07F8000
1FE07F8000
1FE07F8000
1FE07FF800
1FFFFFFFC0
1FFFFFFFF0
1FE07F87F8
1FE07F83F8
1FE07F83FC
1FE07F83FC
1FE07F83FC
1FE07F83FC
1FE07F83FC
1FE07F83FC
1FE07F83F8
1FE07F87F8
7FF0FFBFF0
FFF9FFFFC0
FFF9FFFE00
ENDCHAR
STARTCHAR uni040B
ENCODING 1035
SWIDTH 790 0
DWIDTH 32 0
BBX 30 26 1 0
BITMAP
FFFFFF00
FFFFFF00
F1FF0F00
F1FF0F00
F0FF0F00
F0FF0F00
F0FF0F00
00FE0000
00FE0000
00FE0000
00FFFF80
00FFFFC0
00FE1FE0
00FE0FF0
00FE0FF0
00FE07F0
00FE07F0
00FE07F0
00FE07F0
00FE07F0
00FE07F0
00FE07F0
00FF07F0
03FF0FF8
0FFFDFFC
0FFFDFFC
ENDCHAR
STARTCHAR uni040C
ENCODING 1036
SWIDTH 715 0
DWIDTH 29 0
BBX 27 36 1 -1
BITMAP
00007800
0000FC00
0001FC00
0003FC00
0007F000
000FC000
000F0000
00040000
00000700
FFF80F80
FFF81FC0
3FE03FC0
1FE03FC0
1FE07F80
1FE07F00
1FE06000
1FE0E000
1FE0E000
1FE1C000
1FE1C000
1FFF8000
1FFF0000
1FFFF000
1FE3F800
1FE1FC00
1FE0FE00
1FE0FE00
1FE0FF00
1FE0FF00
1FE0FF00
1FE07F00
1FE07F80
7FF07FC0
FFF87FE0
FFF83FE0
00000380
ENDCHAR
STARTCHAR uni040D
ENCODING 1037
SWIDTH 772 0
DWIDTH 31 0
BBX 29 35 1 0
BITMAP
00E00000
01F80000
01FC0000
01FE0000
00FF0000
001F8000
00078000
00010000
00000000
FFF8FFF8
FFF8FFF8
3FE03FE0
1FE01FC0
1FE01FC0
1FE03FC0
1FE07FC0
1FE07FC0
1FE0FFC0
1FE1FFC0
1FE1FFC0
1FE3BFC0
1FE73FC0
1FE73FC0
1FCE3FC0
1FDC3FC0
1FDC3FC0
1FF83FC0
1FF03FC0
1FF03FC0
1FE03FC0
1FC03FC0
1FC03FC0
7FF07FF0
FFF8FFF8
FFF8FFF8
ENDCHAR
STARTCHAR uni040E
ENCODING 1038
SWIDTH 661 0
DWIDTH 26 0
BBX 26 38 0 -3
BITMAP
00F80F00
00F81F00
00F81F80
00F81F00
00F00F00
007FFE00
001FFC00
00000000
00000000
FFFC3FC0
FFFC3FC0
3FF00F80
1FE00700
1FF00E00
0FF00E00
0FF81C00
07F81C00
07F83800
07FC3800
03FC3800
03FC7000
01FE7000
01FEE000
00FFE000
00FFC000
007FC000
007F8000
003F8000
003F8000
001F0000
001F0000
000E0000
0F8E0000
1FDC0000
1FF80000
1FF80000
1FF00000
0FE00000
ENDCHAR
STARTCHAR uni040F
ENCODING 1039
SWIDTH 742 0
DWIDTH 30 0
BBX 28 34 1 -8
BITMAP
FFF9FFF0
FFF9FFF0
3FE07F80
1FE07F80
1FE07F80
1FE07F80
1FE07F80
1FE07F80
1FE07F80
1FE07F80
1FE07F80
1FE07F80
1FE07F80
1FE07F80
1FE07F80
1FE07F80
1FE07F80
1FE07F80
1FE07F80
1FE07F80
1FE07F80
1FE07F80
1FE07F80
7FFFFFC0
FFFFFFF0
FFFFFFF0
001F0000
000F0000
000F0000
000F0000
000F0000
000F0000
000F0000
000F0000
ENDCHAR
STARTCHAR uni0410
ENCODING 1040
SWIDTH 680 0
DWIDTH 27 0
BBX 27 26 0 0
BITMAP
001F8000
001F8000
001F8000
003FC000
003FC000
003FC000
007FE000
007FE000
006FE000
00CFF000
00CFF000
00C7F000
0187F800
0187F800
0183F800
0383FC00
03FFFC00
07FFFC00
07FFFE00
0601FE00
0E00FE00
0E00FF00
0C00FF00
7F01FF00
FF83FFE0
FF83FFE0
ENDCHAR
STARTCHAR uni0411
ENCODING 1041
SWIDTH 626 0
DWIDTH 25 0
BBX 23 26 1 0
BITMAP
FFFFF8
FFFFF8
3FE078
1FE078
1FE078
1FE078
1FE078
1FE000
1FE000
1FE000
1FFF80
1FFFF0
1FFFF8
1FE3FC
1FE1FE
1FE1FE
1FE0FE
1FE0FE
1FE0FE
1FE0FE
1FE1FE
1FE1FE
1FE3FC
7FFFF8
FFFFF0
FFFF80
ENDCHAR
STARTCHAR uni0412
ENCODING 1042
SWIDTH 660 0
DWIDTH 26 0
BBX 25 26 1 0
BITMAP
FFFFE000
FFFFF800
3FEFFC00
1FE1FE00
1FE1FE00
1FE1FE00
1FE0FE00
1FE1FE00
1FE1FE00
1FE1FC00
1FE3F000
1FFFC000
1FFFF000
1FEFFC00
1FE1FE00
1FE0FF00
1FE0FF00
1FE07F80
1FE07F80
1FE07F80
1FE0FF00
1FE0FF00
1FE1FE00
7FEFFC00
FFFFF800
FFFFC000
ENDCHAR
STARTCHAR uni0413
ENCODING 1043
SWIDTH 580 0
DWIDTH 23 0
BBX 21 26 1 0
BITMAP
FFFFF8
FFFFF8
3FE078
1FE078
1FE078
1FE078
1FE078
1FE038
1FE000
1FE000
1FE000
1FE000
1FE000
1FE000
1FE000
1FE000
1FE000
1FE000
1FE000
1FE000
1FE000
1FE000
1FE000
7FF800
FFFC00
FFFC00
ENDCHAR
STARTCHAR uni0414
ENCODING 1044
SWIDTH 724 0
DWIDTH 29 0
BBX 28 34 0 -8
BITMAP
03FFFFE0
03FFFFE0
00F07F80
00307F80
00707F80
00707F80
00707F80
00707F80
00707F80
00607F80
00607F80
00E07F80
00E07F80
00E07F80
00C07F80
01C07F80
01C07F80
03807F80
03807F80
07807F80
07007F80
0F007F80
1E007F80
FFFFFFF0
FFFFFFF0
FFFFFFF0
F80000F0
F80000F0
F00000F0
F00000F0
F00000F0
F0000070
F0000070
F0000070
ENDCHAR
STARTCHAR uni0415
ENCODING 1045
SWIDTH 591 0
DWIDTH 24 0
BBX 22 26 1 0
BITMAP
FFFFF8
FFFFF8
3FE078
1FE078
1FE078
1FE078
1FE078
1FE000
1FE1C0
1FE1C0
1FE1C0
1FFFC0
1FFFC0
1FFFC0
1FE1C0
1FE1C0
1FE1C0
1FE000
1FE000
1FE03C
1FE03C
1FE03C
1FE07C
7FE07C
FFFFFC
FFFFFC
ENDCHAR
STARTCHAR uni0416
ENCODING 1046
SWIDTH 1000 0
DWIDTH 40 0
BBX 40 28 0 -1
BITMAP
0E00000070
3F03FFC0FC
3F83FFC1FC
3F80FF01FC
3FC0FF03FC
3FC0FF03FC
0FE0FF07F0
00E0FF0700
0060FF0600
0070FF0E00
0070FF0E00
0038FF1C00
001FFFF800
000FFFF000
00FFFFFF00
03F8FF1FC0
07F0FF0FE0
07F0FF0FE0
0FF0FF0FF0
0FF0FF0FF0
0FE0FF07F0
1FE0FF07F8
1FE0FF07F8
1FE0FF07F8
3FE1FF87FC
FFC3FFC3FF
FF83FFC1FF
1C0000003C
ENDCHAR
STARTCHAR uni0417
ENCODING 1047
SWIDTH 565 0
DWIDTH 23 0
BBX 21 28 1 -1
BITMAP
07FC00
3FFF80
7DFFC0
7C1FE0
7C0FF0
7C0FF0
7C07F0
7C07F0
0007F0
000FE0
000FE0
001F80
03FE00
03FF00
03FFC0
001FE0
000FF0
000FF8
000FF8
7807F8
F807F8
FC0FF8
FC0FF0
FC0FF0
7C1FE0
3FFFC0
1FFF00
01F800
ENDCHAR
STARTCHAR uni0418
ENCODING 1048
SWIDTH 772 0
DWIDTH 31 0
BBX 29 26 1 0
BITMAP
FFF8FFF8
FFF8FFF8
3FE03FE0
1FE01FC0
1FE01FC0
1FE03FC0
1FE07FC0
1FE07FC0
1FE0FFC0
1FE1FFC0
1FE1FFC0
1FE3BFC0
1FE73FC0
1FE73FC0
1FCE3FC0
1FDC3FC0
1FDC3FC0
1FF83FC0
1FF03FC0
1FF03FC0
1FE03FC0
1FC03FC0
1FC03FC0
7FF07FF0
FFF8FFF8
FFF8FFF8
ENDCHAR
STARTCHAR uni0419
ENCODING 1049
SWIDTH 772 0
DWIDTH 31 0
BBX 29 35 1 0
BITMAP
01E03C00
03F07E00
03F07E00
03E03E00
01E03C00
00FFF800
007FF000
00000000
00000000
FFF8FFF8
FFF8FFF8
3FE03FE0
1FE01FC0
1FE01FC0
1FE03FC0
1FE07FC0
1FE07FC0
1FE0FFC0
1FE1FFC0
1FE1FFC0
1FE3BFC0
1FE73FC0
1FE73FC0
1FCE3FC0
1FDC3FC0
1FDC3FC0
1FF83FC0
1FF03FC0
1FF03FC0
1FE03FC0
1FC03FC0
1FC03FC0
7FF07FF0
FFF8FFF8
FFF8FFF8
ENDCHAR
STARTCHAR uni041A
ENCODING 1050
SWIDTH 715 0
DWIDTH 29 0
BBX 27 28 1 -1
BITMAP
00000700
FFF80F80
FFF81FC0
3FE03FC0
1FE03FC0
1FE07F80
1FE07F00
1FE06000
1FE0E000
1FE0E000
1FE1C000
1FE1C000
1FFF8000
1FFF0000
1FFFF000
1FE3F800
1FE1FC00
1FE0FE00
1FE0FE00
1FE0FF00
1FE0FF00
1FE0FF00
1FE07F00
1FE07F80
7FF07FC0
FFF87FE0
FFF83FE0
00000380
ENDCHAR
STARTCHAR uni041B
ENCODING 1051
SWIDTH 715 0
DWIDTH 29 0
BBX 27 27 0 -1
BITMAP
01FFFFE0
01FFFFE0
00F87F80
00387F80
00387F80
00387F80
00387F80
00307F80
00307F80
00307F80
00307F80
00707F80
00707F80
00707F80
00707F80
00607F80
00E07F80
00E07F80
00E07F80
01C07F80
3DC07F80
7FC07F80
FF807F80
FF81FFC0
7F03FFE0
7E03FFE0
18000000
ENDCHAR
STARTCHAR uni041C
ENCODING 1052
SWIDTH 893 0
DWIDTH 36 0
BBX 35 26 0 0
BITMAP
7FF801FFC0
7FF801FFC0
1FFC01FF80
0FFC03FF00
0FFC03FF00
0FFE03FF00
0FFE07FF00
0FFE07FF00
0EFF06FF00
0EFF0EFF00
0EFF0EFF00
0E7F8CFF00
0E7F9CFF00
0E3F9CFF00
0E3FD8FF00
0E3FF8FF00
0E1FF8FF00
0E1FF0FF00
0E1FF0FF00
0E0FF0FF00
0E0FE0FF00
0E0FE0FF00
0E07E0FF00
3FC7C3FF80
FFC7C7FFE0
FFC3C7FFE0
ENDCHAR
STARTCHAR uni041D
ENCODING 1053
SWIDTH 756 0
DWIDTH 30 0
BBX 28 26 1 0
BITMAP
FFF9FFF0
FFF9FFF0
3FE07FC0
1FE07F80
1FE07F80
1FE07F80
1FE07F80
1FE07F80
1FE07F80
1FE07F80
1FE07F80
1FFFFF80
1FFFFF80
1FFFFF80
1FE07F80
1FE07F80
1FE07F80
1FE07F80
1FE07F80
1FE07F80
1FE07F80
1FE07F80
1FE07F80
7FF0FFE0
FFF9FFF0
FFF9FFF0
ENDCHAR
STARTCHAR uni041E
ENCODING 1054
SWIDTH 700 0
DWIDTH 28 0
BBX 26 28 1 -1
BITMAP
003F0000
01FFE000
07FFF800
0FE1FC00
1FC0FE00
3F807F00
3F807F00
7F807F80
7F807F80
7F807F80
FF003FC0
FF003FC0
FF003FC0
FF003FC0
FF003FC0
FF003FC0
FF003FC0
FF003FC0
7F807F80
7F807F80
7F807F80
3F807F00
3F80FF00
1FC0FE00
0FE1FC00
07FFF800
01FFE000
003F0000
ENDCHAR
STARTCHAR uni041F
ENCODING 1055
SWIDTH 746 0
DWIDTH 30 0
BBX 28 26 1 0
BITMAP
FFFFFFF0
FFFFFFF0
3FE07FC0
1FE07F80
1FE07F80
1FE07F80
1FE07F80
1FE07F80
1FE07F80
1FE07F80
1FE07F80
1FE07F80
1FE07F80
1FE07F80
1FE07F80
1FE07F80
1FE07F80
1FE07F80
1FE07F80
1FE07F80
1FE07F80
1FE07F80
1FE07F80
7FF0FFE0
FFF9FFF0
FFF9FFF0
ENDCHAR
STARTCHAR uni0420
ENCODING 1056
SWIDTH 622 0
DWIDTH 25 0
BBX 23 26 1 0
BITMAP
FFFF80
FFFFF0
3FEFF8
1FE1FC
1FE1FE
1FE0FE
1FE0FE
1FE0FE
1FE0FE
1FE0FE
1FE0FE
1FE1FC
1FE1FC
1FE7F8
1FFFF0
1FFF80
1FE000
1FE000
1FE000
1FE000
1FE000
1FE000
1FE000
7FF800
FFFC00
FFFC00
ENDCHAR
STARTCHAR uni0421
ENCODING 1057
SWIDTH 618 0
DWIDTH 25 0
BBX 23 28 1 -1
BITMAP
001FC0
00FFF8
03FFFC
0FF03C
1FE03E
3FC01E
3FC01E
7F801E
7F8000
7F8000
FF8000
FF0000
FF0000
FF0000
FF0000
FF0000
FF0000
FF8000
7F8000
7F800E
7F801E
3FC01E
3FC01E
1FE01E
0FF03E
07FFFE
01FFF8
001F80
ENDCHAR
STARTCHAR uni0422
ENCODING 1058
SWIDTH 646 0
DWIDTH 26 0
BBX 24 26 1 0
BITMAP
FFFFFF
FFFFFF
F0FF0F
F0FF0F
F0FF0F
F0FF0F
F0FF0F
00FF00
00FF00
00FF00
00FF00
00FF00
00FF00
00FF00
00FF00
00FF00
00FF00
00FF00
00FF00
00FF00
00FF00
00FF00
00FF00
03FFC0
07FFE0
07FFE0
ENDCHAR
STARTCHAR uni0423
ENCODING 1059
SWIDTH 661 0
DWIDTH 26 0
BBX 26 29 0 -3
BITMAP
FFFC3FC0
FFFC3FC0
3FF00F80
1FE00700
1FF00E00
0FF00E00
0FF81C00
07F81C00
07F83800
07FC3800
03FC3800
03FC7000
01FE7000
01FEE000
00FFE000
00FFC000
007FC000
007F8000
003F8000
003F8000
001F0000
001F0000
000E0000
0F8E0000
1FDC0000
1FF80000
1FF80000
1FF00000
0FE00000
ENDCHAR
STARTCHAR uni0424
ENCODING 1060
SWIDTH 784 0
DWIDTH 31 0
BBX 29 28 1 -1
BITMAP
00FFF800
00FFF800
00FFF800
001FC000
001FC000
03FFFF00
0FFFFF80
1FDFDFE0
3F9FC7F0
7F1FC7F0
7F1FC3F8
FE1FC3F8
FE1FC3F8
FE1FC3F8
FE1FC3F8
FE1FC3F8
7E1FC3F8
7F1FC3F0
7F1FC7F0
3F9FCFE0
1FFFFFC0
07FFFF80
01FFFC00
001FC000
001FC000
00FFF800
00FFF800
00FFF800
ENDCHAR
STARTCHAR uni0425
ENCODING 1061
SWIDTH 657 0
DWIDTH 26 0
BBX 26 26 0 0
BITMAP
FFF8FF80
FFF8FF80
3FE03C00
1FF03800
0FF87000
0FF87000
07FCE000
03FDC000
03FFC000
01FF8000
01FF8000
00FF8000
00FF8000
007FC000
007FC000
00FFE000
00FFE000
01DFF000
038FF800
038FF800
0707FC00
0F03FC00
0E03FE00
3E07FF80
FF0FFFC0
FF0FFFC0
ENDCHAR
STARTCHAR uni0426
ENCODING 1062
SWIDTH 762 0
DWIDTH 30 0
BBX 29 34 1 -8
BITMAP
FFF9FFF0
FFF9FFF0
3FE07F80
1FE07F80
1FE07F80
1FE07F80
1FE07F80
1FE07F80
1FE07F80
1FE07F80
1FE07F80
1FE07F80
1FE07F80
1FE07F80
1FE07F80
1FE07F80
1FE07F80
1FE07F80
1FE07F80
1FE07F80
1FE07F80
1FE07F80
1FE07F80
7FFFFFF8
FFFFFFF8
FFFFFFF8
000000F8
000000F8
000000F8
000000F8
00000070
00000070
00000070
00000070
ENDCHAR
STARTCHAR uni0427
ENCODING 1063
SWIDTH 723 0
DWIDTH 29 0
BBX 28 26 0 0
BITMAP
FFF9FFF0
FFF9FFF0
3FE07FC0
1FE07F80
1FE07F80
1FE07F80
1FC07F80
1FC07F80
1FC07F80
1FC07F80
1FE07F80
1FE07F80
1FF07F80
0FFFFF80
07FFFF80
01FFFF80
00007F80
00007F80
00007F80
00007F80
00007F80
00007F80
00007F80
0001FFE0
0003FFF0
0003FFF0
ENDCHAR
STARTCHAR uni0428
ENCODING 1064
SWIDTH 1070 0
DWIDTH 43 0
BBX 41 26 1 0
BITMAP
FFFBFFEFFF80
FFFBFFEFFF80
3FE0FF83FE00
1FE0FF03FC00
1FE0FF03FC00
1FE0FF03FC00
1FE0FF03FC00
1FE07F03FC00
1FE07F03FC00
1FE07F03FC00
1FE07F03FC00
1FE07F03FC00
1FE07F03FC00
1FE07F03FC00
1FE07F03FC00
1FE07F03FC00
1FE07F03FC00
1FE07F03FC00
1FE07F03FC00
1FE0FF03FC00
1FE0FF03FC00
1FE0FF03FC00
1FE0FF03FC00
7FFFFFFFFF00
FFFFFFFFFF80
FFFFFFFFFF80
ENDCHAR
STARTCHAR uni0429
ENCODING 1065
SWIDTH 1090 0
DWIDTH 44 0
BBX 42 34 1 -8
BITMAP
FFFBFFEFFF80
FFFBFFEFFF80
3FE0FF83FE00
1FE0FF03FC00
1FE0FF03FC00
1FE0FF03FC00
1FE0FF03FC00
1FE07F03FC00
1FE07F03FC00
1FE07F03FC00
1FE07F03FC00
1FE07F03FC00
1FE07F03FC00
1FE07F03FC00
1FE07F03FC00
1FE07F03FC00
1FE07F03FC00
1FE07F03FC00
1FE07F03FC00
1FE0FF03FC00
1FE0FF03FC00
1FE0FF03FC00
1FE0FF03FC00
7FFFFFFFFFC0
FFFFFFFFFFC0
FFFFFFFFFFC0
0000000007C0
0000000007C0
0000000007C0
0000000003C0
0000000003C0
0000000003C0
0000000003C0
0000000003C0
ENDCHAR
STARTCHAR uni042A
ENCODING 1066
SWIDTH 744 0
DWIDTH 30 0
BBX 28 26 1 0
BITMAP
FFFFC000
FFFFC000
F1FF0000
F1FF0000
F0FE0000
F0FE0000
F0FE0000
00FE0000
00FE0000
00FE0000
00FFFE00
00FFFF80
00FE7FC0
00FE1FE0
00FE0FF0
00FE0FF0
00FE0FF0
00FE07F0
00FE0FF0
00FF0FF0
00FF0FF0
00FF0FE0
00FF1FE0
03FFFFC0
07FFFF00
07FFF800
ENDCHAR
STARTCHAR uni042B
ENCODING 1067
SWIDTH 984 0
DWIDTH 39 0
BBX 37 26 1 0
BITMAP
FFF800FFF8
FFF800FFF8
3FE0003FE0
1FE0003FC0
1FE0003FC0
1FE0003FC0
1FE0003FC0
1FE0003FC0
1FE0003FC0
1FE0003FC0
1FFFC03FC0
1FFFF03FC0
1FE7F83FC0
1FE3FC3FC0
1FE1FE3FC0
1FE1FE3FC0
1FE1FE3FC0
1FE0FE3FC0
1FE0FE3FC0
1FE1FE3FC0
1FE1FE3FC0
1FE1FC3FC0
1FE3FC3FC0
7FFFF87FF0
FFFFE0FFF8
FFFF00FFF8
ENDCHAR
STARTCHAR uni042C
ENCODING 1068
SWIDTH 631 0
DWIDTH 25 0
BBX 24 26 1 0
BITMAP
FFFC00
FFFC00
3FE000
1FE000
1FE000
1FE000
1FE000
1FE000
1FE000
1FE000
1FFFE0
1FFFF8
1FE7FC
1FE1FC
1FE1FE
1FE0FE
1FE0FF
1FE0FF
1FE0FF
1FE0FE
1FE0FE
1FE1FE
1FE3FC
7FFFF8
FFFFF0
FFFF80
ENDCHAR
STARTCHAR uni042D
ENCODING 1069
SWIDTH 603 0
DWIDTH 24 0
BBX 22 28 1 -1
BITMAP
0FF000
7FFE00
FFFF80
F01FC0
F00FE0
F007F0
F007F0
E003F8
0003F8
0003FC
0703FC
0703FC
07FFFC
07FFFC
07FFFC
0703FC
0703FC
0703FC
0003F8
E003F8
E007F8
F007F0
F007F0
F00FE0
F01FC0
FFFF80
3FFE00
07E000
ENDCHAR
STARTCHAR uni042E
ENCODING 1070
SWIDTH 1025 0
DWIDTH 41 0
BBX 39 28 1 -1
BITMAP
000000FC00
FFF807FF80
FFF81FFFC0
3FE03F87E0
1FC07F03F0
1FC07F03F8
1FC0FE03F8
1FC0FE01FC
1FC1FE01FC
1FC1FE01FC
1FC1FE01FE
1FC1FE01FE
1FFFFE01FE
1FFFFE01FE
1FFFFE01FE
1FC1FE01FE
1FC1FE01FE
1FC1FE01FE
1FC1FE01FC
1FC1FE01FC
1FC0FE01FC
1FC0FE03F8
1FC07F03F8
1FC07F03F0
7FF03F87E0
FFF81FFFC0
FFF807FF80
000000F800
ENDCHAR
STARTCHAR uni042F
ENCODING 1071
SWIDTH 683 0
DWIDTH 27 0
BBX 27 26 0 0
BITMAP
00FFFFE0
03FFFFE0
07FCFF80
0FF0FF00
1FE0FF00
1FE0FF00
1FC0FF00
1FC0FF00
1FE0FF00
1FE0FF00
0FE0FF00
07F8FF00
03FFFF00
003FFF00
01FEFF00
03F8FF00
07F8FF00
07F0FF00
0FF0FF00
0FE0FF00
0FE0FF00
1FE0FF00
1FC0FF00
7FC1FF80
FF87FFE0
FF87FFE0
ENDCHAR
STARTCHAR uni0430
ENCODING 1072
SWIDTH 540 0
DWIDTH 22 0
BBX 21 21 1 -1
BITMAP
07FC00
1FFF00
3E3F80
7E3F80
7E1FC0
7E1FC0
7C1FC0
381FC0
007FC0
07FFC0
1F9FC0
3F1FC0
7E1FC0
FE1FC0
FE1FC0
FE1FC0
FF3FC0
FFFFF8
7FDFF0
3F8FE0
0E0380
ENDCHAR
STARTCHAR uni0431
ENCODING 1073
SWIDTH 585 0
DWIDTH 23 0
BBX 22 32 1 -1
BITMAP
000018
000018
0007F8
00FFF8
03FFF8
0FFFF8
1FFFF0
1FFFF0
3FFFC0
3FE000
7E0000
7C0000
780000
71FF80
F3FFE0
F78FF0
EF87F0
EF87F8
FF07F8
FF07F8
FF07F8
FF07FC
7F07F8
7F07F8
7F07F8
7F07F8
3F87F0
3F87F0
1F8FE0
0FFFC0
03FF00
007000
ENDCHAR
STARTCHAR uni0432
ENCODING 1074
SWIDTH 559 0
DWIDTH 22 0
BBX 21 19 1 0
BITMAP
FFFFC0
FFFFE0
3F8FE0
3F87F0
3F87F0
3F87E0
3F8FE0
3FBFC0
3FFE00
3FFFE0
3F8FF0
3F87F0
3F87F8
3F87F8
3F87F8
3F87F0
3F8FF0
FFFFC0
FFFF00
ENDCHAR
STARTCHAR uni0433
ENCODING 1075
SWIDTH 465 0
DWIDTH 19 0
BBX 17 19 1 0
BITMAP
FFFF80
FFFF80
3F8780
3F8780
3F8780
3F8780
3F8780
3F8000
3F8000
3F8000
3F8000
3F8000
3F8000
3F8000
3F8000
3F8000
3FC000
FFF000
FFF000
ENDCHAR
STARTCHAR uni0434
ENCODING 1076
SWIDTH 644 0
DWIDTH 26 0
BBX 25 25 0 -6
BITMAP
0FFFFF00
0FFFFF00
00C3F800
00C3F800
01C3F800
01C3F800
01C3F800
01C3F800
0183F800
0383F800
0383F800
0783F800
0703F800
0F03F800
0E03F800
1E03F800
1C03F800
FFFFFF80
FFFFFF80
F8000F80
F8000F80
F0000780
F0000780
F0000780
F0000780
ENDCHAR
STARTCHAR uni0435
ENCODING 1077
SWIDTH 526 0
DWIDTH 21 0
BBX 19 21 1 -1
BITMAP
01FC00
07FF00
1F9F80
3F8FC0
7F0FC0
7F0FE0
FF0FE0
FF0FE0
FFFFE0
FFFFE0
FFFFE0
FF0000
FF0000
FF8000
7F8040
7FC0E0
3FFFE0
3FFFC0
0FFF80
07FF00
007000
ENDCHAR
STARTCHAR uni0436
ENCODING 1078
SWIDTH 860 0
DWIDTH 34 0
BBX 34 20 0 0
BITMAP
1C00000F00
3E0FFE1F80
7F0FFE3F80
7F83F83F80
7F83F87F80
3F83F87F00
01C3F86000
00C3F8E000
00E3F8C000
007FFF8000
01FFFFF000
07E3F9FC00
0FC3F8FE00
1FC3F87E00
1FC3F87F00
3F83F87F00
3F83F87F00
3F83F87F00
FF8FFE3FC0
FF0FFE1FC0
ENDCHAR
STARTCHAR uni0437
ENCODING 1079
SWIDTH 486 0
DWIDTH 19 0
BBX 18 21 1 -1
BITMAP
1FF800
7FFE00
7C3F00
7C1F80
781F80
781F80
001F80
003F00
03FE00
03F000
03FF00
003F80
001FC0
301FC0
F81FC0
FC1FC0
FC1FC0
7C3F80
7FFF00
1FFC00
03A000
ENDCHAR
STARTCHAR uni0438
ENCODING 1080
SWIDTH 660 0
DWIDTH 26 0
BBX 24 19 1 0
BITMAP
FFE3FF
FFE3FF
3F80FE
3F80FE
3F81FE
3F83FE
3F87FE
3F8EFE
3F9CFE
3F98FE
3FB8FE
3FF0FE
3FE0FE
3FC0FE
3F80FE
3F80FE
3F81FE
FFE3FF
FFE3FF
ENDCHAR
STARTCHAR uni0439
ENCODING 1081
SWIDTH 660 0
DWIDTH 26 0
BBX 24 30 1 0
BITMAP
0380E0
07C1F0
0FC3F0
0FC1F0
07C1F0
0780E0
03FFE0
00FF80
000000
000000
000000
FFE3FF
FFE3FF
3F80FE
3F80FE
3F81FE
3F83FE
3F87FE
3F8EFE
3F9CFE
3F98FE
3FB8FE
3FF0FE
3FE0FE
3FC0FE
3F80FE
3F80FE
3F81FE
FFE3FF
FFE3FF
ENDCHAR
STARTCHAR uni043A
ENCODING 1082
SWIDTH 600 0
DWIDTH 24 0
BBX 23 20 1 0
BITMAP
000078
FFE0FC
FFE1FC
3F81FC
3F83FC
3F83F8
3F8300
3F8700
3F8E00
3FFC00
3FFF00
3F8FC0
3F87E0
3F87F0
3F87F0
3F83F8
3F83F8
3F83F8
FFE3FE
FFE1FE
ENDCHAR
STARTCHAR uni043B
ENCODING 1083
SWIDTH 613 0
DWIDTH 25 0
BBX 23 19 0 0
BITMAP
07FFFE
07FFFE
00C3FC
00C3FC
00C3FC
00C3FC
01C3FC
01C3FC
01C3FC
0183FC
0183FC
0183FC
0383FC
3B83FC
7F03FC
FF03FC
FF03FC
7E0FFE
7C0FFE
ENDCHAR
STARTCHAR uni043C
ENCODING 1084
SWIDTH 739 0
DWIDTH 30 0
BBX 28 19 1 0
BITMAP
FFE07FF0
FFE07FF0
3FE0FFC0
37F0FFC0
37F0DFC0
37F1DFC0
33F99FC0
33F99FC0
39FF9FC0
39FF1FC0
39FF3FC0
38FF3FC0
38FE3FC0
387E3FC0
387C3FC0
383C3FC0
383C3FC0
FE38FFF0
FE00FFF0
ENDCHAR
STARTCHAR uni043D
ENCODING 1085
SWIDTH 650 0
DWIDTH 26 0
BBX 24 19 1 0
BITMAP
FFE7FF
FFE7FF
3F81FC
3F81FC
3F81FC
3F81FC
3F81FC
3FFFFC
3FFFFC
3FFFFC
3F81FC
3F81FC
3F81FC
3F81FC
3F81FC
3F81FC
3F81FC
FFE7FF
FFE7FF
ENDCHAR
STARTCHAR uni043E
ENCODING 1086
SWIDTH 572 0
DWIDTH 23 0
BBX 21 21 1 -1
BITMAP
01FC00
0FFF00
1F9FC0
3F8FE0
7F07E0
7F07F0
FF07F0
FF07F8
FF07F8
FF07F8
FF07F8
FF07F8
FF07F8
FF07F8
7F07F0
7F07F0
3F0FE0
3F8FC0
1FFF80
07FF00
007000
ENDCHAR
STARTCHAR uni043F
ENCODING 1087
SWIDTH 638 0
DWIDTH 26 0
BBX 24 19 1 0
BITMAP
FFFFFF
FFFFFF
3F83FC
3F83FC
3F83FC
3F83FC
3F83FC
3F83FC
3F83FC
3F83FC
3F83FC
3F83FC
3F83FC
3F83FC
3F83FC
3F83FC
3F83FC
FFEFFF
FFEFFF
ENDCHAR
STARTCHAR uni0440
ENCODING 1088
SWIDTH 623 0
DWIDTH 25 0
BBX 23 29 1 -9
BITMAP
038FC0
1FBFF0
FFFFF8
FFFFF8
7FC7FC
3FC3FC
3FC1FE
3FC1FE
3FC1FE
3FC1FE
3FC1FE
3FC1FE
3FC1FE
3FC1FE
3FC3FC
3FC3FC
3FC7F8
3FFFF8
3FFFF0
3FBFC0
3F8600
3F8000
3F8000
3F8000
3F8000
3FC000
7FE000
FFF000
FFF000
ENDCHAR
STARTCHAR uni0441
ENCODING 1089
SWIDTH 523 0
DWIDTH 21 0
BBX 19 21 1 -1
BITMAP
01FE00
07FF80
1FEFC0
3FCFC0
7F87E0
7F07E0
FF07E0
FF03C0
FF0000
FF0000
FF0000
FF0000
FF0000
FF8000
7F8040
7FC0C0
3FFFE0
3FFFC0
1FFF80
07FE00
007000
ENDCHAR
STARTCHAR uni0442
ENCODING 1090
SWIDTH 570 0
DWIDTH 23 0
BBX 21 19 1 0
BITMAP
FFFFF8
FFFFF8
E1FC78
E1FC38
E1FC38
E1FC38
E1FC38
01FC00
01FC00
01FC00
01FC00
01FC00
01FC00
01FC00
01FC00
01FC00
01FC00
0FFF00
0FFF00
ENDCHAR
STARTCHAR uni0443
ENCODING 1091
SWIDTH 543 0
DWIDTH 22 0
BBX 22 28 0 -9
BITMAP
FFF3FC
FFE3F8
3FC0E0
3FC0C0
1FE1C0
1FE1C0
0FE180
0FF380
07F380
07F300
07FF00
03FE00
03FE00
01FE00
01FC00
00FC00
00F800
00F800
007800
007000
003000
003000
386000
7EE000
FEC000
FFC000
7F8000
3E0000
ENDCHAR
STARTCHAR uni0444
ENCODING 1092
SWIDTH 840 0
DWIDTH 34 0
BBX 32 37 1 -9
BITMAP
0003E000
003FE000
003FE000
000FE000
0007E000
0007E000
0007E000
0007E000
03E7E7C0
0FFFFFF0
1FFFFFF8
3F8FE3FC
7F0FE1FC
7F0FE0FE
FE0FE0FE
FE0FE0FE
FE0FE0FF
FE0FE0FF
FE0FE0FF
FE0FE0FF
FE0FE0FF
FE0FE0FE
7F0FE0FE
7F0FE0FE
7F8FE1FC
3FFFFFF8
1FFFFFF0
07FFEFE0
000FE000
000FE000
000FE000
000FE000
000FE000
000FE000
001FF000
003FF800
003FF800
ENDCHAR
STARTCHAR uni0445
ENCODING 1093
SWIDTH 563 0
DWIDTH 23 0
BBX 22 19 0 0
BITMAP
FFF9F8
7FF1F8
1FF0E0
0FF1C0
0FFB80
07FB00
07FF00
03FE00
01FE00
01FF00
01FF00
01FF80
03FFC0
077FC0
073FE0
0E1FF0
1C1FF0
FF3FFC
FF3FFC
ENDCHAR
STARTCHAR uni0446
ENCODING 1094
SWIDTH 655 0
DWIDTH 26 0
BBX 25 25 1 -6
BITMAP
FFEFFE00
FFEFFE00
3F83FC00
3F83FC00
3F83F800
3F83F800
3F83F800
3F83F800
3F83F800
3F83F800
3F83F800
3F83F800
3F83F800
3F83F800
3F83F800
3F83F800
3F83FC00
FFFFFF80
FFFFFF80
00000F80
00000780
00000780
00000780
00000780
00000780
ENDCHAR
STARTCHAR uni0447
ENCODING 1095
SWIDTH 596 0
DWIDTH 24 0
BBX 23 19 0 0
BITMAP
FFEFFE
FFEFFE
3F87F8
3F87F8
3F87F8
3F87F8
3F87F8
3F87F8
3FC7F8
1FFFF8
1FFFF8
07F7F8
0007F8
0007F8
0007F8
0007F8
0007F8
000FFE
000FFE
ENDCHAR
STARTCHAR uni0448
ENCODING 1096
SWIDTH 868 0
DWIDTH 35 0
BBX 33 19 1 0
BITMAP
FFDFFBFF80
FFDFFBFF80
3F87F0FE00
3F87F0FE00
3F87F0FE00
3F87F0FE00
3F87F0FE00
3F87F0FE00
3F87F0FE00
3F87F0FE00
3F87F0FE00
3F87F0FE00
3F87F0FE00
3F87F0FE00
3F87F0FE00
3F87F0FE00
3F87F0FE00
FFFFFFFF80
FFFFFFFF80
ENDCHAR
STARTCHAR uni0449
ENCODING 1097
SWIDTH 891 0
DWIDTH 36 0
BBX 34 25 1 -6
BITMAP
FFDFFBFF80
FFDFFBFF80
3F87F0FE00
3F87F0FE00
3F87F0FE00
3F87F0FE00
3F87F0FE00
3F87F0FE00
3F87F0FE00
3F87F0FE00
3F87F0FE00
3F87F0FE00
3F87F0FE00
3F87F0FE00
3F87F0FE00
3F87F0FE00
3F87F0FE00
FFFFFFFFC0
FFFFFFFFC0
00000003C0
00000003C0
00000003C0
00000003C0
00000003C0
00000001C0
ENDCHAR
STARTCHAR uni044A
ENCODING 1098
SWIDTH 661 0
DWIDTH 26 0
BBX 25 19 1 0
BITMAP
FFFF8000
FFFF8000
E1FC0000
E1FC0000
E1FC0000
E1FC0000
E1FDE000
01FFFC00
01FFFE00
01FC7F00
01FC3F80
01FC3F80
01FC3F80
01FC3F80
01FC3F80
01FC3F00
01FCFF00
0FFFFE00
0FFFF000
ENDCHAR
STARTCHAR uni044B
ENCODING 1099
SWIDTH 835 0
DWIDTH 33 0
BBX 31 19 1 0
BITMAP
FFE00FFE
FFE00FFE
3F8003FC
3F8003FC
3F8003FC
3F8003FC
3F9C03FC
3FFF83FC
3FFFC3FC
3F8FE3FC
3F87F3FC
3F87F3FC
3F87F3FC
3F87F3FC
3F87F3FC
3F87E3FC
3F9FE3FC
FFFFCFFE
FFFE0FFE
ENDCHAR
STARTCHAR uni044C
ENCODING 1100
SWIDTH 541 0
DWIDTH 22 0
BBX 20 19 1 0
BITMAP
FFE000
FFE000
3F8000
3F8000
3F8000
3F8000
3F9800
3FFF80
3FBFE0
3F87E0
3F87F0
3F87F0
3F87F0
3F87F0
3F87F0
3F87F0
3F8FE0
FFFFC0
FFFE00
ENDCHAR
STARTCHAR uni044D
ENCODING 1101
SWIDTH 504 0
DWIDTH 20 0
BBX 18 21 1 -1
BITMAP
1FF000
7FFC00
7CFE00
787F00
783F80
783F80
003FC0
001FC0
001FC0
0FFFC0
0FFFC0
001FC0
001FC0
203FC0
F83FC0
F83F80
F83F80
7C7F00
7FFE00
1FF800
038000
ENDCHAR
STARTCHAR uni044E
ENCODING 1102
SWIDTH 841 0
DWIDTH 34 0
BBX 32 21 1 -1
BITMAP
00003F80
FFE0FFE0
FFE1F9F8
3F83F1FC
3F87F0FC
3F87E0FE
3F8FE0FE
3F8FE0FE
3FFFE0FF
3FFFE0FF
3FFFE0FF
3F8FE0FF
3F8FE0FF
3F8FE0FE
3F8FE0FE
3F87E0FE
3F87F0FC
3F83F1F8
FFE1FFF0
FFE07FE0
00001E00
ENDCHAR
STARTCHAR uni044F
ENCODING 1103
SWIDTH 589 0
DWIDTH 24 0
BBX 23 19 0 0
BITMAP
07FFFE
0FFFFE
1FC3F8
1FC3F8
1FC3F8
1FC3F8
1FC3F8
0FC3F8
07E3F8
01FFF8
03FFF8
07E3F8
0FE3F8
0FC3F8
1FC3F8
1FC3F8
1F83F8
FF9FFE
FF1FFE
ENDCHAR
STARTCHAR uni0450
ENCODING 1104
SWIDTH 526 0
DWIDTH 21 0
BBX 19 32 1 -1
BITMAP
078000
0F8000
0FC000
0FE000
07E000
03F000
00F800
007800
001000
000000
000000
01FC00
07FF00
1F9F80
3F8FC0
7F0FC0
7F0FE0
FF0FE0
FF0FE0
FFFFE0
FFFFE0
FFFFE0
FF0000
FF0000
FF8000
7F8040
7FC0E0
3FFFE0
3FFFC0
0FFF80
07FF00
007000
ENDCHAR
STARTCHAR uni0451
ENCODING 1105
SWIDTH 526 0
DWIDTH 21 0
BBX 19 30 1 -1
BITMAP
0E0380
1F07E0
3F8FE0
3F8FE0
3F8FE0
1F07C0
000000
000000
000000
01FC00
07FF00
1F9F80
3F8FC0
7F0FC0
7F0FE0
FF0FE0
FF0FE0
FFFFE0
FFFFE0
FFFFE0
FF0000
FF0000
FF8000
7F8040
7FC0E0
3FFFE0
3FFFC0
0FFF80
07FF00
007000
ENDCHAR
STARTCHAR uni0452
ENCODING 1106
SWIDTH 605 0
DWIDTH 24 0
BBX 22 35 1 -6
BITMAP
018000
3FC000
FFC000
FFC000
3F8000
3F8000
FFFE00
FFFE00
3F8000
3F8000
3F8FC0
3F9FF0
3FBFF8
3FFFF8
3FE7F8
3FC3F8
3FC3FC
3FC3FC
3FC3FC
3FC3FC
3FC3FC
3FC3FC
3FC3FC
3FC3F8
3FC3F8
3FC3F8
3FC3F8
FFE3F0
FFE3F0
0007F0
0007E0
0007E0
0007C0
000FC0
000F80
ENDCHAR
STARTCHAR uni0453
ENCODING 1107
SWIDTH 465 0
DWIDTH 19 0
BBX 17 31 1 0
BITMAP
000F00
001F00
003F00
003F00
007E00
007C00
00F800
00E000
004000
000000
000000
000000
FFFF80
FFFF80
3F8780
3F8780
3F8780
3F8780
3F8780
3F8000
3F8000
3F8000
3F8000
3F8000
3F8000
3F8000
3F8000
3F8000
3FC000
FFF000
FFF000
ENDCHAR
STARTCHAR uni0454
ENCODING 1108
SWIDTH 523 0
DWIDTH 21 0
BBX 19 21 1 -1
BITMAP
01FF00
0FFFC0
1FE7C0
3F87C0
7F03C0
7F03C0
FF0000
FF0000
FFFF00
FFFF00
FFFF00
FF0000
FF0000
FF0000
FF8040
7FC0C0
7FFFE0
3FFFC0
1FFF80
07FE00
00F000
ENDCHAR
STARTCHAR uni0455
ENCODING 1109
SWIDTH 463 0
DWIDTH 19 0
BBX 17 21 1 -1
BITMAP
07F800
1FFF00
3E1F00
7C1F00
FC1E00
FE0E00
FF8000
FFF000
FFFC00
7FFE00
7FFF00
3FFF80
0FFF80
01FF80
F07F80
F03F80
F03F00
F03F00
FFFE00
7FF800
038000
ENDCHAR
STARTCHAR uni0456
ENCODING 1110
SWIDTH 324 0
DWIDTH 13 0
BBX 11 29 1 0
BITMAP
1F00
3F80
3F80
3F80
3F80
1F00
0400
0000
0000
01C0
1FC0
FFC0
FFC0
7FC0
3FC0
3FC0
3FC0
3FC0
3FC0
3FC0
3FC0
3FC0
3FC0
3FC0
3FC0
3FC0
3FC0
FFE0
FFE0
ENDCHAR
STARTCHAR uni0457
ENCODING 1111
SWIDTH 324 0
DWIDTH 13 0
BBX 15 29 -1 0
BITMAP
3C3C
7E7E
FEFE
FEFE
7E7E
7C7C
0000
0000
0000
0070
07F0
3FF0
3FF0
1FF0
0FF0
0FF0
0FF0
0FF0
0FF0
0FF0
0FF0
0FF0
0FF0
0FF0
0FF0
0FF0
0FF0
3FF8
3FF8
ENDCHAR
STARTCHAR uni0458
ENCODING 1112
SWIDTH 320 0
DWIDTH 13 0
BBX 16 38 -5 -9
BITMAP
007C
00FE
00FE
00FE
00FE
007C
0010
0000
0000
0007
007F
03FE
03FE
01FE
00FE
00FE
00FE
00FE
00FE
00FE
00FE
00FE
00FE
00FE
00FE
00FE
00FE
00FE
00FE
00FE
00FE
00FE
7CFE
FEFC
FEFC
FFF8
7FE0
3FC0
ENDCHAR
STARTCHAR uni0459
ENCODING 1113
SWIDTH 805 0
DWIDTH 32 0
BBX 32 19 0 0
BITMAP
07FFFE00
07FFFE00
00C3FC00
00C3FC00
00C3FC00
00C3FC00
01C3FC00
01C3FFF0
01C3FFFC
0183FCFE
0183FC7E
0183FC7F
0383FC7F
3B83FC7F
7F03FC7F
FF03FCFE
FF03FCFE
7E0FFFF8
7C0FFFE0
ENDCHAR
STARTCHAR uni045A
ENCODING 1114
SWIDTH 853 0
DWIDTH 34 0
BBX 33 19 1 0
BITMAP
FFEFFF0000
FFEFFF0000
3F83FC0000
3F83FC0000
3F83FC0000
3F83FC0000
3F83FC0000
3FFFFFF800
3FFFFFFE00
3F83FC7F00
3F83FC3F00
3F83FC3F80
3F83FC3F80
3F83FC3F80
3F83FC3F80
3F83FC7F00
3F83FCFF00
FFEFFFFE00
FFEFFFF000
ENDCHAR
STARTCHAR uni045B
ENCODING 1115
SWIDTH 624 0
DWIDTH 25 0
BBX 23 29 1 0
BITMAP
018000
3FC000
FFC000
FFC000
3FC000
3FC000
FFFE00
FFFE00
3F8000
3F8000
3F87C0
3F9FF0
3FBFF8
3FFFF8
3FE7F8
3FC3F8
3FC3FC
3FC3FC
3FC3FC
3FC3FC
3FC3FC
3FC3FC
3FC3FC
3FC3FC
3FC3FC
3FC3FC
3FC3FC
FFEFFE
FFEFFE
ENDCHAR
STARTCHAR uni045C
ENCODING 1116
SWIDTH 600 0
DWIDTH 24 0
BBX 23 31 1 0
BITMAP
0001E0
0003E0
0007E0
0007E0
000FC0
001F80
001E00
003C00
001800
000000
000000
000078
FFE0FC
FFE1FC
3F81FC
3F83FC
3F83F8
3F8300
3F8700
3F8E00
3FFC00
3FFF00
3F8FC0
3F87E0
3F87F0
3F87F0
3F83F8
3F83F8
3F83F8
FFE3FE
FFE1FE
ENDCHAR
STARTCHAR uni045D
ENCODING 1117
SWIDTH 660 0
DWIDTH 26 0
BBX 24 31 1 0
BITMAP
03C000
07E000
07E000
03F000
03F000
00F800
007C00
003C00
000800
000000
000000
000000
FFE3FF
FFE3FF
3F80FE
3F80FE
3F81FE
3F83FE
3F87FE
3F8EFE
3F9CFE
3F98FE
3FB8FE
3FF0FE
3FE0FE
3FC0FE
3F80FE
3F80FE
3F81FE
FFE3FF
FFE3FF
ENDCHAR
STARTCHAR uni045E
ENCODING 1118
SWIDTH 543 0
DWIDTH 22 0
BBX 22 39 0 -9
BITMAP
0380E0
07C1F0
07E1F8
07E1F8
07C0F0
0380F0
01FFE0
00FF80
000000
000000
000000
FFF3FC
FFE3F8
3FC0E0
3FC0C0
1FE1C0
1FE1C0
0FE180
0FF380
07F380
07F300
07FF00
03FE00
03FE00
01FE00
01FC00
00FC00
00F800
00F800
007800
007000
003000
003000
386000
7EE000
FEC000
FFC000
7F8000
3E0000
ENDCHAR
STARTCHAR uni045F
ENCODING 1119
SWIDTH 632 0
DWIDTH 25 0
BBX 23 26 1 -7
BITMAP
FFEFFE
FFEFFE
3F83FC
3F83FC
3F83F8
3F83F8
3F83F8
3F83F8
3F83F8
3F83F8
3F83F8
3F83F8
3F83F8
3F83F8
3F83F8
3F83F8
3F83FC
FFFFFE
FFFFFE
007C00
007C00
003C00
003C00
003C00
003800
003800
ENDCHAR
STARTCHAR uni0462
ENCODING 1122
SWIDTH 769 0
DWIDTH 31 0
BBX 29 28 1 0
BITMAP
07FFC000
07FFC000
00FF0000
00FF0000
00FF0000
FFFFFF80
FFFFFF80
F0FF0780
F0FF0780
F0FF0780
F0FF0780
F0FF0000
00FF0000
00FF0000
00FFFF80
00FFFFE0
00FF1FF0
00FF07F0
00FF07F8
00FF07F8
00FF07F8
00FF07F8
00FF07F8
00FF07F0
00FF0FF0
01FFFFE0
07FFFF80
07FFFC00
ENDCHAR
STARTCHAR uni0463
ENCODING 1123
SWIDTH 645 0
DWIDTH 26 0
BBX 24 27 1 0
BITMAP
003C00
07FC00
0FFC00
07FC00
03FC00
03FC00
03FC00
FFFFFC
FFFFFC
E3FC3C
E3FC3C
E3FC1C
E3FC1C
E3FC1C
03FC00
03FFF0
03FFFC
03FCFE
03FC7F
03FC7F
03FC7F
03FC7F
03FC7F
03FC7F
03FCFE
0FFFFC
0FFFF0
ENDCHAR
STARTCHAR uni0472
ENCODING 1138
SWIDTH 700 0
DWIDTH 28 0
BBX 26 28 1 -1
BITMAP
007F8000
01FFE000
07FFF800
0FC0FC00
1F807E00
3F807F00
3F807F00
7F003F80
7F003F80
7F003F80
FF003FC0
FF003FC0
FFFFFFC0
FFFFFFC0
FFFFFFC0
FF003FC0
FF003FC0
FF003FC0
7F003F80
7F003F80
7F003F80
3F807F00
3F807F00
1F807E00
0FC0FC00
07FFF800
01FFE000
003F0000
ENDCHAR
STARTCHAR uni0473
ENCODING 1139
SWIDTH 572 0
DWIDTH 23 0
BBX 21 21 1 -1
BITMAP
03FE00
0FFF80
1F8FC0
3F0FE0
7F07F0
7F07F0
FF07F0
FF07F8
FF07F8
FFFFF8
FFFFF8
FE07F8
FF07F8
FF07F8
7F07F0
7F07F0
3F07E0
3F8FE0
1FFFC0
07FF00
007000
ENDCHAR
STARTCHAR uni0474
ENCODING 1140
SWIDTH 692 0
DWIDTH 28 0
BBX 28 27 0 0
BITMAP
000001E0
FFFC07F0
FFFC0FF0
3FE00FF0
1FE01FF0
1FE01FF0
1FF01FC0
0FF01800
0FF03800
0FF83800
07F83000
07F87000
07FC7000
03FC6000
03FC6000
03FEE000
01FEC000
01FEC000
00FFC000
00FFC000
00FF8000
007F8000
007F8000
007F0000
003F0000
003F0000
003E0000
ENDCHAR
STARTCHAR uni0475
ENCODING 1141
SWIDTH 583 0
DWIDTH 23 0
BBX 23 20 0 0
BITMAP
00001C
FFF07E
FFE07E
3FC0FE
3FC1FE
1FC1FC
1FE180
1FE380
0FF380
0FF300
07F300
07FF00
03FE00
03FE00
03FE00
01FC00
01FC00
00F800
00F800
00F800
ENDCHAR
STARTCHAR uni0490
ENCODING 1168
SWIDTH 580 0
DWIDTH 23 0
BBX 21 31 1 0
BITMAP
000038
000078
000078
000078
000078
FFFFF8
FFFFF8
3FE000
1FE000
1FE000
1FE000
1FE000
1FE000
1FE000
1FE000
1FE000
1FE000
1FE000
1FE000
1FE000
1FE000
1FE000
1FE000
1FE000
1FE000
1FE000
1FE000
1FE000
7FF800
FFFC00
FFFC00
ENDCHAR
STARTCHAR uni0491
ENCODING 1169
SWIDTH 465 0
DWIDTH 19 0
BBX 17 25 1 0
BITMAP
000780
000780
000780
000780
000780
000780
FFFF80
FFFF80
3F8000
3F8000
3F8000
3F8000
3F8000
3F8000
3F8000
3F8000
3F8000
3F8000
3F8000
3F8000
3F8000
3F8000
3F8000
FFF000
FFF000
ENDCHAR
STARTCHAR uni0492
ENCODING 1170
SWIDTH 580 0
DWIDTH 23 0
BBX 21 26 1 0
BITMAP
FFFFF8
FFFFF8
3FE078
1FE078
1FE078
1FE078
1FE078
1FE038
1FE000
1FE000
1FE000
FFFE00
FFFE00
FFFE00
1FE000
1FE000
1FE000
1FE000
1FE000
1FE000
1FE000
1FE000
1FE000
7FF800
FFFC00
FFFC00
ENDCHAR
STARTCHAR uni0493
ENCODING 1171
SWIDTH 465 0
DWIDTH 19 0
BBX 17 19 1 0
BITMAP
FFFF80
FFFF80
3F8780
3F8780
3F8780
3F8780
3F8780
FFF800
FFF800
FFF800
3F8000
3F8000
3F8000
3F8000
3F8000
3F8000
3FC000
FFF000
FFF000
ENDCHAR
STARTCHAR uni0496
ENCODING 1174
SWIDTH 1034 0
DWIDTH 41 0
BBX 41 35 0 -8
BITMAP
0E0000007000
3F03FFC0FC00
3F83FFC1FC00
3F80FF01FC00
3FC0FF03FC00
3FC0FF03FC00
0FE0FF07F000
00E0FF070000
0060FF060000
0070FF0E0000
0070FF0E0000
0038FF1C0000
001FFFF80000
000FFFF00000
00FFFFFF0000
03F8FF1FC000
07F0FF0FE000
07F0FF0FE000
0FF0FF0FF000
0FF0FF0FF000
0FE0FF07F000
1FE0FF07F800
1FE0FF07F800
1FE0FF07F800
3FE1FF87FE00
FFC3FFC3FF80
FF83FFC1FF80
3C0000003F80
000000000780
000000000780
000000000780
000000000780
000000000780
000000000780
000000000780
ENDCHAR
STARTCHAR uni0497
ENCODING 1175
SWIDTH 909 0
DWIDTH 36 0
BBX 36 26 0 -6
BITMAP
1C00000F00
3E0FFE1F80
7F0FFE3F80
7F83F83F80
7F83F87F80
3F83F87F00
01C3F86000
00C3F8E000
00E3F8C000
007FFF8000
01FFFFF000
07E3F9FC00
0FC3F8FE00
1FC3F87E00
1FC3F87F00
3F83F87F00
3F83F87F00
3F83F87F00
FF8FFE3FF0
FF0FFE1FF0
00000001F0
00000001F0
00000000F0
00000000F0
00000000F0
00000000F0
ENDCHAR
STARTCHAR uni0498
ENCODING 1176
SWIDTH 565 0
DWIDTH 23 0
BBX 21 36 1 -9
BITMAP
07FC00
3FFF80
7DFFC0
7C1FE0
7C0FF0
7C0FF0
7C07F0
7C07F0
0007F0
000FE0
000FE0
001F80
03FE00
03FF00
03FFC0
001FE0
000FF0
000FF8
000FF8
7807F8
F807F8
FC0FF8
FC0FF0
FC0FF0
7C1FE0
3FFFC0
1FFF00
01F800
003800
001C00
001E00
001E00
001E00
023E00
01FE00
03F800
ENDCHAR
STARTCHAR uni0499
ENCODING 1177
SWIDTH 486 0
DWIDTH 19 0
BBX 18 29 1 -9
BITMAP
1FF800
7FFE00
7C3F00
7C1F80
781F80
781F80
001F80
003F00
03FE00
03F000
03FF00
003F80
001FC0
301FC0
F81FC0
FC1FC0
FC1FC0
7C3F80
7FFF00
1FFC00
03C000
007000
007800
003800
003C00
003C00
04FC00
07F800
07F000
ENDCHAR
STARTCHAR uni049A
ENCODING 1178
SWIDTH 749 0
DWIDTH 30 0
BBX 29 35 1 -8
BITMAP
00000700
FFF80F80
FFF81FC0
3FE03FC0
1FE03FC0
1FE07F80
1FE07F00
1FE06000
1FE0E000
1FE0E000
1FE1C000
1FE1C000
1FFF8000
1FFF0000
1FFFF000
1FE3F800
1FE1FC00
1FE0FE00
1FE0FE00
1FE0FF00
1FE0FF00
1FE0FF00
1FE07F00
1FE07F80
7FF07FE0
FFF87FF8
FFF83FF8
000003F8
000000F8
000000F8
00000078
00000078
00000078
00000078
00000078
ENDCHAR
STARTCHAR uni049B
ENCODING 1179
SWIDTH 650 0
DWIDTH 26 0
BBX 24 26 1 -6
BITMAP
000078
FFE0FC
FFE1FC
3F81FC
3F83FC
3F83F8
3F8300
3F8700
3F8E00
3FFC00
3FFF00
3F8FC0
3F87E0
3F87F0
3F87F0
3F83F8
3F83F8
3F83F8
FFE3FF
FFE1FF
00000F
00000F
00000F
000007
000007
000007
ENDCHAR
STARTCHAR uni04A0
ENCODING 1184
SWIDTH 831 0
DWIDTH 33 0
BBX 32 28 1 -1
BITMAP
00000038
FFFFC0FC
FFFFC1FC
F1FF01FE
F1FF03FC
F0FE03FC
F0FE03F8
F0FE0700
00FE0700
00FE0600
00FE0E00
00FE1C00
00FFF800
00FFF800
00FFFF00
00FE1FC0
00FE0FE0
00FE0FF0
00FE0FF0
00FE07F0
00FE07F8
00FE07F8
00FE07F8
00FF07F8
03FF83FE
07FFC3FF
07FFC1FF
0000003C
ENDCHAR
STARTCHAR uni04A1
ENCODING 1185
SWIDTH 736 0
DWIDTH 29 0
BBX 28 20 1 0
BITMAP
000001C0
FFFF87E0
FFFF87F0
E1FE0FF0
E1FE0FE0
E1FE1FE0
E1FE1C00
E1FE1800
01FE3000
01FFE000
01FFFC00
01FE7F00
01FE3F80
01FE1F80
01FE1FC0
01FE1FC0
01FE1FC0
01FE1FC0
07FF8FF0
07FF87F0
ENDCHAR
STARTCHAR uni04A2
ENCODING 1186
SWIDTH 771 0
DWIDTH 31 0
BBX 29 34 1 -8
BITMAP
FFF9FFF0
FFF9FFF0
3FE07FC0
1FE07F80
1FE07F80
1FE07F80
1FE07F80
1FE07F80
1FE07F80
1FE07F80
1FE07F80
1FFFFF80
1FFFFF80
1FFFFF80
1FE07F80
1FE07F80
1FE07F80
1FE07F80
1FE07F80
1FE07F80
1FE07F80
1FE07F80
1FE07F80
7FF0FFE0
FFF9FFF8
FFF9FFF8
00000078
00000078
00000078
00000078
00000078
00000038
00000038
00000038
ENDCHAR
STARTCHAR uni04A3
ENCODING 1187
SWIDTH 687 0
DWIDTH 27 0
BBX 26 25 1 -6
BITMAP
FFE7FF00
FFE7FF00
3F81FC00
3F81FC00
3F81FC00
3F81FC00
3F81FC00
3FFFFC00
3FFFFC00
3FFFFC00
3F81FC00
3F81FC00
3F81FC00
3F81FC00
3F81FC00
3F81FC00
3F81FC00
FFE7FFC0
FFE7FFC0
000007C0
000007C0
00000780
00000380
00000380
00000380
ENDCHAR
STARTCHAR uni04AA
ENCODING 1194
SWIDTH 618 0
DWIDTH 25 0
BBX 23 36 1 -9
BITMAP
001FC0
00FFF8
03FFFC
0FF03C
1FE03E
3FC01E
3FC01E
7F801E
7F8000
7F8000
FF8000
FF0000
FF0000
FF0000
FF0000
FF0000
FF0000
FF8000
7F8000
7F800E
7F801E
3FC01E
3FC01E
1FE01E
0FF03E
03FFFE
01FFF8
001F80
001C00
000E00
000F00
000F00
000F80
009F00
00FF00
00FC00
ENDCHAR
STARTCHAR uni04AB
ENCODING 1195
SWIDTH 523 0
DWIDTH 21 0
BBX 19 29 1 -9
BITMAP
01FE00
07FF80
1FEFC0
3FCFC0
7F87E0
7F07E0
FF07E0
FF03C0
FF0000
FF0000
FF0000
FF0000
FF0000
FF8000
7F8040
7FC0C0
3FFFE0
3FFFC0
1FFF80
07FE00
007000
007000
003800
003C00
003C00
003E00
027C00
03FC00
03F800
ENDCHAR
STARTCHAR uni04AE
ENCODING 1198
SWIDTH 621 0
DWIDTH 25 0
BBX 25 26 0 0
BITMAP
FFFC7F80
FFFC7F80
3FF03F00
1FE01C00
1FF01800
0FF03800
0FF83000
07F87000
07FC6000
03FCE000
03FEC000
03FFC000
01FF8000
01FF8000
00FF0000
00FF0000
007F0000
007F0000
007F0000
007F0000
007F0000
007F8000
007F8000
01FFE000
07FFF000
07FFF000
ENDCHAR
STARTCHAR uni04AF
ENCODING 1199
SWIDTH 536 0
DWIDTH 21 0
BBX 21 28 0 -9
BITMAP
FFF3F8
FFE3F8
3F80E0
3FC0E0
3FC1C0
1FC1C0
1FC1C0
1FE180
0FE380
0FE380
0FE300
07F300
07F700
07F700
03F600
03FE00
03FE00
01FC00
01FC00
01FC00
01FC00
01FC00
01FC00
01FC00
01FC00
03FE00
07FF00
07FF00
ENDCHAR
STARTCHAR uni04B0
ENCODING 1200
SWIDTH 621 0
DWIDTH 25 0
BBX 25 26 0 0
BITMAP
FFFC7F80
FFFC7F80
3FF03F00
1FE01C00
1FF01800
0FF03800
0FF83000
07F87000
07FC6000
03FCE000
03FEC000
03FFC000
01FF8000
01FF8000
1FFFF800
1FFFF800
1FFFF800
007F0000
007F0000
007F0000
007F0000
007F0000
007F0000
01FFE000
07FFF000
07FFF000
ENDCHAR
STARTCHAR uni04B1
ENCODING 1201
SWIDTH 536 0
DWIDTH 21 0
BBX 21 28 0 -9
BITMAP
FFF3F8
FFE3F8
3F80E0
3FC0E0
3FC1C0
1FC1C0
1FC1C0
1FE180
0FE380
0FE380
0FE300
07F300
07F700
07F700
03F600
03FE00
03FE00
3FFFE0
3FFFE0
01FC00
01FC00
01FC00
01FC00
01FC00
01FC00
03FE00
07FF00
07FF00
ENDCHAR
STARTCHAR uni04B2
ENCODING 1202
SWIDTH 690 0
DWIDTH 28 0
BBX 27 34 0 -8
BITMAP
FFF8FF80
FFF8FF80
3FE03C00
1FF03800
0FF87000
0FF87000
07FCE000
03FDC000
03FFC000
01FF8000
01FF8000
00FF8000
00FF8000
007FC000
007FC000
00FFE000
00FFE000
01DFF000
038FF800
038FF800
0707FC00
0F03FC00
0E03FE00
3E07FF80
FF0FFFE0
FF0FFFE0
000001E0
000001E0
000001E0
000001E0
000001E0
000001E0
000000E0
000000E0
ENDCHAR
STARTCHAR uni04B3
ENCODING 1203
SWIDTH 604 0
DWIDTH 24 0
BBX 24 25 0 -6
BITMAP
FFF9F8
7FF1F8
1FF0E0
0FF1C0
0FFB80
07FB00
07FF00
03FE00
01FE00
01FF00
01FF00
01FF80
03FFC0
077FC0
073FE0
0E1FE0
1C1FF0
FF3FFF
FF3FFF
00001F
00001F
00000F
00000F
00000F
00000F
ENDCHAR
STARTCHAR uni04B6
ENCODING 1206
SWIDTH 736 0
DWIDTH 29 0
BBX 29 34 0 -8
BITMAP
FFF9FFF0
FFF9FFF0
3FE07FC0
1FE07F80
1FE07F80
1FE07F80
1FC07F80
1FC07F80
1FC07F80
1FC07F80
1FE07F80
1FE07F80
1FF07F80
0FFFFF80
07FFFF80
01FFFF80
00007F80
00007F80
00007F80
00007F80
00007F80
00007F80
00007F80
0001FFE0
0003FFF8
0003FFF8
00000078
00000078
00000078
00000078
00000078
00000078
00000078
00000078
ENDCHAR
STARTCHAR uni04B7
ENCODING 1207
SWIDTH 633 0
DWIDTH 25 0
BBX 24 25 0 -6
BITMAP
FFEFFE
FFEFFE
3F87F8
3F87F8
3F87F8
3F87F8
3F87F8
3F87F8
3FC7F8
1FFFF8
1FFFF8
07F7F8
0007F8
0007F8
0007F8
0007F8
0007F8
000FFF
000FFF
00000F
00000F
00000F
00000F
000007
000007
ENDCHAR
STARTCHAR uni04BA
ENCODING 1210
SWIDTH 723 0
DWIDTH 29 0
BBX 27 26 1 0
BITMAP
FFF80000
FFF80000
3FE00000
1FE00000
1FE00000
1FE00000
1FE00000
1FE00000
1FE00000
1FE00000
1FE30000
1FFFF800
1FFFFE00
1FE1FF00
1FE0FF00
1FE07F80
1FE07F80
1FE07F80
1FE07F80
1FE07F80
1FE07F80
1FE07F80
1FE07F80
7FF0FFC0
FFF9FFE0
FFF9FFE0
ENDCHAR
STARTCHAR uni04BB
ENCODING 1211
SWIDTH 624 0
DWIDTH 25 0
BBX 23 29 1 0
BITMAP
018000
3FC000
FFC000
FFC000
3F8000
3F8000
3F8000
3F8000
3F8000
3F8FC0
3F9FF0
3FBFF8
3FFFF8
3FE7F8
3FC3FC
3FC3FC
3FC3FC
3FC3FC
3FC3FC
3FC3FC
3FC3FC
3FC3FC
3FC3FC
3FC3FC
3FC3FC
3FC3FC
3FC3FC
FFEFFE
FFEFFE
ENDCHAR
STARTCHAR uni04C0
ENCODING 1216
SWIDTH 395 0
DWIDTH 16 0
BBX 14 26 1 0
BITMAP
FFFC
FFFC
3FF0
1FE0
1FE0
1FE0
1FE0
1FE0
1FE0
1FE0
1FE0
1FE0
1FE0
1FE0
1FE0
1FE0
1FE0
1FE0
1FE0
1FE0
1FE0
1FE0
1FE0
7FF0
FFFC
FFFC
ENDCHAR
STARTCHAR uni04C1
ENCODING 1217
SWIDTH 1000 0
DWIDTH 40 0
BBX 40 36 0 -1
BITMAP
000F81F000
000F81F000
000F81F000
000F81F000
000F00F000
0007FFE000
0003FFC000
0000000000
0E00000070
3F03FFC0FC
3F83FFC1FC
3F80FF01FC
3FC0FF03FC
3FC0FF03FC
0FE0FF07F0
00E0FF0700
0060FF0600
0070FF0E00
0070FF0E00
0038FF1C00
001FFFF800
000FFFF000
00FFFFFF00
03F8FF1FC0
07F0FF0FE0
07F0FF0FE0
0FF0FF0FF0
0FF0FF0FF0
0FE0FF07F0
1FE0FF07F8
1FE0FF07F8
1FE0FF07F8
3FE1FF87FC
FFC3FFC3FF
FF83FFC1FF
1C0000003C
ENDCHAR
STARTCHAR uni04C2
ENCODING 1218
SWIDTH 860 0
DWIDTH 34 0
BBX 34 30 0 0
BITMAP
001C070000
003E0F8000
007E1F8000
007E1F8000
003E0F8000
003C070000
001FFE0000
0007FC0000
0000000000
0000000000
1C00000F00
3E0FFE1F80
7F0FFE3F80
7F83F83F80
7F83F87F80
3F83F87F00
01C3F86000
00C3F8E000
00E3F8C000
007FFF8000
01FFFFF000
07E3F9FC00
0FC3F8FE00
1FC3F87E00
1FC3F87F00
3F83F87F00
3F83F87F00
3F83F87F00
FF8FFE3FC0
FF0FFE1FC0
ENDCHAR
STARTCHAR uni04CF
ENCODING 1231
SWIDTH 334 0
DWIDTH 13 0
BBX 11 28 1 0
BITMAP
FFE0
FFE0
3FC0
3FC0
3FC0
3FC0
3FC0
3F80
3F80
3F80
3F80
3F80
3F80
3F80
3F80
3F80
3F80
3F80
3F80
3F80
3F80
3FC0
3FC0
3FC0
3FC0
3FC0
FFE0
FFE0
ENDCHAR
STARTCHAR uni04D0
ENCODING 1232
SWIDTH 680 0
DWIDTH 27 0
BBX 27 35 0 0
BITMAP
03C07800
07E0FC00
07E0FC00
07C07C00
03C07800
01FFF800
00FFE000
00000000
00000000
001F8000
001F8000
001F8000
003FC000
003FC000
003FC000
007FE000
007FE000
006FE000
00CFF000
00CFF000
00C7F000
0187F800
0187F800
0183F800
0383FC00
03FFFC00
07FFFC00
07FFFE00
0601FE00
0E00FE00
0E00FF00
0C00FF00
7F01FF00
FF83FFE0
FF83FFE0
ENDCHAR
STARTCHAR uni04D1
ENCODING 1233
SWIDTH 540 0
DWIDTH 22 0
BBX 21 31 1 -1
BITMAP
0E0380
1F07C0
3F0FC0
3F0FC0
1F07C0
1E0380
0FFF00
03FE00
000000
000000
07FC00
1FFF00
3E3F80
7E3F80
7E1FC0
7E1FC0
7C1FC0
381FC0
007FC0
07FFC0
1F9FC0
3F1FC0
7E1FC0
FE1FC0
FE1FC0
FE1FC0
FF3FC0
FFFFF8
7FDFF0
3F8FE0
0E0380
ENDCHAR
STARTCHAR uni04D4
ENCODING 1236
SWIDTH 880 0
DWIDTH 35 0
BBX 34 26 0 0
BITMAP
00FFFFFF80
00FFFFFF80
003FFE0780
000FFE0780
001DFE07C0
001DFE03C0
0019FE03C0
0039FE0000
0031FE0C00
0071FE1C00
0071FE1C00
00E1FFFC00
00E1FFFC00
01C1FFFC00
01FFFE1C00
03FFFE1C00
0381FE0C00
0701FE0000
0701FE0000
0E01FE01C0
0E01FE03C0
0E01FE03C0
1C01FE03C0
7F03FE03C0
FF87FFFFC0
FF87FFFFC0
ENDCHAR
STARTCHAR uni04D5
ENCODING 1237
SWIDTH 792 0
DWIDTH 32 0
BBX 30 21 1 -1
BITMAP
07FC3F80
1FFFFFE0
3E3FF3F0
7E3FE1F8
7E3FE1F8
7E1FE1F8
7C1FE1FC
381FE1FC
007FFFFC
07FFFFFC
1F9FFFFC
3F1FE000
7E1FE000
FE1FE000
FE1FF008
FE0FF81C
FF1FFFF8
FFFFFFF8
7FF3FFF0
3FC0FFC0
07001C00
ENDCHAR
STARTCHAR uni04D6
ENCODING 1238
SWIDTH 591 0
DWIDTH 24 0
BBX 22 35 1 0
BITMAP
0F01E0
1F83F0
1F83F0
1F01F0
0F01E0
07FFE0
03FF80
000000
000000
FFFFF8
FFFFF8
3FE078
1FE078
1FE078
1FE078
1FE078
1FE000
1FE1C0
1FE1C0
1FE1C0
1FFFC0
1FFFC0
1FFFC0
1FE1C0
1FE1C0
1FE1C0
1FE000
1FE000
1FE03C
1FE03C
1FE03C
1FE07C
7FE07C
FFFFFC
FFFFFC
ENDCHAR
STARTCHAR uni04D7
ENCODING 1239
SWIDTH 526 0
DWIDTH 21 0
BBX 19 31 1 -1
BITMAP
0E0380
1F07C0
3F07C0
3F07C0
1F07C0
1E03C0
0FFF80
03FE00
000000
000000
01FC00
07FF00
1F9F80
3F8FC0
7F0FC0
7F0FE0
FF0FE0
FF0FE0
FFFFE0
FFFFE0
FFFFE0
FF0000
FF0000
FF8000
7F8040
7FC0E0
3FFFE0
3FFFC0
0FFF80
07FF00
007000
ENDCHAR
STARTCHAR uni04D8
ENCODING 1240
SWIDTH 663 0
DWIDTH 27 0
BBX 24 28 1 -1
BITMAP
01FE00
0FFF80
3FFFE0
3E07F0
3C03F8
3C01FC
3C01FE
3800FE
3800FF
0000FF
0000FF
0000FF
FFFFFF
FFFFFF
FFFFFF
FF00FF
FF00FF
FF00FF
FF00FF
FF00FF
7F00FE
7F01FE
7F81FC
3F81F8
1FC3F8
0FFFE0
07FFC0
00FE00
ENDCHAR
STARTCHAR uni04D9
ENCODING 1241
SWIDTH 526 0
DWIDTH 21 0
BBX 19 21 1 -1
BITMAP
07F800
1FFE00
3FFF00
7FFF80
78FFC0
207FC0
003FE0
001FE0
001FE0
FFFFE0
FFFFE0
FF9FE0
FE1FE0
FE1FE0
FE1FE0
FE1FC0
7E1FC0
3F3F80
1FFF00
0FFC00
00E000
ENDCHAR
STARTCHAR uni04E2
ENCODING 1250
SWIDTH 772 0
DWIDTH 31 0
BBX 29 33 1 0
BITMAP
00FFF800
00FFF800
00FFF800
00FFF800
00000000
00000000
00000000
FFF8FFF8
FFF8FFF8
3FE03FE0
1FE01FC0
1FE01FC0
1FE03FC0
1FE07FC0
1FE07FC0
1FE0FFC0
1FE1FFC0
1FE1FFC0
1FE3BFC0
1FE73FC0
1FE73FC0
1FCE3FC0
1FDC3FC0
1FDC3FC0
1FF83FC0
1FF03FC0
1FF03FC0
1FE03FC0
1FC03FC0
1FC03FC0
7FF07FF0
FFF8FFF8
FFF8FFF8
ENDCHAR
STARTCHAR uni04E3
ENCODING 1251
SWIDTH 660 0
DWIDTH 26 0
BBX 24 27 1 0
BITMAP
07FFE0
07FFE0
07FFE0
07FFE0
000000
000000
000000
000000
FFE3FF
FFE3FF
3F80FE
3F80FE
3F81FE
3F83FE
3F87FE
3F8EFE
3F9CFE
3F98FE
3FB8FE
3FF0FE
3FE0FE
3FC0FE
3F80FE
3F80FE
3F81FE
FFE3FF
FFE3FF
ENDCHAR
STARTCHAR uni04E6
ENCODING 1254
SWIDTH 700 0
DWIDTH 28 0
BBX 26 35 1 -1
BITMAP
03C0F000
07E1F800
07E1F800
07E1F800
07E1F800
03C0F000
00000000
003F0000
01FFE000
07FFF800
0FE1FC00
1FC0FE00
3F807F00
3F807F00
7F807F80
7F807F80
7F807F80
FF003FC0
FF003FC0
FF003FC0
FF003FC0
FF003FC0
FF003FC0
FF003FC0
FF003FC0
7F807F80
7F807F80
7F807F80
3F807F00
3F80FF00
1FC0FE00
0FE1FC00
07FFF800
01FFE000
003F0000
ENDCHAR
STARTCHAR uni04E7
ENCODING 1255
SWIDTH 572 0
DWIDTH 23 0
BBX 21 30 1 -1
BITMAP
0E0380
3F07C0
3F8FE0
3F8FE0
3F8FE0
1F07C0
000000
000000
000000
01FC00
0FFF00
1F9FC0
3F8FE0
7F07E0
7F07F0
FF07F0
FF07F8
FF07F8
FF07F8
FF07F8
FF07F8
FF07F8
FF07F8
7F07F0
7F07F0
3F0FE0
3F8FC0
1FFF80
07FF00
007000
ENDCHAR
STARTCHAR uni04E8
ENCODING 1256
SWIDTH 700 0
DWIDTH 28 0
BBX 26 28 1 -1
BITMAP
007F8000
01FFE000
07FFF800
0FC0FC00
1F807E00
3F807F00
3F807F00
7F003F80
7F003F80
7F003F80
FF003FC0
FF003FC0
FFFFFFC0
FFFFFFC0
FFFFFFC0
FF003FC0
FF003FC0
FF003FC0
7F003F80
7F003F80
7F003F80
3F807F00
3F807F00
1F807E00
0FC0FC00
07FFF800
01FFE000
003F0000
ENDCHAR
STARTCHAR uni04E9
ENCODING 1257
SWIDTH 572 0
DWIDTH 23 0
BBX 21 21 1 -1
BITMAP
03FE00
0FFF80
1F8FC0
3F0FE0
7F07F0
7F07F0
FF07F0
FF07F8
FF07F8
FFFFF8
FFFFF8
FE07F8
FF07F8
FF07F8
7F07F0
7F07F0
3F07E0
3F8FE0
1FFFC0
07FF00
007000
ENDCHAR
STARTCHAR uni04EE
ENCODING 1262
SWIDTH 661 0
DWIDTH 26 0
BBX 26 36 0 -3
BITMAP
007FFE00
007FFE00
007FFE00
007FFE00
00000000
00000000
00000000
FFFC3FC0
FFFC3FC0
3FF00F80
1FE00700
1FF00E00
0FF00E00
0FF81C00
07F81C00
07F83800
07FC3800
03FC3800
03FC7000
01FE7000
01FEE000
00FFE000
00FFC000
007FC000
007F8000
003F8000
003F8000
001F0000
001F0000
000E0000
0F8E0000
1FDC0000
1FF80000
1FF80000
1FF00000
0FE00000
ENDCHAR
STARTCHAR uni04EF
ENCODING 1263
SWIDTH 543 0
DWIDTH 22 0
BBX 22 36 0 -9
BITMAP
03FFE0
03FFE0
03FFE0
03FFE0
000000
000000
000000
000000
FFF3FC
FFE3F8
3FC0E0
3FC0C0
1FE1C0
1FE1C0
0FE180
0FF380
07F380
07F300
07FF00
03FE00
03FE00
01FE00
01FC00
00FC00
00F800
00F800
007800
007000
003000
003000
386000
7EE000
FEC000
FFC000
7F8000
3E0000
ENDCHAR
STARTCHAR uni04F2
ENCODING 1266
SWIDTH 661 0
DWIDTH 26 0
BBX 26 39 0 -3
BITMAP
00038700
0007CF00
0007CF00
00079F00
000F1E00
000E3C00
000E3800
001C3000
00000000
00000000
FFFC3FC0
FFFC3FC0
3FF00F80
1FE00700
1FF00E00
0FF00E00
0FF81C00
07F81C00
07F83800
07FC3800
03FC3800
03FC7000
01FE7000
01FEE000
00FFE000
00FFC000
007FC000
007F8000
003F8000
003F8000
001F0000
001F0000
000E0000
0F8E0000
1FDC0000
1FF80000
1FF80000
1FF00000
0FE00000
ENDCHAR
STARTCHAR uni04F3
ENCODING 1267
SWIDTH 543 0
DWIDTH 22 0
BBX 22 41 0 -9
BITMAP
001C70
003CF8
003CF8
007DF0
0079F0
0079E0
00F3C0
00E380
00E300
004100
000000
000000
000000
FFF3FC
FFE3F8
3FC0E0
3FC0C0
1FE1C0
1FE1C0
0FE180
0FF380
07F380
07F300
07FF00
03FE00
03FE00
01FE00
01FC00
00FC00
00F800
00F800
007800
007000
003000
003000
386000
7EE000
FEC000
FFC000
7F8000
3E0000
ENDCHAR
STARTCHAR a.sups
ENCODING 7491
SWIDTH 357 0
DWIDTH 14 0
BBX 13 13 1 16
BITMAP
3FC0
73E0
F1E0
F1E0
61E0
07E0
3DE0
79E0
F1E0
F1E0
F1E0
FFF8
7CF0
ENDCHAR
STARTCHAR b.sups
ENCODING 7495
SWIDTH 408 0
DWIDTH 16 0
BBX 16 19 0 16
BITMAP
0E00
FE00
3E00
3E00
3E00
3E00
3EF8
3FFC
3E3E
3E3E
3E1E
3E1F
3E1F
3E1F
3E1E
3E3E
3E3E
7FFC
7DF0
ENDCHAR
STARTCHAR d.sups
ENCODING 7496
SWIDTH 388 0
DWIDTH 16 0
BBX 14 19 1 16
BITMAP
0018
01F8
00F8
0078
0078
0078
1F78
3FF8
7C78
F878
F878
F078
F078
F078
F878
F878
7C78
7FFC
3F7C
ENDCHAR
STARTCHAR e.sups
ENCODING 7497
SWIDTH 348 0
DWIDTH 14 0
BBX 12 13 1 16
BITMAP
1FC0
39E0
78F0
F8F0
F0F0
FFF0
FFF0
F800
F800
F810
7E70
3FE0
1FC0
ENDCHAR
STARTCHAR g.sups
ENCODING 7501
SWIDTH 365 0
DWIDTH 15 0
BBX 14 19 0 10
BITMAP
1FCC
3CFC
78F0
78F0
78F0
78F0
3CE0
1FC0
3000
7000
7FF0
7FF8
3FFC
2FFC
603C
E01C
F038
7FF0
0F00
ENDCHAR
STARTCHAR k.sups
ENCODING 7503
SWIDTH 404 0
DWIDTH 16 0
BBX 16 19 0 16
BITMAP
0E00
FE00
7E00
3E00
3E00
3E00
3E7E
3E3E
3E30
3E60
3EE0
3FE0
3FF0
3EF0
3EF8
3E7C
3E7C
7F3F
7F3F
ENDCHAR
STARTCHAR m.sups
ENCODING 7504
SWIDTH 607 0
DWIDTH 24 0
BBX 23 13 1 16
BITMAP
19F1F0
FFFBF8
FE7CF8
7C7C78
7C7C78
7C7C78
7C7C78
7C7C78
7C7C78
7C7C78
7C7C78
FEFEFE
FEFEFE
ENDCHAR
STARTCHAR o.sups
ENCODING 7506
SWIDTH 381 0
DWIDTH 15 0
BBX 14 13 1 16
BITMAP
1FC0
3CF0
78F0
F878
F078
F07C
F07C
F078
F078
F878
78F0
3CE0
1FC0
ENDCHAR
STARTCHAR p.sups
ENCODING 7510
SWIDTH 404 0
DWIDTH 16 0
BBX 15 19 0 10
BITMAP
1DF8
FFFC
FE3E
3C3E
3C1E
3C1E
3C1E
3C1E
3C1E
3C3E
3E7C
3FFC
3DF0
3C00
3C00
3C00
3C00
7F00
7F00
ENDCHAR
STARTCHAR t.sups
ENCODING 7511
SWIDTH 239 0
DWIDTH 10 0
BBX 10 16 0 16
BITMAP
1C00
1C00
3C00
FF80
FF80
3C00
3C00
3C00
3C00
3C00
3C00
3C00
3C00
3C80
3FC0
1F00
ENDCHAR
STARTCHAR u.sups
ENCODING 7512
SWIDTH 400 0
DWIDTH 16 0
BBX 15 13 0 16
BITMAP
FC7C
FCFC
3C3C
3C3C
3C3C
3C3C
3C3C
3C3C
3C3C
3C3C
3EFC
3FBE
1F3E
ENDCHAR
STARTCHAR v.sups
ENCODING 7515
SWIDTH 357 0
DWIDTH 14 0
BBX 14 13 0 16
BITMAP
FF7C
FE7C
3C30
3E30
3E20
1E60
1F60
0F40
0FC0
0780
0780
0780
0300
ENDCHAR
STARTCHAR c.sups
ENCODING 7580
SWIDTH 334 0
DWIDTH 13 0
BBX 12 13 1 16
BITMAP
1FC0
3CE0
78F0
F8F0
F060
F000
F000
F000
F800
F810
7E70
3FE0
1FC0
ENDCHAR
STARTCHAR f.sups
ENCODING 7584
SWIDTH 234 0
DWIDTH 9 0
BBX 12 19 0 16
BITMAP
07F0
0EF0
1E70
1C00
3C00
3C00
FF80
FF80
3C00
3C00
3C00
3C00
3C00
3C00
3C00
3C00
3C00
7F00
FF00
ENDCHAR
STARTCHAR z.sups
ENCODING 7611
SWIDTH 320 0
DWIDTH 13 0
BBX 11 13 1 16
BITMAP
FFE0
E3E0
C7C0
C7C0
0F80
0F00
1F00
3E00
3E60
7C60
F8E0
F8E0
FFE0
ENDCHAR
STARTCHAR uni1E0C
ENCODING 7692
SWIDTH 703 0
DWIDTH 28 0
BBX 26 36 1 -10
BITMAP
FFFF8000
FFFFF000
3FEFF800
1FE1FC00
1FE0FE00
1FE0FF00
1FE07F80
1FE07F80
1FE03F80
1FE03FC0
1FE03FC0
1FE03FC0
1FE03FC0
1FE03FC0
1FE03FC0
1FE03FC0
1FE03FC0
1FE03F80
1FE07F80
1FE07F00
1FE0FF00
1FE0FE00
1FE1FC00
7FEFF800
FFFFE000
FFFF0000
00000000
00000000
00000000
003E0000
003F0000
007F0000
007F8000
007F0000
003E0000
00080000
ENDCHAR
STARTCHAR uni1E0D
ENCODING 7693
SWIDTH 605 0
DWIDTH 24 0
BBX 22 39 1 -10
BITMAP
000038
0007F8
001FF8
001FF8
0007F8
0007F8
0007F8
0007F8
0007F8
03F7F8
0FFFF8
1FFFF8
3FFFF8
7FC7F8
7F87F8
FF07F8
FF07F8
FF07F8
FF07F8
FF07F8
FF07F8
FF07F8
FF07F8
FF87F8
7F87F8
7FEFF8
3FFFF8
1FFFFC
0FF3FC
018000
000000
000000
003E00
007E00
00FF00
00FF00
007F00
007E00
000800
ENDCHAR
STARTCHAR uni1E0E
ENCODING 7694
SWIDTH 703 0
DWIDTH 28 0
BBX 26 34 1 -8
BITMAP
FFFF8000
FFFFF000
3FEFF800
1FE1FC00
1FE0FE00
1FE0FF00
1FE07F80
1FE07F80
1FE03F80
1FE03FC0
1FE03FC0
1FE03FC0
1FE03FC0
1FE03FC0
1FE03FC0
1FE03FC0
1FE03FC0
1FE03F80
1FE07F80
1FE07F00
1FE0FF00
1FE0FE00
1FE1FC00
7FEFF800
FFFFE000
FFFF0000
00000000
00000000
00000000
00000000
03FFF000
03FFF000
03FFF000
03FFF000
ENDCHAR
STARTCHAR uni1E0F
ENCODING 7695
SWIDTH 605 0
DWIDTH 24 0
BBX 22 37 1 -8
BITMAP
000038
0007F8
001FF8
001FF8
0007F8
0007F8
0007F8
0007F8
0007F8
03F7F8
0FFFF8
1FFFF8
3FFFF8
7FC7F8
7F87F8
FF07F8
FF07F8
FF07F8
FF07F8
FF07F8
FF07F8
FF07F8
FF07F8
FF87F8
7F87F8
7FEFF8
3FFFF8
1FFFFC
0FF3FC
018000
000000
000000
000000
07FFE0
07FFE0
07FFE0
07FFE0
ENDCHAR
STARTCHAR uni1E20
ENCODING 7712
SWIDTH 672 0
DWIDTH 27 0
BBX 25 34 1 -1
BITMAP
01FFF000
01FFF000
01FFF000
01FFF000
00000000
00000000
001FC000
01FFF800
07FFFC00
0FF03C00
1FE03C00
3FC03C00
3FC01C00
7F801E00
7F800000
7F800000
FF800000
FF000000
FF000000
FF000000
FF0FFF80
FF0FFF80
FF03FF00
FF80FE00
7F80FE00
7F80FE00
7F80FE00
3FC0FE00
3FC0FE00
1FE0FE00
0FF0FE00
03FFFE00
01FFF800
001FC000
ENDCHAR
STARTCHAR uni1E21
ENCODING 7713
SWIDTH 553 0
DWIDTH 22 0
BBX 22 36 0 -9
BITMAP
1FFF80
1FFF80
1FFF80
1FFF80
000000
000000
000000
03FC0C
0FFF7C
3F9FFC
3F0FC0
7F0FE0
7F0FE0
7F0FE0
7F0FE0
3F0FC0
3F0FC0
1FBF80
0FFF00
1D7000
3C0000
3C0000
7FFF80
7FFFE0
7FFFF0
7FFFF8
3FFFF8
1FFFF8
3BFFF8
7001F8
F000F8
F801F0
FC03F0
7FFFE0
3FFF80
07F800
ENDCHAR
STARTCHAR uni1E24
ENCODING 7716
SWIDTH 756 0
DWIDTH 30 0
BBX 28 36 1 -10
BITMAP
FFF9FFF0
FFF9FFF0
3FE07FC0
1FE07F80
1FE07F80
1FE07F80
1FE07F80
1FE07F80
1FE07F80
1FE07F80
1FE07F80
1FFFFF80
1FFFFF80
1FFFFF80
1FE07F80
1FE07F80
1FE07F80
1FE07F80
1FE07F80
1FE07F80
1FE07F80
1FE07F80
1FE07F80
7FF0FFE0
FFF9FFF0
FFF9FFF0
00000000
00000000
00000000
000F8000
001F8000
003FC000
003FC000
001F8000
001F8000
00060000
ENDCHAR
STARTCHAR uni1E25
ENCODING 7717
SWIDTH 624 0
DWIDTH 25 0
BBX 23 39 1 -10
BITMAP
018000
3FC000
FFC000
FFC000
3F8000
3F8000
3F8000
3F8000
3F8000
3F8FC0
3F9FF0
3FBFF8
3FFFF8
3FE7F8
3FC3FC
3FC3FC
3FC3FC
3FC3FC
3FC3FC
3FC3FC
3FC3FC
3FC3FC
3FC3FC
3FC3FC
3FC3FC
3FC3FC
3FC3FC
FFEFFE
FFEFFE
000000
000000
000000
007C00
00FE00
00FE00
00FE00
00FE00
007C00
001000
ENDCHAR
STARTCHAR uni1E2A
ENCODING 7722
SWIDTH 756 0
DWIDTH 30 0
BBX 28 35 1 -9
BITMAP
FFF9FFF0
FFF9FFF0
3FE07FC0
1FE07F80
1FE07F80
1FE07F80
1FE07F80
1FE07F80
1FE07F80
1FE07F80
1FE07F80
1FFFFF80
1FFFFF80
1FFFFF80
1FE07F80
1FE07F80
1FE07F80
1FE07F80
1FE07F80
1FE07F80
1FE07F80
1FE07F80
1FE07F80
7FF0FFE0
FFF9FFF0
FFF9FFF0
00000000
00000000
00402000
01C03800
00E07800
00F0F000
00FFF000
007FE000
003FC000
ENDCHAR
STARTCHAR uni1E2B
ENCODING 7723
SWIDTH 624 0
DWIDTH 25 0
BBX 23 38 1 -9
BITMAP
018000
3FC000
FFC000
FFC000
3F8000
3F8000
3F8000
3F8000
3F8000
3F8FC0
3F9FF0
3FBFF8
3FFFF8
3FE7F8
3FC3FC
3FC3FC
3FC3FC
3FC3FC
3FC3FC
3FC3FC
3FC3FC
3FC3FC
3FC3FC
3FC3FC
3FC3FC
3FC3FC
3FC3FC
FFEFFE
FFEFFE
000000
000000
010080
0700C0
0781C0
03C7C0
03FF80
01FF80
00FE00
ENDCHAR
STARTCHAR uni1E36
ENCODING 7734
SWIDTH 574 0
DWIDTH 23 0
BBX 22 36 1 -10
BITMAP
FFFC00
FFFC00
3FF000
1FE000
1FE000
1FE000
1FE000
1FE000
1FE000
1FE000
1FE000
1FE000
1FE000
1FE000
1FE000
1FE000
1FE000
1FE000
1FE03C
1FE03C
1FE038
1FE078
1FE078
7FE078
FFFFF8
FFFFF8
000000
000000
000000
007C00
00FE00
00FE00
00FE00
00FE00
007C00
001000
ENDCHAR
STARTCHAR uni1E37
ENCODING 7735
SWIDTH 334 0
DWIDTH 13 0
BBX 11 39 1 -10
BITMAP
01C0
3FC0
FFC0
FFC0
3FC0
3FC0
3FC0
3FC0
3FC0
3FC0
3FC0
3FC0
3FC0
3FC0
3FC0
3FC0
3FC0
3FC0
3FC0
3FC0
3FC0
3FC0
3FC0
3FC0
3FC0
3FC0
3FC0
FFE0
FFE0
0000
0000
0000
0F80
1F80
3FC0
3FC0
1F80
1F80
0600
ENDCHAR
STARTCHAR uni1E38
ENCODING 7736
SWIDTH 574 0
DWIDTH 23 0
BBX 22 43 1 -10
BITMAP
FFFC00
FFFC00
FFFC00
FFFC00
000000
000000
000000
FFFC00
FFFC00
3FF000
1FE000
1FE000
1FE000
1FE000
1FE000
1FE000
1FE000
1FE000
1FE000
1FE000
1FE000
1FE000
1FE000
1FE000
1FE000
1FE03C
1FE03C
1FE038
1FE078
1FE078
7FE078
FFFFF8
FFFFF8
000000
000000
000000
007C00
00FE00
00FE00
00FE00
00FE00
007C00
001000
ENDCHAR
STARTCHAR uni1E39
ENCODING 7737
SWIDTH 334 0
DWIDTH 13 0
BBX 13 45 0 -10
BITMAP
FFF8
FFF8
FFF8
FFF8
0000
0000
00E0
1FE0
7FE0
7FE0
1FE0
1FE0
1FE0
1FE0
1FE0
1FE0
1FE0
1FE0
1FE0
1FE0
1FE0
1FE0
1FE0
1FE0
1FE0
1FE0
1FE0
1FE0
1FE0
1FE0
1FE0
1FE0
1FE0
7FF0
7FF0
0000
0000
0000
07C0
0FC0
1FE0
1FE0
0FC0
0FC0
0300
ENDCHAR
STARTCHAR uni1E3A
ENCODING 7738
SWIDTH 574 0
DWIDTH 23 0
BBX 22 34 1 -8
BITMAP
FFFC00
FFFC00
3FF000
1FE000
1FE000
1FE000
1FE000
1FE000
1FE000
1FE000
1FE000
1FE000
1FE000
1FE000
1FE000
1FE000
1FE000
1FE000
1FE03C
1FE03C
1FE038
1FE078
1FE078
7FE078
FFFFF8
FFFFF8
000000
000000
000000
000000
07FFC0
07FFC0
07FFC0
07FFC0
ENDCHAR
STARTCHAR uni1E3B
ENCODING 7739
SWIDTH 334 0
DWIDTH 13 0
BBX 13 37 0 -8
BITMAP
00E0
1FE0
7FE0
7FE0
1FE0
1FE0
1FE0
1FE0
1FE0
1FE0
1FE0
1FE0
1FE0
1FE0
1FE0
1FE0
1FE0
1FE0
1FE0
1FE0
1FE0
1FE0
1FE0
1FE0
1FE0
1FE0
1FE0
7FF0
7FF0
0000
0000
0000
0000
FFF8
FFF8
FFF8
FFF8
ENDCHAR
STARTCHAR uni1E3E
ENCODING 7742
SWIDTH 893 0
DWIDTH 36 0
BBX 35 35 0 0
BITMAP
0000078000
00000F8000
00001F8000
00007F8000
0000FF0000
0001FC0000
0000E00000
0000800000
0000000000
7FF801FFC0
7FF801FFC0
1FFC01FF80
0FFC03FF00
0FFC03FF00
0FFE03FF00
0FFE07FF00
0FFE07FF00
0EFF06FF00
0EFF0EFF00
0EFF0EFF00
0E7F8CFF00
0E7F9CFF00
0E3F9CFF00
0E3FD8FF00
0E3FF8FF00
0E1FF8FF00
0E1FF0FF00
0E1FF0FF00
0E0FF0FF00
0E0FE0FF00
0E0FE0FF00
0E07E0FF00
3FC7C3FF80
FFC7C7FFE0
FFC3C7FFE0
ENDCHAR
STARTCHAR uni1E3F
ENCODING 7743
SWIDTH 910 0
DWIDTH 36 0
BBX 35 31 1 0
BITMAP
00001E0000
00003F0000
00003F0000
00007E0000
00007E0000
0000F80000
0001F00000
0001E00000
0000800000
0000000000
0000000000
038FC0FC00
1F9FF3FE00
FFBFF7FF00
FFFFFFFF80
7FE7FC7F80
3F83F87F80
3F83F83F80
3F83F83F80
3F83F83F80
3F83F83F80
3F83F83F80
3F83F83F80
3F83F83F80
3F83F83F80
3F83F83F80
3F83F83F80
3F83F83F80
3F83F83F80
FFEFFEFFE0
FFEFFEFFE0
ENDCHAR
STARTCHAR uni1E42
ENCODING 7746
SWIDTH 893 0
DWIDTH 36 0
BBX 35 36 0 -10
BITMAP
7FF801FFC0
7FF801FFC0
1FFC01FF80
0FFC03FF00
0FFC03FF00
0FFE03FF00
0FFE07FF00
0FFE07FF00
0EFF06FF00
0EFF0EFF00
0EFF0EFF00
0E7F8CFF00
0E7F9CFF00
0E3F9CFF00
0E3FD8FF00
0E3FF8FF00
0E1FF8FF00
0E1FF0FF00
0E1FF0FF00
0E0FF0FF00
0E0FE0FF00
0E0FE0FF00
0E07E0FF00
3FC7C3FF80
FFC7C7FFE0
FFC3C7FFE0
0000000000
0000000000
0000000000
0007C00000
0007E00000
000FF00000
000FF00000
0007E00000
0007E00000
0001000000
ENDCHAR
STARTCHAR uni1E43
ENCODING 7747
SWIDTH 910 0
DWIDTH 36 0
BBX 35 30 1 -10
BITMAP
038FC0FC00
1F9FF3FE00
FFBFF7FF00
FFFFFFFF80
7FE7FC7F80
3F83F87F80
3F83F83F80
3F83F83F80
3F83F83F80
3F83F83F80
3F83F83F80
3F83F83F80
3F83F83F80
3F83F83F80
3F83F83F80
3F83F83F80
3F83F83F80
3F83F83F80
FFEFFEFFE0
FFEFFEFFE0
0000000000
0000000000
0000000000
0001F00000
0003F80000
0003F80000
0003F80000
0003F80000
0001F00000
0000400000
ENDCHAR
STARTCHAR uni1E44
ENCODING 7748
SWIDTH 725 0
DWIDTH 29 0
BBX 27 35 1 0
BITMAP
000E0000
001F0000
003F8000
003F8000
003F8000
003F8000
001F0000
00000000
00000000
FFE0FFE0
FFE0FFE0
3FF03FC0
1FF80700
1FFC0700
1FFC0700
1FFE0700
1FFF0700
1DFF0700
1CFF8700
1CFFC700
1C7FE700
1C3FE700
1C3FF700
1C1FFF00
1C0FFF00
1C07FF00
1C07FF00
1C03FF00
1C01FF00
1C01FF00
1C00FF00
1C007F00
7FC03F00
FFE03F00
FFE01F00
ENDCHAR
STARTCHAR uni1E45
ENCODING 7749
SWIDTH 620 0
DWIDTH 25 0
BBX 23 29 1 0
BITMAP
007C00
00FE00
00FE00
00FE00
00FE00
007C00
001000
000000
000000
038FC0
1F9FF0
FFBFF0
FFFFF8
7FE7F8
3F87F8
3F83F8
3F83F8
3F83F8
3F83F8
3F83F8
3F83F8
3F83F8
3F83F8
3F83F8
3F83F8
3F83F8
3F83F8
FFEFFE
FFEFFE
ENDCHAR
STARTCHAR uni1E46
ENCODING 7750
SWIDTH 725 0
DWIDTH 29 0
BBX 27 36 1 -10
BITMAP
FFE0FFE0
FFE0FFE0
3FF03FC0
1FF80700
1FFC0700
1FFC0700
1FFE0700
1FFF0700
1DFF0700
1CFF8700
1CFFC700
1C7FE700
1C3FE700
1C3FF700
1C1FFF00
1C0FFF00
1C07FF00
1C07FF00
1C03FF00
1C01FF00
1C01FF00
1C00FF00
1C007F00
7FC03F00
FFE03F00
FFE01F00
00000000
00000000
00000000
000F8000
001F8000
003FC000
003FC000
001F8000
001F8000
00060000
ENDCHAR
STARTCHAR uni1E47
ENCODING 7751
SWIDTH 620 0
DWIDTH 25 0
BBX 23 30 1 -10
BITMAP
038FC0
1F9FF0
FFBFF0
FFFFF8
7FE7F8
3F87F8
3F83F8
3F83F8
3F83F8
3F83F8
3F83F8
3F83F8
3F83F8
3F83F8
3F83F8
3F83F8
3F83F8
3F83F8
FFEFFE
FFEFFE
000000
000000
000000
007C00
00FE00
00FE00
00FE00
00FE00
007C00
001000
ENDCHAR
STARTCHAR uni1E48
ENCODING 7752
SWIDTH 725 0
DWIDTH 29 0
BBX 27 34 1 -8
BITMAP
FFE0FFE0
FFE0FFE0
3FF03FC0
1FF80700
1FFC0700
1FFC0700
1FFE0700
1FFF0700
1DFF0700
1CFF8700
1CFFC700
1C7FE700
1C3FE700
1C3FF700
1C1FFF00
1C0FFF00
1C07FF00
1C07FF00
1C03FF00
1C01FF00
1C01FF00
1C00FF00
1C007F00
7FC03F00
FFE03F00
FFE01F00
00000000
00000000
00000000
00000000
01FFF000
01FFF000
01FFF000
01FFF000
ENDCHAR
STARTCHAR uni1E49
ENCODING 7753
SWIDTH 620 0
DWIDTH 25 0
BBX 23 28 1 -8
BITMAP
038FC0
1F9FF0
FFBFF0
FFFFF8
7FE7F8
3F87F8
3F83F8
3F83F8
3F83F8
3F83F8
3F83F8
3F83F8
3F83F8
3F83F8
3F83F8
3F83F8
3F83F8
3F83F8
FFEFFE
FFEFFE
000000
000000
000000
000000
07FFC0
07FFC0
07FFC0
07FFC0
ENDCHAR
STARTCHAR uni1E5A
ENCODING 7770
SWIDTH 696 0
DWIDTH 28 0
BBX 27 36 1 -10
BITMAP
FFFFE000
FFFFF800
3FEFFC00
1FE1FE00
1FE0FE00
1FE0FF00
1FE0FF00
1FE0FF00
1FE0FE00
1FE0FE00
1FE1FC00
1FE7F000
1FFF8000
1FFFF000
1FE3FC00
1FE3FC00
1FE1FE00
1FE1FE00
1FE1FE00
1FE1FE00
1FE1FF00
1FE1FF00
1FE1FF00
7FF0FFC0
FFFCFFE0
FFFC7FE0
00000F00
00000000
00000000
001F0000
003F8000
003F8000
003F8000
003F8000
001F0000
00040000
ENDCHAR
STARTCHAR uni1E5B
ENCODING 7771
SWIDTH 483 0
DWIDTH 19 0
BBX 18 30 1 -10
BITMAP
038780
1F9FC0
FFBFC0
FFBFC0
7FBFC0
3FE7C0
3FC380
3FC000
3FC000
3F8000
3F8000
3F8000
3F8000
3F8000
3F8000
3F8000
3F8000
3FE000
FFF800
FFF800
000000
000000
000000
1F0000
3F8000
3F8000
3F8000
3F8000
1F0000
040000
ENDCHAR
STARTCHAR uni1E5C
ENCODING 7772
SWIDTH 696 0
DWIDTH 28 0
BBX 27 43 1 -10
BITMAP
03FFF000
03FFF000
03FFF000
03FFF000
00000000
00000000
00000000
FFFFE000
FFFFF800
3FEFFC00
1FE1FE00
1FE0FE00
1FE0FF00
1FE0FF00
1FE0FF00
1FE0FE00
1FE0FE00
1FE1FC00
1FE7F000
1FFF8000
1FFFF000
1FE3FC00
1FE3FC00
1FE1FE00
1FE1FE00
1FE1FE00
1FE1FE00
1FE1FF00
1FE1FF00
1FE1FF00
7FF0FFC0
FFFCFFE0
FFFC7FE0
00000F00
00000000
00000000
001F0000
003F8000
003F8000
003F8000
003F8000
001F0000
00040000
ENDCHAR
STARTCHAR uni1E5D
ENCODING 7773
SWIDTH 483 0
DWIDTH 19 0
BBX 18 37 1 -10
BITMAP
0FFF80
0FFF80
0FFF80
0FFF80
000000
000000
000000
038780
1F9FC0
FFBFC0
FFBFC0
7FBFC0
3FE7C0
3FC380
3FC000
3FC000
3F8000
3F8000
3F8000
3F8000
3F8000
3F8000
3F8000
3F8000
3FE000
FFF800
FFF800
000000
000000
000000
1F0000
3F8000
3F8000
3F8000
3F8000
1F0000
040000
ENDCHAR
STARTCHAR uni1E5E
ENCODING 7774
SWIDTH 696 0
DWIDTH 28 0
BBX 27 34 1 -8
BITMAP
FFFFE000
FFFFF800
3FEFFC00
1FE1FE00
1FE0FE00
1FE0FF00
1FE0FF00
1FE0FF00
1FE0FE00
1FE0FE00
1FE1FC00
1FE7F000
1FFF8000
1FFFF000
1FE3FC00
1FE3FC00
1FE1FE00
1FE1FE00
1FE1FE00
1FE1FE00
1FE1FF00
1FE1FF00
1FE1FF00
7FF0FFC0
FFFCFFE0
FFFC7FE0
00000F00
00000000
00000000
00000000
01FFF800
01FFF800
01FFF800
01FFF800
ENDCHAR
STARTCHAR uni1E5F
ENCODING 7775
SWIDTH 483 0
DWIDTH 19 0
BBX 19 28 0 -8
BITMAP
01C3C0
0FCFE0
7FDFE0
7FDFE0
3FDFE0
1FF3E0
1FE1C0
1FE000
1FE000
1FC000
1FC000
1FC000
1FC000
1FC000
1FC000
1FC000
1FC000
1FF000
7FFC00
7FFC00
000000
000000
000000
000000
FFFC00
FFFC00
FFFC00
FFFC00
ENDCHAR
STARTCHAR uni1E60
ENCODING 7776
SWIDTH 553 0
DWIDTH 22 0
BBX 20 36 1 -1
BITMAP
007800
00FC00
01FC00
01FE00
01FE00
00FC00
007800
000000
01FE00
07FFC0
1FFFE0
3F83E0
7F03E0
7F03E0
7F03E0
7F03E0
7F8000
7FC000
7FF000
7FFC00
3FFF00
1FFF80
0FFFC0
07FFE0
01FFF0
007FF0
001FF0
000FF0
F807F0
F807F0
F807F0
F807E0
F80FC0
FFFF80
3FFF00
07F800
ENDCHAR
STARTCHAR uni1E61
ENCODING 7777
SWIDTH 463 0
DWIDTH 19 0
BBX 17 30 1 -1
BITMAP
03E000
03F000
07F800
07F800
07F000
03F000
008000
000000
000000
07F800
1FFF00
3E1F00
7C1F00
FC1E00
FE0E00
FF8000
FFF000
FFFC00
7FFE00
7FFF00
3FFF80
0FFF80
01FF80
F07F80
F03F80
F03F00
F03F00
FFFE00
7FF800
038000
ENDCHAR
STARTCHAR uni1E62
ENCODING 7778
SWIDTH 553 0
DWIDTH 22 0
BBX 20 37 1 -10
BITMAP
01FE00
07FFC0
1FFFE0
3F83E0
7F03E0
7F03E0
7F03E0
7F03E0
7F8000
7FC000
7FF000
7FFC00
3FFF00
1FFF80
0FFFC0
07FFE0
01FFF0
007FF0
001FF0
000FF0
F807F0
F807F0
F807F0
F807E0
F80FC0
FFFF80
3FFF00
07F800
000000
000000
00F800
01F800
03FC00
03FC00
01F800
01F800
006000
ENDCHAR
STARTCHAR uni1E63
ENCODING 7779
SWIDTH 463 0
DWIDTH 19 0
BBX 17 30 1 -10
BITMAP
07F800
1FFF00
3E1F00
7C1F00
FC1E00
FE0E00
FF8000
FFF000
FFFC00
7FFE00
7FFF00
3FFF80
0FFF80
01FF80
F07F80
F03F80
F03F00
F03F00
FFFE00
7FF800
038000
000000
000000
03E000
07F000
07F000
07F000
07F000
03E000
008000
ENDCHAR
STARTCHAR uni1E6C
ENCODING 7788
SWIDTH 646 0
DWIDTH 26 0
BBX 24 36 1 -10
BITMAP
FFFFFF
FFFFFF
F0FF0F
F0FF0F
F0FF0F
F0FF0F
F0FF0F
00FF00
00FF00
00FF00
00FF00
00FF00
00FF00
00FF00
00FF00
00FF00
00FF00
00FF00
00FF00
00FF00
00FF00
00FF00
00FF00
03FFC0
07FFE0
07FFE0
000000
000000
000000
007C00
007E00
00FF00
00FF00
007E00
007E00
001000
ENDCHAR
STARTCHAR uni1E6D
ENCODING 7789
SWIDTH 372 0
DWIDTH 15 0
BBX 15 35 0 -10
BITMAP
07C0
07C0
0FC0
0FC0
0FC0
1FC0
FFFC
FFFC
FFFC
1FC0
1FC0
1FC0
1FC0
1FC0
1FC0
1FC0
1FC0
1FC0
1FC0
1FC0
1FE0
1FE2
1FFE
0FFC
07F8
00C0
0000
0000
01F0
03F8
03F8
03F8
03F8
01F0
0040
ENDCHAR
STARTCHAR uni1E6E
ENCODING 7790
SWIDTH 646 0
DWIDTH 26 0
BBX 24 34 1 -8
BITMAP
FFFFFF
FFFFFF
F0FF0F
F0FF0F
F0FF0F
F0FF0F
F0FF0F
00FF00
00FF00
00FF00
00FF00
00FF00
00FF00
00FF00
00FF00
00FF00
00FF00
00FF00
00FF00
00FF00
00FF00
00FF00
00FF00
03FFC0
07FFE0
07FFE0
000000
000000
000000
000000
07FFE0
07FFE0
07FFE0
07FFE0
ENDCHAR
STARTCHAR uni1E6F
ENCODING 7791
SWIDTH 372 0
DWIDTH 15 0
BBX 16 33 0 -8
BITMAP
07C0
07C0
0FC0
0FC0
0FC0
1FC0
FFFC
FFFC
FFFC
1FC0
1FC0
1FC0
1FC0
1FC0
1FC0
1FC0
1FC0
1FC0
1FC0
1FC0
1FE0
1FE2
1FFE
0FFC
07F8
00C0
0000
0000
0000
3FFF
3FFF
3FFF
3FFF
ENDCHAR
STARTCHAR Wgrave
ENCODING 7808
SWIDTH 989 0
DWIDTH 40 0
BBX 40 35 0 0
BITMAP
0003C00000
0003F00000
0003F80000
0003FC0000
0001FE0000
00003F0000
00000F0000
0000020000
0000000000
FFF8FFF9FF
FFF8FFF9FF
3FE03FE07C
1FE03FC030
1FE03FC070
1FE03FC070
0FF03FC060
0FF07FE0E0
0FF07FE0E0
0FF06FE0C0
07F8EFE0C0
07F8EFF1C0
07F8CFF1C0
03F8C7F180
03FDC7F380
03FD87FB80
01FD83FB00
01FF83FB00
01FF83FF00
01FF01FE00
00FF01FE00
00FF01FE00
00FE01FC00
007E00FC00
007E00FC00
007C00F800
ENDCHAR
STARTCHAR wgrave
ENCODING 7809
SWIDTH 800 0
DWIDTH 32 0
BBX 32 31 0 0
BITMAP
001E0000
003F0000
003F0000
001F8000
001F8000
0007C000
0003E000
0001E000
00004000
00000000
00000000
00000000
FFEFFE7F
FFC7FC7E
7F83F838
3F83F838
3FC3FC30
1FC7FC70
1FC7FC70
1FC6FE60
0FEEFEE0
0FECFEE0
0FEC7EC0
07FC7FC0
07F87FC0
07F83F80
03F83F80
03F03F80
01F01F00
01F01F00
01E00E00
ENDCHAR
STARTCHAR Wacute
ENCODING 7810
SWIDTH 989 0
DWIDTH 40 0
BBX 40 35 0 0
BITMAP
0000003800
000000FC00
000001FC00
000003FC00
000007F800
00000FC000
00000F0000
0000040000
0000000000
FFF8FFF9FF
FFF8FFF9FF
3FE03FE07C
1FE03FC030
1FE03FC070
1FE03FC070
0FF03FC060
0FF07FE0E0
0FF07FE0E0
0FF06FE0C0
07F8EFE0C0
07F8EFF1C0
07F8CFF1C0
03F8C7F180
03FDC7F380
03FD87FB80
01FD83FB00
01FF83FB00
01FF83FF00
01FF01FE00
00FF01FE00
00FF01FE00
00FE01FC00
007E00FC00
007E00FC00
007C00F800
ENDCHAR
STARTCHAR wacute
ENCODING 7811
SWIDTH 800 0
DWIDTH 32 0
BBX 32 31 0 0
BITMAP
00001C00
00003E00
00007E00
0000FE00
0000FC00
0001F800
0001E000
0003C000
00010000
00000000
00000000
00000000
FFEFFE7F
FFC7FC7E
7F83F838
3F83F838
3FC3FC30
1FC7FC70
1FC7FC70
1FC6FE60
0FEEFEE0
0FECFEE0
0FEC7EC0
07FC7FC0
07F87FC0
07F83F80
03F83F80
03F03F80
01F01F00
01F01F00
01E00E00
ENDCHAR
STARTCHAR Wdieresis
ENCODING 7812
SWIDTH 989 0
DWIDTH 40 0
BBX 40 34 0 0
BITMAP
0001C07800
0003F0FC00
0007F0FC00
0007F0FC00
0003F0FC00
0001E07800
0000000000
0000000000
FFF8FFF9FF
FFF8FFF9FF
3FE03FE07C
1FE03FC030
1FE03FC070
1FE03FC070
0FF03FC060
0FF07FE0E0
0FF07FE0E0
0FF06FE0C0
07F8EFE0C0
07F8EFF1C0
07F8CFF1C0
03F8C7F180
03FDC7F380
03FD87FB80
01FD83FB00
01FF83FB00
01FF83FF00
01FF01FE00
00FF01FE00
00FF01FE00
00FE01FC00
007E00FC00
007E00FC00
007C00F800
ENDCHAR
STARTCHAR wdieresis
ENCODING 7813
SWIDTH 800 0
DWIDTH 32 0
BBX 32 29 0 0
BITMAP
001C0700
007E0F80
007F1FC0
007F1FC0
007E1FC0
003E0F80
00000000
00000000
00000000
00000000
FFEFFE7F
FFC7FC7E
7F83F838
3F83F838
3FC3FC30
1FC7FC70
1FC7FC70
1FC6FE60
0FEEFEE0
0FECFEE0
0FEC7EC0
07FC7FC0
07F87FC0
07F83F80
03F83F80
03F03F80
01F01F00
01F01F00
01E00E00
ENDCHAR
STARTCHAR uni1E8E
ENCODING 7822
SWIDTH 621 0
DWIDTH 25 0
BBX 25 35 0 0
BITMAP
00038000
000FC000
000FE000
000FE000
000FE000
000FC000
00078000
00000000
00000000
FFFC7F80
FFFC7F80
3FF03F00
1FE01C00
1FF01800
0FF03800
0FF83000
07F87000
07FC6000
03FCE000
03FEC000
03FFC000
01FF8000
01FF8000
00FF0000
00FF0000
007F0000
007F0000
007F0000
007F0000
007F0000
007F8000
007F8000
01FFE000
07FFF000
07FFF000
ENDCHAR
STARTCHAR uni1E8F
ENCODING 7823
SWIDTH 543 0
DWIDTH 22 0
BBX 22 38 0 -9
BITMAP
003E00
007F00
007F00
007F00
007F00
003E00
000800
000000
000000
000000
FFF3FC
FFE3F8
3FC0E0
3FC0C0
1FE1C0
1FE1C0
0FE180
0FF380
07F380
07F300
07FF00
03FE00
03FE00
01FE00
01FC00
00FC00
00F800
00F800
007800
007000
003000
003000
386000
7EE000
FEC000
FFC000
7F8000
3E0000
ENDCHAR
STARTCHAR uni1E92
ENCODING 7826
SWIDTH 568 0
DWIDTH 23 0
BBX 21 36 1 -10
BITMAP
FFFFF8
FFFFF8
F80FF0
F01FF0
F01FE0
F03FE0
F07FC0
007FC0
00FF80
00FF80
01FF00
01FE00
03FE00
03FC00
07FC00
0FF800
0FF800
1FF000
1FF078
3FE078
3FC078
7FC078
7F8078
FF80F8
FFFFF8
FFFFF8
000000
000000
000000
00F800
01FC00
01FC00
01FC00
01FC00
00F800
002000
ENDCHAR
STARTCHAR uni1E93
ENCODING 7827
SWIDTH 468 0
DWIDTH 19 0
BBX 17 29 1 -10
BITMAP
FFFF80
F87F80
F0FF00
F0FF00
F1FE00
F1FE00
03FC00
07F800
07F800
0FF000
0FF000
1FE000
3FE380
3FC780
7FC780
7F8780
FF0780
FFFF80
FFFF80
000000
000000
000000
03E000
07F000
07F000
07F000
07F000
03E000
008000
ENDCHAR
ENDFONT
